{
.appVersion = "934";
DisplayStrings = (
"HHHHOOOOO\012HOHOHOHOHO\012ABCDEFGHIJK\012LMNOPQ\012RSTUVWXYZ\012nbn\012non\012\012ABCDEFGHIJKLMNO\012PQRSTUVWXYZ\012abocdenfgh/idotless/jdotless klmno\012pqrstuvwxyzninja\012\012nvn nwn nxn\012HVH HWH HXH\012VWXvwx"
);
copyright = "Copyright (c) 2011, Cyreal (www.cyreal.org) with Reserved Font Name \"Podkova\"";
customParameters = (
{
name = trademark;
value = "Podkova is a trademark of Cyreal (www.cyreal.org).";
},
{
name = license;
value = "This Font Software is licensed under the SIL Open Font License, Version 1.1. This license is available with a FAQ at: http://scripts.sil.org/OFL";
},
{
name = licenseURL;
value = "http://scripts.sil.org/OFL";
},
{
name = fsType;
value = (
);
},
{
name = "Use Typo Metrics";
value = 1;
},
{
name = "Disable Last Change";
value = 1;
},
{
name = "Use Line Breaks";
value = 1;
}
);
date = "2016-10-31 19:49:04 +0000";
designer = "Ilya Yudin";
designerURL = "http://cyreal.org";
familyName = Podkova;
fontMaster = (
{
alignmentZones = (
"{642, 16}",
"{589, 16}",
"{429, 16}",
"{0, -16}",
"{-208, -16}"
);
ascender = 652;
capHeight = 589;
customParameters = (
{
name = winAscent;
value = 1019;
},
{
name = winDescent;
value = 249;
},
{
name = typoAscender;
value = 859;
},
{
name = hheaAscender;
value = 859;
},
{
name = typoDescender;
value = -249;
},
{
name = hheaDescender;
value = -249;
},
{
name = hheaLineGap;
value = 0;
},
{
name = typoLineGap;
value = 0;
},
{
name = paramArea;
value = "310";
},
{
name = paramDepth;
value = "13";
},
{
name = paramOver;
value = "3";
}
);
descender = -208;
id = UUID0;
userData = {
GSOffsetHorizontal = -15;
GSOffsetVertical = -15;
};
weightValue = 0;
xHeight = 429;
},
{
alignmentZones = (
"{667, 16}",
"{589, 23}",
"{454, 21}",
"{0, -23}",
"{-224, -25}"
);
ascender = 679;
capHeight = 589;
customParameters = (
{
name = winAscent;
value = 1019;
},
{
name = winDescent;
value = 249;
},
{
name = typoAscender;
value = 859;
},
{
name = hheaAscender;
value = 859;
},
{

glyphs = (
{
color = 1;
glyphname = A;
layers = (
{
anchors = (
{
name = bottom;
position = "{345, 0}";
},
{
name = ogonek;
position = "{603, 10}";
},
{
name = top;
position = "{337, 589}";
}
);
layerId = UUID0;
paths = (
{
closed = 1;
nodes = (
"188 520 LINE",
"289 520 LINE",
"123 69 LINE",
"27 69 LINE",
"27 0 LINE",
"260 0 LINE",
"260 69 LINE",
"196 69 LINE",
"230 160 LINE",
"446 160 LINE",
"478 69 LINE",
"415 69 LINE",
"415 0 LINE",
"658 0 LINE",
"658 69 LINE",
"563 69 LINE",
"382 589 LINE",
"188 589 LINE"
);
},
{
closed = 1;
nodes = (
"422 229 LINE",
"255 229 LINE",
"343 488 LINE"
);
}
);
width = 685;
},
{
anchors = (
{
name = bottom;
position = "{352, 0}";
},
{
name = ogonek;
position = "{611, 10}";
},
{
name = top;
position = "{332, 589}";
}
);
background = {
paths = (
{
closed = 1;
nodes = (
"665 69 LINE",
"570 69 LINE",
"389 589 LINE",
"195 589 LINE",
"195 520 LINE",
"296 520 LINE",
"130 69 LINE",
"34 69 LINE",
"34 0 LINE",
"267 0 LINE",
"267 69 LINE",
"203 69 LINE",
"237 160 LINE",
"453 160 LINE",
"485 69 LINE",
"422 69 LINE",
"422 0 LINE",
"665 0 LINE"
);
},
{
closed = 1;
nodes = (
"350 488 LINE",
"429 229 LINE",
"262 229 LINE"
);
}
);
};
layerId = "6E1B38A8-44EA-440A-BD04-FE41D2B0BC62";
paths = (
{
closed = 1;
nodes = (
"179 477 LINE",
"257 477 LINE",
"131 112 LINE",
"32 112 LINE",
"32 0 LINE",
"298 0 LINE",
"298 112 LINE",
"243 112 LINE",
"269 197 LINE",
"431 197 LINE",
"456 112 LINE",
"407 112 LINE",
"407 0 LINE",
"672 0 LINE",
"672 112 LINE",
"584 112 LINE",
"419 589 LINE",
"179 589 LINE"
);
},
{
closed = 1;
nodes = (
"407 279 LINE",
"294 279 LINE",
"351 470 LINE"
);
}
);
width = 704;
}
);
leftKerningGroup = A;
rightKerningGroup = A;
unicode = 0041;
},
{
glyphname = Aacute;
layers = (
{
background = {
paths = (
{
closed = 1;
nodes = (
"272 674 LINE",
"282 638 LINE",
"534 685 LINE",
"516 758 LINE"
);
}
);
};
components = (
{
name = A;
},
{
name = acutecomb.case;
transform = "{1, 0, 0, 1, 223, 0}";
}
);
layerId = UUID0;
width = 647;
},
{
components = (
{
name = A;
},
{
name = acutecomb.case;
transform = "{1, 0, 0, 1, 246, 0}";
}
);
layerId = "6E1B38A8-44EA-440A-BD04-FE41D2B0BC62";
width = 758;
}
);
leftKerningGroup = A;
rightKerningGroup = A;
unicode = 00C1;
},
{
glyphname = Agrave;
layers = (
{
background = {
paths = (
{
closed = 1;
nodes = (
"369 675 LINE",
"359 639 LINE",
"107 686 LINE",
"125 759 LINE"
);
}
);
};
components = (
{
name = A;
},
{
name = gravecomb.case;
transform = "{1, 0, 0, 1, 78, 0}";
}
);
layerId = UUID0;
width = 647;
},
{
components = (
{
name = A;
},
{
name = gravecomb.case;
transform = "{1, 0, 0, 1, 90, 0}";
}
);
layerId = "6E1B38A8-44EA-440A-BD04-FE41D2B0BC62";
width = 758;
}
);
leftKerningGroup = A;
rightKerningGroup = A;
unicode = 00C0;
},
{
color = 1;
glyphname = Aring;
layers = (
{
background = {
paths = (
{
closed = 1;
nodes = (
"235 672 OFFCURVE",
"274 633 OFFCURVE",
"322 633 CURVE SMOOTH",
"369 633 OFFCURVE",
"408 672 OFFCURVE",
"408 719 CURVE SMOOTH",
"408 766 OFFCURVE",
"369 805 OFFCURVE",
"322 805 CURVE SMOOTH",
"274 805 OFFCURVE",
"235 766 OFFCURVE",
"235 719 CURVE SMOOTH"
);
},
{
closed = 1;
nodes = (
"286 738 OFFCURVE",
"303 755 OFFCURVE",
"322 755 CURVE SMOOTH",
"340 755 OFFCURVE",
"357 738 OFFCURVE",
"357 719 CURVE",
"357 704 LINE",
"336 683 LINE",
"322 683 LINE SMOOTH",
"303 683 OFFCURVE",
"286 700 OFFCURVE",
"286 719 CURVE SMOOTH"
);
}
);
};
components = (
{
name = A;
},
{
alignment = -1;
name = ringcomb;
transform = "{1, 0, 0, 1, 185, 72}";
}
);
layerId = UUID0;
width = 647;
},
{
components = (
{
name = A;
},
{
alignment = -1;
name = ringcomb;
transform = "{1, 0, 0, 1, 241, 35}";
}
);
layerId = "6E1B38A8-44EA-440A-BD04-FE41D2B0BC62";
width = 758;
}
);
leftKerningGroup = A;
rightKerningGroup = A;
unicode = 00C5;
},
{
color = 1;
glyphname = AE;
layers = (
{
layerId = UUID0;
paths = (
{
closed = 1;
nodes = (
"289 520 LINE",
"392 520 LINE",
"106 69 LINE",
"6 69 LINE",
"6 0 LINE",
"246 0 LINE",
"246 69 LINE",
"188 69 LINE",
"244 160 LINE",
"470 160 LINE",
"470 69 LINE",
"375 69 LINE",
"375 0 LINE",
"813 0 LINE",
"864 154 LINE",
"798 176 LINE",
"758 69 LINE",
"550 69 LINE",
"550 260 LINE",
"711 260 LINE",
"711 329 LINE",
"551 329 LINE",
"551 520 LINE",
"738 520 LINE",
"778 413 LINE",
"844 435 LINE",
"792 589 LINE",
"289 589 LINE"
);
},
{
closed = 1;
nodes = (
"471 520 LINE",
"470 229 LINE",
"287 229 LINE",
"469 520 LINE"
);
}
);
width = 906;
},
{
background = {
paths = (
{
closed = 1;
nodes = (
"428 0 LINE",
"865 0 LINE",
"916 154 LINE",
"850 176 LINE",
"810 69 LINE",
"602 69 LINE",
"602 260 LINE",
"763 260 LINE",
"763 329 LINE",
"603 329 LINE",
"603 520 LINE",
"790 520 LINE",
"830 413 LINE",
"896 435 LINE",
"845 589 LINE",
"341 589 LINE",
"341 520 LINE",
"444 520 LINE",
"159 69 LINE",
"58 69 LINE",
"58 0 LINE",
"298 0 LINE",
"298 69 LINE",
"240 69 LINE",
"296 160 LINE",
"522 160 LINE",
"522 69 LINE",
"428 69 LINE"
);
},
{
closed = 1;
nodes = (
"523 520 LINE",
"522 229 LINE",
"339 229 LINE",
"521 520 LINE"
);
}
);
};
layerId = "6E1B38A8-44EA-440A-BD04-FE41D2B0BC62";
paths = (
{
closed = 1;
nodes = (
"283 477 LINE",
"373 477 LINE",
"152 112 LINE",
"59 112 LINE",
"59 0 LINE",
"326 0 LINE",
"326 112 LINE",
"275 112 LINE",
"313 177 LINE",
"484 177 LINE",
"484 112 LINE",
"401 112 LINE",
"401 0 LINE",
"886 0 LINE",
"946 173 LINE",
"841 210 LINE",
"805 112 LINE",
"613 112 LINE",
"613 243 LINE",
"775 243 LINE",
"775 354 LINE",
"613 354 LINE",
"613 477 LINE",
"779 477 LINE",
"815 368 LINE",
"922 404 LINE",
"860 589 LINE",
"283 589 LINE"
);
},
{
closed = 1;
nodes = (
"484 288 LINE",
"376 288 LINE",
"484 477 LINE"
);
}
);
width = 1011;
}
);
leftKerningGroup = A;
rightKerningGroup = E;
unicode = 00C6;
},
{
color = 1;
glyphname = B;
layers = (
{
anchors = (
{
name = bottom;
position = "{290, 0}";
},
{
name = top;
position = "{290, 589}";
}
);
layerId = UUID0;
paths = (
{
closed = 1;
nodes = (
"37 589 LINE",
"37 520 LINE",
"132 520 LINE",
"132 69 LINE",
"37 69 LINE",
"37 0 LINE",
"334 0 LINE SMOOTH",
"469 0 OFFCURVE",
"531 68 OFFCURVE",
"531 161 CURVE SMOOTH",
"531 233 OFFCURVE",
"487 284 OFFCURVE",
"431 304 CURVE",
"481 330 OFFCURVE",
"512 381 OFFCURVE",
"512 435 CURVE SMOOTH",
"512 535 OFFCURVE",
"435 589 OFFCURVE",
"292 589 CURVE SMOOTH"
);
},
{
closed = 1;
nodes = (
"211 70 LINE",
"212 268 LINE",
"336 268 LINE",
"407 268 OFFCURVE",
"446 233 OFFCURVE",
"446 172 CURVE SMOOTH",
"446 104 OFFCURVE",
"405 70 OFFCURVE",
"330 70 CURVE SMOOTH"
);
},
{
closed = 1;
nodes = (
"212 328 LINE",
"212 520 LINE",
"303 520 LINE",
"384 520 OFFCURVE",
"427 490 OFFCURVE",
"427 424 CURVE SMOOTH",
"427 365 OFFCURVE",
"395 328 OFFCURVE",
"337 328 CURVE SMOOTH"
);
}
);
width = 574;
},
{
anchors = (
{
name = bottom;
position = "{311, 0}";
},
{
name = top;
position = "{311, 589}";
}
);
background = {
paths = (
{
closed = 1;
nodes = (
"45 589 LINE",
"45 477 LINE",
"126 477 LINE",
"126 112 LINE",
"45 112 LINE",
"45 0 LINE",
"372 0 LINE SMOOTH",
"509 0 OFFCURVE",
"573 64 OFFCURVE",
"573 165 CURVE SMOOTH",
"573 216 OFFCURVE",
"546 275 OFFCURVE",
"496 299 CURVE",
"540 338 OFFCURVE",
"555 378 OFFCURVE",
"555 416 CURVE SMOOTH",
"555 545 OFFCURVE",
"478 589 OFFCURVE",
"310 589 CURVE SMOOTH"
);
},
{
closed = 1;
nodes = (
"255 112 LINE",
"255 244 LINE",
"355 244 LINE SMOOTH",
"410 244 OFFCURVE",
"440 228 OFFCURVE",
"440 179 CURVE SMOOTH",
"440 120 OFFCURVE",
"407 112 OFFCURVE",
"349 112 CURVE SMOOTH"
);
},
{
closed = 1;
nodes = (
"255 345 LINE",
"255 477 LINE",
"321 477 LINE SMOOTH",
"395 477 OFFCURVE",
"421 458 OFFCURVE",
"421 410 CURVE SMOOTH",
"421 355 OFFCURVE",
"376 345 OFFCURVE",
"356 345 CURVE SMOOTH"
);
}
);
};
layerId = "6E1B38A8-44EA-440A-BD04-FE41D2B0BC62";
paths = (
{
closed = 1;
nodes = (
"45 589 LINE",
"45 477 LINE",
"126 477 LINE",
"126 112 LINE",
"45 112 LINE",
"45 0 LINE",
"372 0 LINE SMOOTH",
"503 0 OFFCURVE",
"573 58 OFFCURVE",
"573 162 CURVE SMOOTH",
"573 234 OFFCURVE",
"539 281 OFFCURVE",
"476 299 CURVE",
"527 324 OFFCURVE",
"555 369 OFFCURVE",
"555 429 CURVE SMOOTH",
"555 532 OFFCURVE",
"469 589 OFFCURVE",
"310 589 CURVE SMOOTH"
);
},
{
closed = 1;
nodes = (
"255 345 LINE",
"255 477 LINE",
"321 477 LINE SMOOTH",
"386 477 OFFCURVE",
"421 454 OFFCURVE",
"421 410 CURVE SMOOTH",
"421 368 OFFCURVE",
"398 345 OFFCURVE",
"356 345 CURVE SMOOTH"
);
},
{
closed = 1;
nodes = (
"255 112 LINE",
"255 244 LINE",
"355 244 LINE SMOOTH",
"410 244 OFFCURVE",
"440 221 OFFCURVE",
"440 179 CURVE SMOOTH",
"440 135 OFFCURVE",
"408 112 OFFCURVE",
"349 112 CURVE SMOOTH"
);
}
);
width = 615;
},
{
associatedMasterId = "6E1B38A8-44EA-440A-BD04-FE41D2B0BC62";
background = {
paths = (
{
closed = 1;
nodes = (
"480 210 LINE",
"445 111 LINE",
"251 111 LINE",
"252 243 LINE",
"415 243 LINE",
"415 354 LINE",
"252 354 LINE",
"252 477 LINE",
"418 477 LINE",
"455 368 LINE",
"561 404 LINE",
"499 589 LINE",
"42 589 LINE",
"42 477 LINE",
"123 477 LINE",
"122 111 LINE",
"41 111 LINE",
"41 0 LINE",
"525 0 LINE",
"585 173 LINE"
);
}
);
};
layerId = "34DD3F09-0246-4E3A-902F-751AF2FC2771";
name = "Nov 1 16, 12:54";
paths = (
{
closed = 1;
nodes = (
"41 589 LINE",
"41 477 LINE",
"122 477 LINE",
"122 112 LINE",
"41 112 LINE",
"41 0 LINE",
"368 0 LINE SMOOTH",
"505 0 OFFCURVE",
"569 64 OFFCURVE",
"569 165 CURVE SMOOTH",
"569 216 OFFCURVE",
"542 275 OFFCURVE",
"492 299 CURVE",
"536 338 OFFCURVE",
"551 378 OFFCURVE",
"551 416 CURVE SMOOTH",
"551 545 OFFCURVE",
"474 589 OFFCURVE",
"306 589 CURVE SMOOTH"
);
},
{
closed = 1;
nodes = (
"251 112 LINE",
"251 244 LINE",
"351 244 LINE SMOOTH",
"406 244 OFFCURVE",
"436 228 OFFCURVE",
"436 179 CURVE SMOOTH",
"436 120 OFFCURVE",
"403 112 OFFCURVE",
"345 112 CURVE SMOOTH"
);
},
{
closed = 1;
nodes = (
"251 345 LINE",
"251 477 LINE",
"317 477 LINE SMOOTH",
"391 477 OFFCURVE",
"417 458 OFFCURVE",
"417 410 CURVE SMOOTH",
"417 355 OFFCURVE",
"372 345 OFFCURVE",
"352 345 CURVE SMOOTH"
);
}
);
width = 587;
},
{
associatedMasterId = UUID0;
layerId = "4ED47EDE-D14B-4714-A4A4-5BA0313D6989";
name = "Nov 1 16, 12:59";
paths = (
{
closed = 1;
nodes = (
"48 589 LINE",
"48 520 LINE",
"143 520 LINE",
"143 69 LINE",
"48 69 LINE",
"48 0 LINE",
"365 0 LINE SMOOTH",
"490 0 OFFCURVE",
"542 76 OFFCURVE",
"542 174 CURVE SMOOTH",
"542 229 OFFCURVE",
"506 283 OFFCURVE",
"452 304 CURVE",
"485 326 OFFCURVE",
"523 379 OFFCURVE",
"523 435 CURVE SMOOTH",
"523 547 OFFCURVE",
"454 589 OFFCURVE",
"303 589 CURVE SMOOTH"
);
},
{
closed = 1;
nodes = (
"222 70 LINE",
"223 268 LINE",
"347 268 LINE",
"419 268 OFFCURVE",
"457 237 OFFCURVE",
"457 174 CURVE SMOOTH",
"457 103 OFFCURVE",
"414 70 OFFCURVE",
"341 70 CURVE SMOOTH"
);
},
{
closed = 1;
nodes = (
"223 328 LINE",
"223 520 LINE",
"314 520 LINE",
"379 520 OFFCURVE",
"438 521 OFFCURVE",
"438 434 CURVE SMOOTH",
"438 345 OFFCURVE",
"376 328 OFFCURVE",
"348 328 CURVE SMOOTH"
);
}
);
width = 601;
}
);
leftKerningGroup = I;
rightKerningGroup = B;
unicode = 0042;
},
{
color = 1;
glyphname = C;
layers = (
{
anchors = (
{
name = bottom;
position = "{307, 0}";
},
{
name = top;
position = "{327, 589}";
}
);
layerId = UUID0;
paths = (
{
closed = 1;
nodes = (
"465 426 LINE",
"533 441 LINE",
"511 557 LINE",
"511 558 OFFCURVE",
"459 603 OFFCURVE",
"327 604 CURVE SMOOTH",
"155 605 OFFCURVE",
"43 483 OFFCURVE",
"44 295 CURVE SMOOTH",
"45 105 OFFCURVE",
"156 -15 OFFCURVE",
"328 -15 CURVE SMOOTH",
"436 -15 OFFCURVE",
"507 22 OFFCURVE",
"507 22 CURVE",
"532 138 LINE",
"464 154 LINE",
"445 74 LINE",
"420 65 OFFCURVE",
"378 53 OFFCURVE",
"328 53 CURVE SMOOTH",
"202 53 OFFCURVE",
"129 143 OFFCURVE",
"129 295 CURVE SMOOTH",
"129 444 OFFCURVE",
"199 536 OFFCURVE",
"328 536 CURVE SMOOTH",
"386 536 OFFCURVE",
"425 523 OFFCURVE",
"445 512 CURVE"
);
}
);
width = 575;
},
{
anchors = (
{
name = bottom;
position = "{308, 0}";
},
{
name = top;
position = "{348, 589}";
}
);
background = {
paths = (
{
closed = 1;
nodes = (
"485 154 LINE",
"466 74 LINE",
"441 65 OFFCURVE",
"399 53 OFFCURVE",
"349 53 CURVE SMOOTH",
"223 53 OFFCURVE",
"150 143 OFFCURVE",
"150 295 CURVE SMOOTH",
"150 444 OFFCURVE",
"221 536 OFFCURVE",
"349 536 CURVE SMOOTH",
"408 536 OFFCURVE",
"446 523 OFFCURVE",
"466 512 CURVE",
"486 426 LINE",
"555 441 LINE",
"533 557 LINE",
"532 558 OFFCURVE",
"480 603 OFFCURVE",
"348 604 CURVE SMOOTH",
"176 605 OFFCURVE",
"64 483 OFFCURVE",
"65 295 CURVE SMOOTH",
"66 105 OFFCURVE",
"177 -15 OFFCURVE",
"349 -15 CURVE SMOOTH",
"457 -15 OFFCURVE",
"528 22 OFFCURVE",
"528 22 CURVE",
"553 138 LINE"
);
}
);
};
layerId = "6E1B38A8-44EA-440A-BD04-FE41D2B0BC62";
paths = (
{
closed = 1;
nodes = (
"470 384 LINE",
"579 408 LINE",
"549 558 LINE",
"549 558 OFFCURVE",
"475 611 OFFCURVE",
"351 611 CURVE SMOOTH",
"166 611 OFFCURVE",
"44 495 OFFCURVE",
"44 296 CURVE SMOOTH",
"44 75 OFFCURVE",
"170 -22 OFFCURVE",
"352 -22 CURVE SMOOTH",
"466 -22 OFFCURVE",
"546 25 OFFCURVE",
"546 25 CURVE",
"578 176 LINE",
"470 201 LINE",
"448 111 LINE",
"448 111 OFFCURVE",
"402 86 OFFCURVE",
"352 86 CURVE SMOOTH",
"242 86 OFFCURVE",
"178 160 OFFCURVE",
"178 296 CURVE SMOOTH",
"178 430 OFFCURVE",
"240 503 OFFCURVE",
"352 503 CURVE SMOOTH",
"396 503 OFFCURVE",
"448 488 OFFCURVE",
"448 487 CURVE"
);
}
);
width = 622;
}
);
leftKerningGroup = O;
rightKerningGroup = C;
unicode = 0043;
},
{
glyphname = Ccedilla;
layers = (
{
background = {
paths = (
{
closed = 1;
nodes = (
"322 10 LINE",
"322 10 OFFCURVE",
"276 25 OFFCURVE",
"273 27 CURVE",
"273 -112 LINE",
"313 -112 LINE SMOOTH",
"369 -112 OFFCURVE",
"376 -125 OFFCURVE",
"376 -144 CURVE SMOOTH",
"376 -162 OFFCURVE",
"361 -177 OFFCURVE",
"324 -177 CURVE SMOOTH",
"279 -177 OFFCURVE",
"240 -149 OFFCURVE",
"240 -149 CURVE",
"216 -185 LINE",
"227 -193 OFFCURVE",
"268 -223 OFFCURVE",
"325 -223 CURVE SMOOTH",
"384 -223 OFFCURVE",
"436 -200 OFFCURVE",
"436 -144 CURVE SMOOTH",
"436 -91 OFFCURVE",
"396 -68 OFFCURVE",
"326 -68 CURVE SMOOTH",
"322 -68 LINE"
);
}
);
};
components = (
{
name = C;
},
{
name = cedillacomb;
transform = "{1, 0, 0, 1, 241, 0}";
}
);
layerId = UUID0;
width = 594;
},
{
components = (
{
name = C;
},
{
name = cedillacomb;
transform = "{1, 0, 0, 1, 238, 0}";
}
);
layerId = "6E1B38A8-44EA-440A-BD04-FE41D2B0BC62";
width = 693;
}
);
leftKerningGroup = O;
rightKerningGroup = C;
unicode = 00C7;
},
{
color = 1;
glyphname = D;
layers = (
{
anchors = (
{
name = bottom;
position = "{325, 0}";
},
{
name = center;
position = "{197, 359}";
},
{
name = top;
position = "{325, 589}";
}
);
background = {
paths = (
{
closed = 1;
nodes = (
"37 589 LINE",
"37 520 LINE",
"132 520 LINE",
"132 69 LINE",
"37 69 LINE",
"37 0 LINE",
"311 0 LINE SMOOTH",
"477 0 OFFCURVE",
"606 109 OFFCURVE",
"606 285 CURVE SMOOTH",
"606 517 OFFCURVE",
"483 589 OFFCURVE",
"303 589 CURVE"
);
},
{
closed = 1;
nodes = (
"303 521 LINE",
"437 521 OFFCURVE",
"521 483 OFFCURVE",
"521 285 CURVE SMOOTH",
"521 144 OFFCURVE",
"443 67 OFFCURVE",
"293 68 CURVE SMOOTH",
"212 69 LINE",
"212 521 LINE"
);
}
);
};
layerId = UUID0;
paths = (
{
closed = 1;
nodes = (
"37 589 LINE",
"37 520 LINE",
"132 520 LINE",
"132 69 LINE",
"37 69 LINE",
"37 0 LINE",
"311 0 LINE SMOOTH",
"496 0 OFFCURVE",
"606 106 OFFCURVE",
"606 285 CURVE SMOOTH",
"606 476 OFFCURVE",
"493 589 OFFCURVE",
"303 589 CURVE SMOOTH"
);
},
{
closed = 1;
nodes = (
"212 69 LINE",
"212 520 LINE",
"303 520 LINE SMOOTH",
"446 520 OFFCURVE",
"521 439 OFFCURVE",
"521 285 CURVE SMOOTH",
"521 143 OFFCURVE",
"443 69 OFFCURVE",
"293 69 CURVE SMOOTH"
);
}
);
width = 649;
},
{
anchors = (
{
name = bottom;
position = "{337, 0}";
},
{
name = center;
position = "{207, 330}";
},
{
name = top;
position = "{337, 589}";
}
);
background = {
paths = (
{
closed = 1;
nodes = (
"52 589 LINE",
"52 520 LINE",
"148 520 LINE",
"148 69 LINE",
"52 69 LINE",
"52 0 LINE",
"326 0 LINE SMOOTH",
"492 0 OFFCURVE",
"621 109 OFFCURVE",
"621 285 CURVE SMOOTH",
"621 517 OFFCURVE",
"499 589 OFFCURVE",
"318 589 CURVE SMOOTH"
);
},
{
closed = 1;
nodes = (
"228 520 LINE",
"318 520 LINE SMOOTH",
"459 520 OFFCURVE",
"536 478 OFFCURVE",
"536 285 CURVE SMOOTH",
"536 144 OFFCURVE",
"459 69 OFFCURVE",
"308 69 CURVE SMOOTH",
"228 69 LINE",
"228 520 LINE"
);
}
);
};
layerId = "6E1B38A8-44EA-440A-BD04-FE41D2B0BC62";
paths = (
{
closed = 1;
nodes = (
"45 589 LINE",
"45 477 LINE",
"126 477 LINE",
"126 112 LINE",
"45 112 LINE",
"45 0 LINE",
"329 0 LINE SMOOTH",
"524 0 OFFCURVE",
"639 105 OFFCURVE",
"639 283 CURVE SMOOTH",
"639 475 OFFCURVE",
"521 589 OFFCURVE",
"321 589 CURVE SMOOTH"
);
},
{
closed = 1;
nodes = (
"255 112 LINE",
"255 477 LINE",
"321 477 LINE SMOOTH",
"442 477 OFFCURVE",
"505 410 OFFCURVE",
"505 282 CURVE SMOOTH",
"505 170 OFFCURVE",
"438 112 OFFCURVE",
"311 112 CURVE SMOOTH"
);
}
);
width = 681;
}
);
leftKerningGroup = I;
rightKerningGroup = D;
unicode = 0044;
},
{
color = 1;
glyphname = Eth;
layers = (
{
background = {
paths = (
{
closed = 1;
nodes = (
"50 589 LINE",
"50 520 LINE",
"145 520 LINE",
"145 69 LINE",
"50 69 LINE",
"50 0 LINE",
"324 0 LINE SMOOTH",
"490 0 OFFCURVE",
"619 109 OFFCURVE",
"619 285 CURVE SMOOTH",
"619 517 OFFCURVE",
"496 589 OFFCURVE",
"316 589 CURVE"
);
},
{
closed = 1;
nodes = (
"316 521 LINE",
"450 521 OFFCURVE",
"534 483 OFFCURVE",
"534 285 CURVE SMOOTH",
"534 144 OFFCURVE",
"456 67 OFFCURVE",
"306 68 CURVE SMOOTH",
"225 69 LINE",
"225 521 LINE"
);
},
{
closed = 1;
nodes = (
"50 272 LINE",
"338 272 LINE",
"338 336 LINE",
"50 336 LINE"
);
}
);
};
layerId = UUID0;
paths = (
{
closed = 1;
nodes = (
"50 589 LINE",
"50 520 LINE",
"145 520 LINE",
"145 336 LINE",
"50 336 LINE",
"50 272 LINE",
"145 272 LINE",
"145 69 LINE",
"50 69 LINE",
"50 0 LINE",
"324 0 LINE SMOOTH",
"490 0 OFFCURVE",
"619 109 OFFCURVE",
"619 285 CURVE SMOOTH",
"619 517 OFFCURVE",
"496 589 OFFCURVE",
"316 589 CURVE SMOOTH"
);
},
{
closed = 1;
nodes = (
"225 69 LINE",
"225 272 LINE",
"338 272 LINE",
"338 336 LINE",
"225 336 LINE",
"225 520 LINE",
"316 520 LINE SMOOTH",
"456 520 OFFCURVE",
"534 478 OFFCURVE",
"534 285 CURVE SMOOTH",
"534 144 OFFCURVE",
"456 69 OFFCURVE",
"306 69 CURVE SMOOTH"
);
}
);
width = 674;
},
{
background = {
paths = (
{
closed = 1;
nodes = (
"105 272 LINE",
"200 272 LINE",
"200 69 LINE",
"105 69 LINE",
"105 0 LINE",
"379 0 LINE SMOOTH",
"545 0 OFFCURVE",
"674 109 OFFCURVE",
"674 285 CURVE SMOOTH",
"674 517 OFFCURVE",
"551 589 OFFCURVE",
"371 589 CURVE SMOOTH",
"105 589 LINE",
"105 520 LINE",
"200 520 LINE",
"200 336 LINE",
"105 336 LINE"
);
},
{
closed = 1;
nodes = (
"280 520 LINE",
"371 520 LINE SMOOTH",
"511 520 OFFCURVE",
"589 478 OFFCURVE",
"589 285 CURVE SMOOTH",
"589 144 OFFCURVE",
"511 69 OFFCURVE",
"361 69 CURVE SMOOTH",
"280 69 LINE",
"280 272 LINE",
"393 272 LINE",
"393 336 LINE",
"280 336 LINE"
);
}
);
};
layerId = "6E1B38A8-44EA-440A-BD04-FE41D2B0BC62";
paths = (
{
closed = 1;
nodes = (
"96 589 LINE",
"96 477 LINE",
"177 477 LINE",
"177 360 LINE",
"96 360 LINE",
"96 249 LINE",
"177 249 LINE",
"177 112 LINE",
"96 112 LINE",
"96 0 LINE",
"380 0 LINE SMOOTH",
"560 0 OFFCURVE",
"690 69 OFFCURVE",
"690 283 CURVE SMOOTH",
"690 506 OFFCURVE",
"567 589 OFFCURVE",
"372 589 CURVE SMOOTH"
);
},
{
closed = 1;
nodes = (
"306 112 LINE",
"306 249 LINE",
"396 249 LINE",
"396 360 LINE",
"306 360 LINE",
"306 477 LINE",
"372 477 LINE SMOOTH",
"497 477 OFFCURVE",
"556 429 OFFCURVE",
"556 282 CURVE SMOOTH",
"556 141 OFFCURVE",
"496 112 OFFCURVE",
"362 112 CURVE SMOOTH"
);
}
);
width = 768;
}
);
leftKerningGroup = I;
rightKerningGroup = D;
unicode = 00D0;
},
{
color = 1;
glyphname = E;
layers = (
{
anchors = (
{
name = bottom;
position = "{293, 0}";
},
{
name = ogonek;
position = "{534, 10}";
},
{
name = top;
position = "{293, 589}";
},
{
name = topleft;
position = "{10, 589}";
}
);
layerId = UUID0;
paths = (
{
closed = 1;
nodes = (
"38 520 LINE",
"134 520 LINE",
"133 69 LINE",
"37 69 LINE",
"37 0 LINE",
"502 0 LINE",
"553 154 LINE",
"488 176 LINE",
"448 69 LINE",
"213 69 LINE",
"214 270 LINE",
"401 270 LINE",
"401 339 LINE",
"214 339 LINE",
"214 520 LINE",
"428 520 LINE",
"468 413 LINE",
"533 435 LINE",
"482 589 LINE",
"38 589 LINE"
);
}
);
width = 587;
},
{
anchors = (
{
name = bottom;
position = "{303, 0}";
},
{
name = ogonek;
position = "{542, 10}";
},
{
name = top;
position = "{303, 589}";
},
{
name = topleft;
position = "{24, 589}";
}
);
background = {
paths = (
{
closed = 1;
nodes = (
"503 176 LINE",
"462 69 LINE",
"228 69 LINE",
"229 270 LINE",
"416 270 LINE",
"416 339 LINE",
"229 339 LINE",
"229 520 LINE",
"442 520 LINE",
"483 413 LINE",
"548 435 LINE",
"497 589 LINE",
"53 589 LINE",
"53 520 LINE",
"149 520 LINE",
"148 69 LINE",
"52 69 LINE",
"52 0 LINE",
"517 0 LINE",
"568 154 LINE"
);
}
);
};
layerId = "6E1B38A8-44EA-440A-BD04-FE41D2B0BC62";
paths = (
{
closed = 1;
nodes = (
"46 477 LINE",
"127 477 LINE",
"126 112 LINE",
"45 112 LINE",
"45 0 LINE",
"529 0 LINE",
"589 173 LINE",
"484 210 LINE",
"449 112 LINE",
"256 112 LINE",
"256 243 LINE",
"419 243 LINE",
"419 354 LINE",
"256 354 LINE",
"256 477 LINE",
"422 477 LINE",
"459 368 LINE",
"565 404 LINE",
"503 589 LINE",
"46 589 LINE"
);
}
);
width = 621;
}
);
leftKerningGroup = I;
rightKerningGroup = E;
unicode = 0045;
},
{
glyphname = Eacute;
layers = (
{
background = {
paths = (
{
closed = 1;
nodes = (
"498 176 LINE",
"458 69 LINE",
"223 69 LINE",
"224 270 LINE",
"411 270 LINE",
"411 339 LINE",
"224 339 LINE",
"224 520 LINE",
"438 520 LINE",
"478 413 LINE",
"543 435 LINE",
"492 589 LINE",
"48 589 LINE",
"48 520 LINE",
"144 520 LINE",
"143 69 LINE",
"47 69 LINE",
"47 0 LINE",
"512 0 LINE",
"563 154 LINE"
);
},
{
closed = 1;
nodes = (
"190 674 LINE",
"200 638 LINE",
"452 685 LINE",
"434 758 LINE"
);
}
);
};
components = (
{
name = E;
},
{
name = acutecomb.case;
transform = "{1, 0, 0, 1, 210, 0}";
}
);
layerId = UUID0;
width = 605;
},
{
components = (
{
name = E;
},
{
name = acutecomb.case;
transform = "{1, 0, 0, 1, 220, 0}";
}
);
layerId = "6E1B38A8-44EA-440A-BD04-FE41D2B0BC62";
width = 684;
}
);
leftKerningGroup = I;
rightKerningGroup = E;
unicode = 00C9;
},
{
glyphname = Egrave;
layers = (
{
background = {
paths = (
{
closed = 1;
nodes = (
"322 678 LINE",
"313 642 LINE",
"61 689 LINE",
"79 762 LINE"
);
}
);
};
components = (
{
name = E;
},
{
name = gravecomb.case;
transform = "{1, 0, 0, 1, 65, 0}";
}
);
layerId = UUID0;
width = 605;
},
{
components = (
{
name = E;
},
{
name = gravecomb.case;
transform = "{1, 0, 0, 1, 64, 0}";
}
);
layerId = "6E1B38A8-44EA-440A-BD04-FE41D2B0BC62";
width = 684;
}
);
leftKerningGroup = I;
rightKerningGroup = E;
unicode = 00C8;
},
{
color = 1;
glyphname = F;
layers = (
{
anchors = (
{
name = bottom;
position = "{269, 0}";
},
{
name = top;
position = "{269, 589}";
}
);
layerId = UUID0;
paths = (
{
closed = 1;
nodes = (
"38 520 LINE",
"134 520 LINE",
"133 69 LINE",
"37 69 LINE",
"37 0 LINE",
"334 0 LINE",
"334 69 LINE",
"212 69 LINE",
"212 264 LINE",
"378 264 LINE",
"378 333 LINE",
"213 333 LINE",
"213 520 LINE",
"427 520 LINE",
"467 413 LINE",
"532 435 LINE",
"481 589 LINE",
"38 589 LINE"
);
}
);
width = 560;
},
{
anchors = (
{
name = bottom;
position = "{292, 0}";
},
{
name = top;
position = "{292, 589}";
}
);
background = {
paths = (
{
closed = 1;
nodes = (
"548 435 LINE",
"496 589 LINE",
"54 589 LINE",
"54 520 LINE",
"149 520 LINE",
"148 69 LINE",
"53 69 LINE",
"53 0 LINE",
"349 0 LINE",
"349 69 LINE",
"227 69 LINE",
"227 264 LINE",
"393 264 LINE",
"393 333 LINE",
"228 333 LINE",
"228 520 LINE",
"442 520 LINE",
"482 413 LINE"
);
}
);
};
layerId = "6E1B38A8-44EA-440A-BD04-FE41D2B0BC62";
paths = (
{
closed = 1;
nodes = (
"45 477 LINE",
"128 477 LINE",
"127 112 LINE",
"45 112 LINE",
"45 0 LINE",
"383 0 LINE",
"383 112 LINE",
"254 112 LINE",
"254 240 LINE",
"405 240 LINE",
"405 352 LINE",
"255 352 LINE",
"255 477 LINE",
"423 477 LINE",
"462 360 LINE",
"568 396 LINE",
"504 589 LINE",
"45 589 LINE"
);
}
);
width = 597;
}
);
leftKerningGroup = I;
rightKerningGroup = F;
unicode = 0046;
},
{
color = 1;
glyphname = G;
layers = (
{
anchors = (
{
name = bottom;
position = "{335, 0}";
},
{
name = top;
position = "{335, 589}";
}
);
layerId = UUID0;
paths = (
{
closed = 1;
nodes = (
"532 290 LINE",
"329 290 LINE",
"329 221 LINE",
"457 221 LINE",
"457 92 LINE",
"417 64 OFFCURVE",
"386 53 OFFCURVE",
"321 53 CURVE SMOOTH",
"220 53 OFFCURVE",
"129 120 OFFCURVE",
"129 295 CURVE SMOOTH",
"129 450 OFFCURVE",
"226 536 OFFCURVE",
"331 536 CURVE SMOOTH",
"393 536 OFFCURVE",
"419 522 OFFCURVE",
"450 503 CURVE",
"468 426 LINE",
"537 441 LINE",
"514 547 LINE",
"464 587 OFFCURVE",
"402 604 OFFCURVE",
"330 604 CURVE SMOOTH",
"157 604 OFFCURVE",
"44 485 OFFCURVE",
"44 295 CURVE SMOOTH",
"44 85 OFFCURVE",
"166 -15 OFFCURVE",
"321 -15 CURVE SMOOTH",
"420 -15 OFFCURVE",
"462 5 OFFCURVE",
"532 54 CURVE"
);
}
);
width = 592;
},
{
anchors = (
{
name = bottom;
position = "{355, 0}";
},
{
name = top;
position = "{355, 589}";
}
);
background = {
paths = (
{
closed = 1;
nodes = (
"349 221 LINE",
"477 221 LINE",
"477 93 LINE",
"477 91 OFFCURVE",
"416 53 OFFCURVE",
"331 53 CURVE SMOOTH",
"230 53 OFFCURVE",
"149 120 OFFCURVE",
"149 295 CURVE SMOOTH",
"149 450 OFFCURVE",
"216 536 OFFCURVE",
"331 536 CURVE SMOOTH",
"403 536 OFFCURVE",
"446 521 OFFCURVE",
"468 511 CURVE",
"488 426 LINE",
"557 441 LINE",
"535 557 LINE",
"535 557 OFFCURVE",
"462 604 OFFCURVE",
"330 604 CURVE SMOOTH",
"178 604 OFFCURVE",
"64 485 OFFCURVE",
"64 295 CURVE SMOOTH",
"64 85 OFFCURVE",
"196 -15 OFFCURVE",
"331 -15 CURVE SMOOTH",
"480 -15 OFFCURVE",
"552 62 OFFCURVE",
"552 63 CURVE",
"552 290 LINE",
"349 290 LINE"
);
}
);
};
layerId = "6E1B38A8-44EA-440A-BD04-FE41D2B0BC62";
paths = (
{
closed = 1;
nodes = (
"579 308 LINE",
"328 308 LINE",
"328 208 LINE",
"456 208 LINE",
"456 113 LINE",
"423 99 OFFCURVE",
"390 89 OFFCURVE",
"349 89 CURVE SMOOTH",
"246 89 OFFCURVE",
"177 171 OFFCURVE",
"177 294 CURVE SMOOTH",
"177 422 OFFCURVE",
"261 505 OFFCURVE",
"356 505 CURVE SMOOTH",
"390 505 OFFCURVE",
"425 500 OFFCURVE",
"458 483 CURVE",
"482 379 LINE",
"587 406 LINE",
"554 550 LINE",
"504 586 OFFCURVE",
"435 610 OFFCURVE",
"353 610 CURVE SMOOTH",
"159 610 OFFCURVE",
"43 484 OFFCURVE",
"43 294 CURVE SMOOTH",
"43 104 OFFCURVE",
"168 -22 OFFCURVE",
"351 -22 CURVE SMOOTH",
"456 -22 OFFCURVE",
"516 15 OFFCURVE",
"579 60 CURVE"
);
}
);
width = 640;
}
);
leftKerningGroup = O;
rightKerningGroup = C;
unicode = 0047;
},
{
color = 1;
glyphname = H;
layers = (
{
anchors = (
{
name = bottom;
position = "{357, 0}";
},
{
name = center;
position = "{357, 295}";
},
{
name = top;
position = "{357, 589}";
},
{
name = topleft;
position = "{10, 589}";
}
);
layerId = UUID0;
paths = (
{
closed = 1;
nodes = (
"38 520 LINE",
"134 520 LINE",
"133 69 LINE",
"37 69 LINE",
"37 0 LINE",
"276 0 LINE",
"276 69 LINE",
"212 69 LINE",
"213 267 LINE",
"501 267 LINE",
"501 69 LINE",
"437 69 LINE",
"437 0 LINE",
"675 0 LINE",
"675 69 LINE",
"579 69 LINE",
"582 520 LINE",
"677 520 LINE",
"677 589 LINE",
"438 589 LINE",
"438 520 LINE",
"502 520 LINE",
"501 336 LINE",
"213 336 LINE",
"214 520 LINE",
"278 520 LINE",
"278 589 LINE",
"38 589 LINE"
);
}
);
width = 714;
},
{
anchors = (
{
name = bottom;
position = "{375, 0}";
},
{
name = center;
position = "{375, 295}";
},
{
name = top;
position = "{375, 589}";
},
{
name = topleft;
position = "{24, 589}";
}
);
background = {
paths = (
{
closed = 1;
nodes = (
"452 0 LINE",
"690 0 LINE",
"690 69 LINE",
"595 69 LINE",
"597 520 LINE",
"692 520 LINE",
"692 589 LINE",
"453 589 LINE",
"453 520 LINE",
"517 520 LINE",
"516 336 LINE",
"228 336 LINE",
"229 520 LINE",
"293 520 LINE",
"293 589 LINE",
"54 589 LINE",
"54 520 LINE",
"149 520 LINE",
"148 69 LINE",
"53 69 LINE",
"53 0 LINE",
"291 0 LINE",
"291 69 LINE",
"227 69 LINE",
"228 267 LINE",
"516 267 LINE",
"516 69 LINE",
"452 69 LINE"
);
}
);
};
layerId = "6E1B38A8-44EA-440A-BD04-FE41D2B0BC62";
paths = (
{
closed = 1;
nodes = (
"45 477 LINE",
"126 477 LINE",
"126 112 LINE",
"45 112 LINE",
"45 0 LINE",
"308 0 LINE",
"308 112 LINE",
"255 112 LINE",
"255 241 LINE",
"494 241 LINE",
"494 112 LINE",
"441 112 LINE",
"441 0 LINE",
"704 0 LINE",
"704 112 LINE",
"623 112 LINE",
"623 477 LINE",
"704 477 LINE",
"704 589 LINE",
"439 589 LINE",
"439 477 LINE",
"494 477 LINE",
"494 353 LINE",
"255 353 LINE",
"255 477 LINE",
"310 477 LINE",
"310 588 LINE",
"309 588 LINE",
"310 589 LINE",
"45 589 LINE"
);
}
);
width = 749;
}
);
leftKerningGroup = I;
rightKerningGroup = I;
unicode = 0048;
},
{
color = 1;
glyphname = I;
layers = (
{
anchors = (
{
name = bottom;
position = "{183, 0}";
},
{
name = ogonek;
position = "{308, 0}";
},
{
name = top;
position = "{173, 589}";
},
{
name = topleft;
position = "{10, 589}";
}
);
layerId = UUID0;
paths = (
{
closed = 1;
nodes = (
"38 520 LINE",
"134 520 LINE",
"134 69 LINE",
"37 69 LINE",
"37 0 LINE",
"308 0 LINE",
"308 69 LINE",
"213 69 LINE",
"215 520 LINE",
"308 520 LINE",
"308 589 LINE",
"38 589 LINE"
);
}
);
width = 345;
},
{
anchors = (
{
name = bottom;
position = "{205, 0}";
},
{
name = ogonek;
position = "{364, 0}";
},
{
name = top;
position = "{205, 589}";
},
{
name = topleft;
position = "{24, 589}";
}
);
background = {
paths = (
{
closed = 1;
nodes = (
"67 520 LINE",
"162 520 LINE",
"162 69 LINE",
"66 69 LINE",
"66 0 LINE",
"337 0 LINE",
"337 69 LINE",
"241 69 LINE",
"243 520 LINE",
"337 520 LINE",
"337 589 LINE",
"67 589 LINE"
);
}
);
};
layerId = "6E1B38A8-44EA-440A-BD04-FE41D2B0BC62";
paths = (
{
closed = 1;
nodes = (
"46 477 LINE",
"141 477 LINE",
"141 112 LINE",
"45 112 LINE",
"45 0 LINE",
"364 0 LINE",
"364 112 LINE",
"269 112 LINE",
"269 477 LINE",
"364 477 LINE",
"364 589 LINE",
"46 589 LINE"
);
}
);
width = 409;
}
);
leftKerningGroup = I;
rightKerningGroup = I;
unicode = 0049;
},
{
glyphname = Iacute;
layers = (
{
background = {
paths = (
{
closed = 1;
nodes = (
"125 674 LINE",
"134 638 LINE",
"386 685 LINE",
"368 758 LINE"
);
}
);
};
components = (
{
name = I;
},
{
name = acutecomb.case;
transform = "{1, 0, 0, 1, 90, 0}";
}
);
layerId = UUID0;
width = 366;
},
{
components = (
{
name = I;
},
{
name = acutecomb.case;
transform = "{1, 0, 0, 1, 122, 0}";
}
);
layerId = "6E1B38A8-44EA-440A-BD04-FE41D2B0BC62";
width = 470;
}
);
leftKerningGroup = I;
rightKerningGroup = I;
unicode = 00CD;
},
{
glyphname = Igrave;
layers = (
{
background = {
paths = (
{
closed = 1;
nodes = (
"233 661 LINE",
"225 625 LINE",
"-27 672 LINE",
"-9 745 LINE"
);
}
);
};
components = (
{
name = I;
},
{
name = gravecomb.case;
transform = "{1, 0, 0, 1, -55, 0}";
}
);
layerId = UUID0;
width = 366;
},
{
components = (
{
name = I;
},
{
name = gravecomb.case;
transform = "{1, 0, 0, 1, -34, 0}";
}
);
layerId = "6E1B38A8-44EA-440A-BD04-FE41D2B0BC62";
width = 470;
}
);
leftKerningGroup = I;
rightKerningGroup = I;
unicode = 00CC;
},
{
color = 1;
glyphname = J;
layers = (
{
anchors = (
{
name = bottom;
position = "{263, 0}";
},
{
name = top;
position = "{353, 589}";
}
);
layerId = UUID0;
paths = (
{
closed = 1;
nodes = (
"398 520 LINE",
"492 520 LINE",
"492 589 LINE",
"186 589 LINE",
"186 520 LINE",
"318 520 LINE",
"317 228 LINE SMOOTH",
"317 111 OFFCURVE",
"271 51 OFFCURVE",
"196 51 CURVE SMOOTH",
"174 51 OFFCURVE",
"148 56 OFFCURVE",
"119 68 CURVE",
"98 157 LINE",
"30 141 LINE",
"55 15 LINE",
"106 -5 OFFCURVE",
"153 -14 OFFCURVE",
"194 -14 CURVE SMOOTH",
"322 -14 OFFCURVE",
"398 76 OFFCURVE",
"398 236 CURVE SMOOTH"
);
}
);
width = 519;
},
{
anchors = (
{
name = bottom;
position = "{296, 0}";
},
{
name = top;
position = "{356, 589}";
}
);
background = {
paths = (
{
closed = 1;
nodes = (
"210 520 LINE",
"323 520 LINE",
"322 248 LINE SMOOTH",
"322 186 OFFCURVE",
"323 141 OFFCURVE",
"312 110 CURVE SMOOTH",
"298 68 OFFCURVE",
"251 52 OFFCURVE",
"216 53 CURVE SMOOTH",
"182 54 OFFCURVE",
"153 69 OFFCURVE",
"154 68 CURVE",
"133 157 LINE",
"64 141 LINE",
"90 25 LINE",
"91 24 OFFCURVE",
"141 -15 OFFCURVE",
"220 -15 CURVE SMOOTH",
"295 -15 OFFCURVE",
"368 19 OFFCURVE",
"389 92 CURVE SMOOTH",
"399 131 OFFCURVE",
"399 181 OFFCURVE",
"401 246 CURVE SMOOTH",
"403 520 LINE",
"497 520 LINE",
"497 589 LINE",
"210 589 LINE"
);
}
);
};
layerId = "6E1B38A8-44EA-440A-BD04-FE41D2B0BC62";
paths = (
{
closed = 1;
nodes = (
"430 477 LINE",
"513 477 LINE",
"513 589 LINE",
"179 589 LINE",
"179 477 LINE",
"301 477 LINE",
"301 217 LINE SMOOTH",
"301 139 OFFCURVE",
"271 85 OFFCURVE",
"212 85 CURVE SMOOTH",
"197 85 OFFCURVE",
"180 89 OFFCURVE",
"162 96 CURVE",
"141 198 LINE",
"31 172 LINE",
"63 26 LINE",
"105 3 OFFCURVE",
"152 -22 OFFCURVE",
"223 -22 CURVE SMOOTH",
"376 -22 OFFCURVE",
"430 78 OFFCURVE",
"430 240 CURVE SMOOTH"
);
}
);
width = 545;
}
);
leftKerningGroup = J;
rightKerningGroup = U;
unicode = 004A;
},
{
color = 1;
glyphname = K;
layers = (
{
anchors = (
{
name = bottom;
position = "{323, 0}";
},
{
name = top;
position = "{323, 589}";
}
);
layerId = UUID0;
paths = (
{
closed = 1;
nodes = (
"37 520 LINE",
"131 520 LINE",
"131 69 LINE",
"37 69 LINE",
"37 0 LINE",
"274 0 LINE",
"274 69 LINE",
"211 69 LINE",
"210 263 LINE",
"315 263 LINE",
"444 69 LINE",
"367 69 LINE",
"367 0 LINE",
"636 0 LINE",
"636 69 LINE",
"536 69 LINE",
"371 315 LINE",
"522 520 LINE",
"613 520 LINE",
"613 589 LINE",
"367 589 LINE",
"367 520 LINE",
"436 520 LINE",
"298 332 LINE",
"210 332 LINE",
"210 520 LINE",
"274 520 LINE",
"274 589 LINE",
"37 589 LINE"
);
}
);
width = 669;
},
{
anchors = (
{
name = bottom;
position = "{338, 0}";
},
{
name = top;
position = "{338, 589}";
}
);
background = {
paths = (
{
closed = 1;
nodes = (
"383 0 LINE",
"652 0 LINE",
"652 69 LINE",
"552 69 LINE",
"387 315 LINE",
"538 520 LINE",
"629 520 LINE",
"629 589 LINE",
"383 589 LINE",
"383 520 LINE",
"452 520 LINE",
"314 332 LINE",
"226 332 LINE",
"226 520 LINE",
"290 520 LINE",
"290 589 LINE",
"53 589 LINE",
"53 520 LINE",
"147 520 LINE",
"147 69 LINE",
"53 69 LINE",
"53 0 LINE",
"290 0 LINE",
"290 69 LINE",
"227 69 LINE",
"226 263 LINE",
"326 263 LINE",
"455 69 LINE",
"383 69 LINE"
);
}
);
};
layerId = "6E1B38A8-44EA-440A-BD04-FE41D2B0BC62";
paths = (
{
closed = 1;
nodes = (
"45 477 LINE",
"126 477 LINE",
"126 112 LINE",
"45 112 LINE",
"45 0 LINE",
"309 0 LINE",
"309 112 LINE",
"254 112 LINE",
"254 238 LINE",
"334 238 LINE",
"428 112 LINE",
"362 112 LINE",
"362 0 LINE",
"667 0 LINE",
"667 112 LINE",
"566 112 LINE",
"415 312 LINE",
"548 477 LINE",
"642 477 LINE",
"642 589 LINE",
"377 589 LINE",
"377 477 LINE",
"418 477 LINE",
"322 346 LINE",
"254 346 LINE",
"254 477 LINE",
"309 477 LINE",
"309 589 LINE",
"45 589 LINE"
);
}
);
width = 705;
}
);
leftKerningGroup = I;
rightKerningGroup = K;
unicode = 004B;
},
{
color = 1;
glyphname = L;
layers = (
{
anchors = (
{
name = bottom;
position = "{266, 0}";
},
{
name = center;
position = "{266, 295}";
},
{
name = top;
position = "{266, 589}";
},
{
name = topright;
position = "{421, 589}";
}
);
layerId = UUID0;
paths = (
{
closed = 1;
nodes = (
"37 520 LINE",
"152 520 LINE",
"151 69 LINE",
"37 69 LINE",
"37 0 LINE",
"471 0 LINE",
"524 153 LINE",
"458 175 LINE",
"419 69 LINE",
"230 69 LINE",
"232 520 LINE",
"345 520 LINE",
"345 589 LINE",
"37 589 LINE"
);
}
);
width = 552;
},
{
anchors = (
{
name = bottom;
position = "{280, 0}";
},
{
name = center;
position = "{280, 295}";
},
{
name = top;
position = "{280, 589}";
},
{
name = topright;
position = "{495, 589}";
}
);
background = {
paths = (
{
closed = 1;
nodes = (
"462 175 LINE",
"423 69 LINE",
"234 69 LINE",
"236 520 LINE",
"350 520 LINE",
"350 589 LINE",
"42 589 LINE",
"42 520 LINE",
"156 520 LINE",
"155 69 LINE",
"42 69 LINE",
"42 0 LINE",
"476 0 LINE",
"528 153 LINE"
);
}
);
};
layerId = "6E1B38A8-44EA-440A-BD04-FE41D2B0BC62";
paths = (
{
closed = 1;
nodes = (
"45 477 LINE",
"134 477 LINE",
"134 112 LINE",
"45 112 LINE",
"45 0 LINE",
"490 0 LINE",
"550 173 LINE",
"444 210 LINE",
"409 112 LINE",
"261 112 LINE",
"261 477 LINE",
"360 477 LINE",
"360 589 LINE",
"45 589 LINE"
);
}
);
width = 578;
}
);
leftKerningGroup = I;
rightKerningGroup = L;
unicode = 004C;
},
{
color = 1;
glyphname = M;
layers = (
{
anchors = (
{
name = bottom;
position = "{423, 0}";
},
{
name = top;
position = "{423, 589}";
}
);
background = {
paths = (
{
closed = 1;
nodes = (
"466 71 LINE",
"588 390 LINE",
"634 520 LINE",
"634 69 LINE",
"570 69 LINE",
"570 0 LINE",
"808 0 LINE",
"808 69 LINE",
"714 69 LINE",
"714 520 LINE",
"808 520 LINE",
"808 589 LINE",
"595 589 LINE",
"429 160 LINE",
"280 541 LINE",
"261 589 LINE",
"40 589 LINE",
"40 520 LINE",
"133 520 LINE",
"132 69 LINE",
"36 69 LINE",
"36 0 LINE",
"270 0 LINE",
"270 69 LINE",
"204 69 LINE",
"207 520 LINE",
"253 392 LINE",
"381 71 LINE"
);
},
{
closed = 1;
nodes = (
"466 71 LINE",
"588 390 LINE",
"634 520 LINE",
"634 69 LINE",
"570 69 LINE",
"570 0 LINE",
"808 0 LINE",
"808 69 LINE",
"714 69 LINE",
"714 520 LINE",
"808 520 LINE",
"808 589 LINE",
"595 589 LINE",
"429 160 LINE",
"261 589 LINE",
"40 589 LINE",
"40 520 LINE",
"133 520 LINE",
"132 69 LINE",
"36 69 LINE",
"36 0 LINE",
"270 0 LINE",
"270 69 LINE",
"204 69 LINE",
"207 520 LINE",
"253 392 LINE",
"381 71 LINE"
);
}
);
};
layerId = UUID0;
paths = (
{
closed = 1;
nodes = (
"40 520 LINE",
"133 520 LINE",
"132 69 LINE",
"36 69 LINE",
"36 0 LINE",
"270 0 LINE",
"270 69 LINE",
"204 69 LINE",
"207 520 LINE",
"253 392 LINE",
"381 71 LINE",
"467 71 LINE",
"589 390 LINE",
"634 520 LINE",
"634 69 LINE",
"570 69 LINE",
"570 0 LINE",
"808 0 LINE",
"808 69 LINE",
"714 69 LINE",
"714 520 LINE",
"808 520 LINE",
"808 589 LINE",
"595 589 LINE",
"429 160 LINE",
"261 589 LINE",
"40 589 LINE"
);
}
);
width = 845;
},
{
anchors = (
{
name = bottom;
position = "{443, 0}";
},
{
name = top;
position = "{443, 589}";
}
);
background = {
paths = (
{
closed = 1;
nodes = (
"482 71 LINE",
"604 390 LINE",
"648 520 LINE",
"648 69 LINE",
"584 69 LINE",
"584 0 LINE",
"823 0 LINE",
"823 69 LINE",
"728 69 LINE",
"728 520 LINE",
"823 520 LINE",
"823 589 LINE",
"610 589 LINE",
"444 160 LINE",
"276 589 LINE",
"54 589 LINE",
"54 520 LINE",
"147 520 LINE",
"146 69 LINE",
"51 69 LINE",
"51 0 LINE",
"284 0 LINE",
"284 69 LINE",
"219 69 LINE",
"221 520 LINE",
"267 392 LINE",
"395 71 LINE"
);
}
);
};
layerId = "6E1B38A8-44EA-440A-BD04-FE41D2B0BC62";
paths = (
{
closed = 1;
nodes = (
"45 477 LINE",
"126 477 LINE",
"126 112 LINE",
"45 112 LINE",
"45 0 LINE",
"312 0 LINE",
"312 112 LINE",
"246 112 LINE",
"246 483 LINE",
"404 71 LINE",
"488 71 LINE",
"627 482 LINE",
"627 112 LINE",
"563 112 LINE",
"563 0 LINE",
"837 0 LINE",
"837 112 LINE",
"756 112 LINE",
"756 477 LINE",
"837 477 LINE",
"837 589 LINE",
"551 589 LINE",
"446 247 LINE",
"325 589 LINE",
"45 589 LINE"
);
}
);
width = 882;
}
);
leftKerningGroup = I;
rightKerningGroup = I;
unicode = 004D;
},
{
color = 1;
glyphname = N;
layers = (
{
anchors = (
{
name = bottom;
position = "{358, 0}";
},
{
name = top;
position = "{358, 589}";
}
);
layerId = UUID0;
paths = (
{
closed = 1;
nodes = (
"38 520 LINE",
"132 520 LINE",
"133 69 LINE",
"37 69 LINE",
"37 0 LINE",
"298 0 LINE",
"298 69 LINE",
"214 69 LINE",
"212 520 LINE",
"496 0 LINE",
"594 0 LINE",
"594 520 LINE",
"691 520 LINE",
"691 589 LINE",
"430 589 LINE",
"430 520 LINE",
"514 520 LINE",
"514 122 LINE",
"259 589 LINE",
"38 589 LINE"
);
}
);
width = 718;
},
{
anchors = (
{
name = bottom;
position = "{383, 0}";
},
{
name = top;
position = "{383, 589}";
}
);
background = {
paths = (
{
closed = 1;
nodes = (
"447 520 LINE",
"531 520 LINE",
"531 122 LINE",
"275 589 LINE",
"55 589 LINE",
"55 520 LINE",
"148 520 LINE",
"149 69 LINE",
"54 69 LINE",
"54 0 LINE",
"314 0 LINE",
"314 69 LINE",
"230 69 LINE",
"228 520 LINE",
"513 0 LINE",
"611 0 LINE",
"611 520 LINE",
"707 520 LINE",
"707 589 LINE",
"447 589 LINE"
);
}
);
};
layerId = "6E1B38A8-44EA-440A-BD04-FE41D2B0BC62";
paths = (
{
closed = 1;
nodes = (
"46 477 LINE",
"128 477 LINE",
"128 112 LINE",
"45 112 LINE",
"45 0 LINE",
"324 0 LINE",
"324 112 LINE",
"240 112 LINE",
"240 478 LINE",
"481 0 LINE",
"629 0 LINE",
"629 477 LINE",
"721 477 LINE",
"721 589 LINE",
"442 589 LINE",
"442 477 LINE",
"516 477 LINE",
"516 182 LINE",
"318 589 LINE",
"46 589 LINE"
);
}
);
width = 753;
}
);
leftKerningGroup = I;
rightKerningGroup = I;
unicode = 004E;
},
{
color = 1;
glyphname = O;
layers = (
{
anchors = (
{
name = bottom;
position = "{318, 0}";
},
{
name = center;
position = "{318, 295}";
},
{
name = ogonek;
position = "{579, 10}";
},
{
name = top;
position = "{318, 589}";
},
{
name = topleft;
position = "{10, 589}";
},
{
name = topright;
position = "{625, 589}";
}
);
layerId = UUID0;
paths = (
{
closed = 1;
nodes = (
"153 604 OFFCURVE",
"44 480 OFFCURVE",
"44 295 CURVE SMOOTH",
"44 109 OFFCURVE",
"154 -15 OFFCURVE",
"318 -15 CURVE SMOOTH",
"482 -15 OFFCURVE",
"592 109 OFFCURVE",
"592 295 CURVE SMOOTH",
"592 480 OFFCURVE",
"482 604 OFFCURVE",
"317 604 CURVE SMOOTH"
);
},
{
closed = 1;
nodes = (
"437 534 OFFCURVE",
"507 446 OFFCURVE",
"507 295 CURVE SMOOTH",
"507 143 OFFCURVE",
"437 55 OFFCURVE",
"318 55 CURVE SMOOTH",
"199 55 OFFCURVE",
"129 143 OFFCURVE",
"129 295 CURVE SMOOTH",
"129 446 OFFCURVE",
"199 534 OFFCURVE",
"318 534 CURVE SMOOTH"
);
}
);
width = 636;
},
{
anchors = (
{
name = bottom;
position = "{342, 0}";
},
{
name = center;
position = "{342, 295}";
},
{
name = ogonek;
position = "{604, 10}";
},
{
name = top;
position = "{342, 589}";
},
{
name = topleft;
position = "{34, 589}";
},
{
name = topright;
position = "{650, 589}";
}
);
background = {
paths = (
{
closed = 1;
nodes = (
"466 536 OFFCURVE",
"528 447 OFFCURVE",
"528 295 CURVE SMOOTH",
"528 143 OFFCURVE",
"466 53 OFFCURVE",
"339 53 CURVE SMOOTH",
"212 53 OFFCURVE",
"150 143 OFFCURVE",
"150 295 CURVE SMOOTH",
"150 447 OFFCURVE",
"212 536 OFFCURVE",
"339 536 CURVE SMOOTH"
);
},
{
closed = 1;
nodes = (
"503 -15 OFFCURVE",
"613 105 OFFCURVE",
"613 295 CURVE SMOOTH",
"613 485 OFFCURVE",
"502 604 OFFCURVE",
"338 604 CURVE SMOOTH",
"176 604 OFFCURVE",
"65 485 OFFCURVE",
"65 295 CURVE SMOOTH",
"65 105 OFFCURVE",
"177 -15 OFFCURVE",
"339 -15 CURVE SMOOTH"
);
}
);
};
layerId = "6E1B38A8-44EA-440A-BD04-FE41D2B0BC62";
paths = (
{
closed = 1;
nodes = (
"167 611 OFFCURVE",
"44 500 OFFCURVE",
"44 295 CURVE SMOOTH",
"44 90 OFFCURVE",
"168 -22 OFFCURVE",
"342 -22 CURVE SMOOTH",
"518 -22 OFFCURVE",
"640 90 OFFCURVE",
"640 295 CURVE SMOOTH",
"640 500 OFFCURVE",
"517 611 OFFCURVE",
"341 611 CURVE SMOOTH"
);
},
{
closed = 1;
nodes = (
"452 503 OFFCURVE",
"507 432 OFFCURVE",
"507 295 CURVE SMOOTH",
"507 158 OFFCURVE",
"451 86 OFFCURVE",
"342 86 CURVE SMOOTH",
"233 86 OFFCURVE",
"178 158 OFFCURVE",
"178 295 CURVE SMOOTH",
"178 432 OFFCURVE",
"233 503 OFFCURVE",
"342 503 CURVE SMOOTH"
);
}
);
width = 684;
},
{
associatedMasterId = "6E1B38A8-44EA-440A-BD04-FE41D2B0BC62";
background = {
paths = (
{
closed = 1;
nodes = (
"452 536 OFFCURVE",
"514 447 OFFCURVE",
"514 295 CURVE SMOOTH",
"514 143 OFFCURVE",
"452 53 OFFCURVE",
"325 53 CURVE SMOOTH",
"198 53 OFFCURVE",
"136 143 OFFCURVE",
"136 295 CURVE SMOOTH",
"136 447 OFFCURVE",
"198 536 OFFCURVE",
"325 536 CURVE SMOOTH"
);
},
{
closed = 1;
nodes = (
"489 -15 OFFCURVE",
"599 105 OFFCURVE",
"599 295 CURVE SMOOTH",
"599 485 OFFCURVE",
"488 604 OFFCURVE",
"324 604 CURVE SMOOTH",
"162 604 OFFCURVE",
"51 485 OFFCURVE",
"51 295 CURVE SMOOTH",
"51 105 OFFCURVE",
"163 -15 OFFCURVE",
"325 -15 CURVE SMOOTH"
);
}
);
};
layerId = "D5949E1A-6FB4-44D8-A50F-F00C365810FF";
name = "Nov 1 16, 12:51";
paths = (
{
closed = 1;
nodes = (
"153 611 OFFCURVE",
"30 500 OFFCURVE",
"30 295 CURVE SMOOTH",
"30 90 OFFCURVE",
"154 -22 OFFCURVE",
"328 -22 CURVE SMOOTH",
"504 -22 OFFCURVE",
"626 90 OFFCURVE",
"626 295 CURVE SMOOTH",
"626 500 OFFCURVE",
"503 611 OFFCURVE",
"327 611 CURVE SMOOTH"
);
},
{
closed = 1;
nodes = (
"438 503 OFFCURVE",
"493 432 OFFCURVE",
"493 295 CURVE SMOOTH",
"493 158 OFFCURVE",
"437 86 OFFCURVE",
"328 86 CURVE SMOOTH",
"219 86 OFFCURVE",
"164 158 OFFCURVE",
"164 295 CURVE SMOOTH",
"164 432 OFFCURVE",
"219 503 OFFCURVE",
"328 503 CURVE SMOOTH"
);
}
);
width = 656;
}
);
leftKerningGroup = O;
rightKerningGroup = O;
unicode = 004F;
},
{
glyphname = Oacute;
layers = (
{
background = {
paths = (
{
closed = 1;
nodes = (
"265 674 LINE",
"273 638 LINE",
"526 685 LINE",
"508 758 LINE"
);
}
);
};
components = (
{
name = O;
},
{
name = acutecomb.case;
transform = "{1, 0, 0, 1, 235, 0}";
}
);
layerId = UUID0;
width = 655;
},
{
components = (
{
name = O;
},
{
name = acutecomb.case;
transform = "{1, 0, 0, 1, 263, 0}";
}
);
layerId = "6E1B38A8-44EA-440A-BD04-FE41D2B0BC62";
width = 752;
}
);
leftKerningGroup = O;
rightKerningGroup = O;
unicode = 00D3;
},
{
glyphname = Ograve;
layers = (
{
background = {
paths = (
{
closed = 1;
nodes = (
"374 678 LINE",
"365 642 LINE",
"113 689 LINE",
"131 762 LINE"
);
}
);
};
components = (
{
name = O;
},
{
name = gravecomb.case;
transform = "{1, 0, 0, 1, 90, 0}";
}
);
layerId = UUID0;
width = 655;
},
{
components = (
{
name = O;
},
{
name = gravecomb.case;
transform = "{1, 0, 0, 1, 107, 0}";
}
);
layerId = "6E1B38A8-44EA-440A-BD04-FE41D2B0BC62";
width = 752;
}
);
leftKerningGroup = O;
rightKerningGroup = O;
unicode = 00D2;
},
{
color = 1;
glyphname = Oslash;
layers = (
{
background = {
paths = (
{
closed = 1;
nodes = (
"540 651 LINE",
"466 651 LINE",
"138 -69 LINE",
"213 -69 LINE"
);
}
);
};
layerId = UUID0;
paths = (
{
closed = 1;
nodes = (
"164 604 OFFCURVE",
"53 485 OFFCURVE",
"53 295 CURVE SMOOTH",
"53 105 OFFCURVE",
"165 -15 OFFCURVE",
"327 -15 CURVE SMOOTH",
"491 -15 OFFCURVE",
"601 105 OFFCURVE",
"601 295 CURVE SMOOTH",
"601 485 OFFCURVE",
"490 604 OFFCURVE",
"326 604 CURVE SMOOTH"
);
},
{
closed = 1;
nodes = (
"454 536 OFFCURVE",
"516 447 OFFCURVE",
"516 295 CURVE SMOOTH",
"516 143 OFFCURVE",
"454 53 OFFCURVE",
"327 53 CURVE SMOOTH",
"200 53 OFFCURVE",
"138 143 OFFCURVE",
"138 295 CURVE SMOOTH",
"138 447 OFFCURVE",
"200 536 OFFCURVE",
"327 536 CURVE SMOOTH"
);
},
{
closed = 1;
nodes = (
"138 -69 LINE",
"212 -69 LINE",
"539 651 LINE",
"466 651 LINE"
);
}
);
width = 654;
},
{
background = {
paths = (
{
closed = 1;
nodes = (
"502 536 OFFCURVE",
"564 447 OFFCURVE",
"564 295 CURVE SMOOTH",
"564 143 OFFCURVE",
"502 53 OFFCURVE",
"375 53 CURVE SMOOTH",
"248 53 OFFCURVE",
"186 143 OFFCURVE",
"186 295 CURVE SMOOTH",
"186 447 OFFCURVE",
"248 536 OFFCURVE",
"375 536 CURVE SMOOTH"
);
},
{
closed = 1;
nodes = (
"539 -15 OFFCURVE",
"649 105 OFFCURVE",
"649 295 CURVE SMOOTH",
"649 485 OFFCURVE",
"538 604 OFFCURVE",
"374 604 CURVE SMOOTH",
"212 604 OFFCURVE",
"101 485 OFFCURVE",
"101 295 CURVE SMOOTH",
"101 105 OFFCURVE",
"213 -15 OFFCURVE",
"375 -15 CURVE SMOOTH"
);
},
{
closed = 1;
nodes = (
"587 651 LINE",
"514 651 LINE",
"186 -69 LINE",
"260 -69 LINE"
);
}
);
};
layerId = "6E1B38A8-44EA-440A-BD04-FE41D2B0BC62";
paths = (
{
closed = 1;
nodes = (
"607 651 LINE",
"502 651 LINE",
"477 597 LINE",
"446 606 OFFCURVE",
"411 611 OFFCURVE",
"375 611 CURVE SMOOTH",
"201 611 OFFCURVE",
"78 500 OFFCURVE",
"78 295 CURVE SMOOTH",
"78 163 OFFCURVE",
"129 70 OFFCURVE",
"212 20 CURVE",
"171 -69 LINE",
"276 -69 LINE",
"301 -14 LINE",
"325 -19 OFFCURVE",
"350 -22 OFFCURVE",
"376 -22 CURVE SMOOTH",
"552 -22 OFFCURVE",
"674 90 OFFCURVE",
"674 295 CURVE SMOOTH",
"674 415 OFFCURVE",
"632 502 OFFCURVE",
"563 554 CURVE"
);
},
{
closed = 1;
nodes = (
"262 129 LINE",
"228 164 OFFCURVE",
"212 219 OFFCURVE",
"212 295 CURVE SMOOTH",
"212 432 OFFCURVE",
"267 503 OFFCURVE",
"376 503 CURVE SMOOTH",
"396 503 OFFCURVE",
"414 500 OFFCURVE",
"430 496 CURVE"
);
},
{
closed = 1;
nodes = (
"508 437 LINE",
"530 402 OFFCURVE",
"541 355 OFFCURVE",
"541 295 CURVE SMOOTH",
"541 158 OFFCURVE",
"485 86 OFFCURVE",
"376 86 CURVE SMOOTH",
"366 86 OFFCURVE",
"357 87 OFFCURVE",
"348 88 CURVE"
);
}
);
width = 752;
}
);
leftKerningGroup = O;
rightKerningGroup = O;
unicode = 00D8;
},
{
color = 1;
glyphname = OE;
layers = (
{
layerId = UUID0;
paths = (
{
closed = 1;
nodes = (
"796 0 LINE",
"849 154 LINE",
"783 176 LINE",
"743 69 LINE",
"510 69 LINE",
"510 270 LINE",
"696 270 LINE",
"696 339 LINE",
"511 339 LINE",
"511 520 LINE",
"723 520 LINE",
"763 413 LINE",
"829 435 LINE",
"776 589 LINE",
"358 589 LINE SMOOTH",
"179 589 OFFCURVE",
"56 527 OFFCURVE",
"56 295 CURVE SMOOTH",
"56 109 OFFCURVE",
"185 0 OFFCURVE",
"351 0 CURVE SMOOTH"
);
},
{
closed = 1;
nodes = (
"430 521 LINE",
"430 69 LINE",
"369 68 LINE SMOOTH",
"219 67 OFFCURVE",
"141 144 OFFCURVE",
"141 295 CURVE SMOOTH",
"141 493 OFFCURVE",
"225 521 OFFCURVE",
"358 521 CURVE SMOOTH"
);
}
);
width = 891;
},
{
background = {
paths = (
{
closed = 1;
nodes = (
"820 176 LINE",
"780 69 LINE",
"548 69 LINE",
"548 270 LINE",
"734 270 LINE",
"734 339 LINE",
"548 339 LINE",
"548 520 LINE",
"760 520 LINE",
"800 413 LINE",
"866 435 LINE",
"814 589 LINE",
"396 589 LINE SMOOTH",
"216 589 OFFCURVE",
"93 527 OFFCURVE",
"93 295 CURVE SMOOTH",
"93 109 OFFCURVE",
"222 0 OFFCURVE",
"388 0 CURVE SMOOTH",
"834 0 LINE",
"886 154 LINE"
);
},
{
closed = 1;
nodes = (
"467 521 LINE",
"467 69 LINE",
"406 68 LINE SMOOTH",
"256 67 OFFCURVE",
"178 144 OFFCURVE",
"178 295 CURVE SMOOTH",
"178 493 OFFCURVE",
"262 521 OFFCURVE",
"396 521 CURVE SMOOTH"
);
}
);
};
layerId = "6E1B38A8-44EA-440A-BD04-FE41D2B0BC62";
paths = (
{
closed = 1;
nodes = (
"860 0 LINE",
"920 173 LINE",
"814 210 LINE",
"779 112 LINE",
"585 112 LINE",
"585 243 LINE",
"749 243 LINE",
"749 353 LINE",
"586 353 LINE",
"586 477 LINE",
"753 477 LINE",
"789 367 LINE",
"895 403 LINE",
"833 589 LINE",
"375 589 LINE SMOOTH",
"195 589 OFFCURVE",
"78 496 OFFCURVE",
"78 301 CURVE SMOOTH",
"78 84 OFFCURVE",
"199 0 OFFCURVE",
"375 0 CURVE SMOOTH"
);
},
{
closed = 1;
nodes = (
"457 477 LINE",
"457 112 LINE",
"378 112 LINE SMOOTH",
"273 112 OFFCURVE",
"212 168 OFFCURVE",
"212 301 CURVE SMOOTH",
"212 432 OFFCURVE",
"271 477 OFFCURVE",
"378 477 CURVE SMOOTH"
);
}
);
width = 984;
}
);
leftKerningGroup = O;
rightKerningGroup = E;
unicode = 0152;
},
{
color = 1;
glyphname = P;
layers = (
{
anchors = (
{
name = bottom;
position = "{182, 0}";
},
{
name = top;
position = "{274, 589}";
}
);
background = {
paths = (
{
closed = 1;
nodes = (
"39 218 LINE",
"210 218 LINE",
"210 288 LINE",
"39 288 LINE"
);
}
);
};
layerId = UUID0;
paths = (
{
closed = 1;
nodes = (
"37 589 LINE",
"37 520 LINE",
"130 520 LINE",
"130 69 LINE",
"37 69 LINE",
"37 0 LINE",
"330 0 LINE",
"330 69 LINE",
"210 69 LINE",
"210 218 LINE",
"302 218 LINE SMOOTH",
"445 218 OFFCURVE",
"522 283 OFFCURVE",
"522 405 CURVE SMOOTH",
"522 525 OFFCURVE",
"445 589 OFFCURVE",
"302 589 CURVE SMOOTH"
);
},
{
closed = 1;
nodes = (
"211 288 LINE",
"211 520 LINE",
"301 520 LINE SMOOTH",
"392 520 OFFCURVE",
"437 482 OFFCURVE",
"437 404 CURVE SMOOTH",
"437 326 OFFCURVE",
"392 288 OFFCURVE",
"301 288 CURVE"
);
}
);
width = 558;
},
{
anchors = (
{
name = bottom;
position = "{197, 0}";
},
{
name = top;
position = "{290, 589}";
}
);
background = {
components = (
{
name = H;
transform = "{1, 0, 0, 1, 4, 0}";
}
);
};
layerId = "6E1B38A8-44EA-440A-BD04-FE41D2B0BC62";
paths = (
{
closed = 1;
nodes = (
"45 589 LINE",
"45 477 LINE",
"125 477 LINE",
"125 112 LINE",
"45 112 LINE",
"45 0 LINE",
"348 0 LINE",
"348 112 LINE",
"254 112 LINE",
"254 193 LINE",
"304 193 LINE SMOOTH",
"463 193 OFFCURVE",
"548 263 OFFCURVE",
"548 394 CURVE SMOOTH",
"548 521 OFFCURVE",
"463 589 OFFCURVE",
"304 589 CURVE SMOOTH"
);
},
{
closed = 1;
nodes = (
"255 292 LINE",
"255 477 LINE",
"303 477 LINE SMOOTH",
"378 477 OFFCURVE",
"415 449 OFFCURVE",
"415 391 CURVE SMOOTH",
"415 325 OFFCURVE",
"378 292 OFFCURVE",
"303 292 CURVE SMOOTH"
);
}
);
width = 585;
}
);
leftKerningGroup = I;
rightKerningGroup = P;
unicode = 0050;
},
{
color = 1;
glyphname = Thorn;
layers = (
{
layerId = UUID0;
paths = (
{
closed = 1;
nodes = (
"341 0 LINE",
"341 69 LINE",
"221 69 LINE",
"221 138 LINE",
"291 138 LINE SMOOTH",
"391 138 OFFCURVE",
"461 196 OFFCURVE",
"461 301 CURVE SMOOTH",
"461 415 OFFCURVE",
"393 449 OFFCURVE",
"270 449 CURVE SMOOTH",
"222 449 LINE",
"222 520 LINE",
"340 520 LINE",
"340 589 LINE",
"48 589 LINE",
"48 520 LINE",
"141 520 LINE",
"141 69 LINE",
"48 69 LINE",
"48 0 LINE"
);
},
{
closed = 1;
nodes = (
"222 380 LINE",
"262 380 LINE",
"311 380 OFFCURVE",
"376 384 OFFCURVE",
"376 301 CURVE SMOOTH",
"376 208 OFFCURVE",
"300 208 OFFCURVE",
"264 208 CURVE SMOOTH",
"222 208 LINE"
);
}
);
width = 498;
},
{
background = {
paths = (
{
closed = 1;
nodes = (
"302 380 LINE",
"351 380 OFFCURVE",
"416 384 OFFCURVE",
"416 301 CURVE SMOOTH",
"416 208 OFFCURVE",
"340 208 OFFCURVE",
"304 208 CURVE SMOOTH",
"262 208 LINE",
"262 380 LINE"
);
},
{
closed = 1;
nodes = (
"88 0 LINE",
"381 0 LINE",
"381 69 LINE",
"261 69 LINE",
"261 138 LINE",
"331 138 LINE SMOOTH",
"431 138 OFFCURVE",
"501 196 OFFCURVE",
"501 301 CURVE SMOOTH",
"501 415 OFFCURVE",
"433 449 OFFCURVE",
"310 449 CURVE SMOOTH",
"262 449 LINE",
"262 520 LINE",
"380 520 LINE",
"380 589 LINE",
"88 589 LINE",
"88 520 LINE",
"181 520 LINE",
"181 69 LINE",
"88 69 LINE"
);
}
);
};
layerId = "6E1B38A8-44EA-440A-BD04-FE41D2B0BC62";
paths = (
{
closed = 1;
nodes = (
"394 0 LINE",
"394 112 LINE",
"285 112 LINE",
"285 169 LINE",
"335 169 LINE SMOOTH",
"511 169 OFFCURVE",
"579 223 OFFCURVE",
"579 350 CURVE SMOOTH",
"579 459 OFFCURVE",
"516 520 OFFCURVE",
"335 520 CURVE SMOOTH",
"285 520 LINE",
"285 589 LINE",
"76 589 LINE",
"76 477 LINE",
"156 477 LINE",
"156 112 LINE",
"76 112 LINE",
"76 0 LINE"
);
},
{
closed = 1;
nodes = (
"286 409 LINE",
"334 409 LINE SMOOTH",
"406 409 OFFCURVE",
"446 399 OFFCURVE",
"446 347 CURVE SMOOTH",
"446 286 OFFCURVE",
"406 278 OFFCURVE",
"334 278 CURVE SMOOTH",
"286 278 LINE"
);
}
);
width = 646;
}
);
leftKerningGroup = I;
rightKerningGroup = P;
unicode = 00DE;
},
{
color = 1;
glyphname = Q;
layers = (
{
anchors = (
{
name = bottom;
position = "{318, 0}";
},
{
name = top;
position = "{318, 589}";
}
);
background = {
paths = (
{
closed = 1;
nodes = (
"445 536 OFFCURVE",
"507 447 OFFCURVE",
"507 295 CURVE SMOOTH",
"507 143 OFFCURVE",
"445 53 OFFCURVE",
"318 53 CURVE SMOOTH",
"191 53 OFFCURVE",
"129 143 OFFCURVE",
"129 295 CURVE SMOOTH",
"129 447 OFFCURVE",
"191 536 OFFCURVE",
"318 536 CURVE SMOOTH"
);
},
{
closed = 1;
nodes = (
"482 -15 OFFCURVE",
"592 105 OFFCURVE",
"592 295 CURVE SMOOTH",
"592 485 OFFCURVE",
"481 604 OFFCURVE",
"317 604 CURVE SMOOTH",
"155 604 OFFCURVE",
"44 485 OFFCURVE",
"44 295 CURVE SMOOTH",
"44 105 OFFCURVE",
"156 -15 OFFCURVE",
"318 -15 CURVE SMOOTH"
);
}
);
};
layerId = UUID0;
paths = (
{
closed = 1;
nodes = (
"593 -79 LINE",
"646 -13 LINE",
"512 66 LINE",
"563 120 OFFCURVE",
"592 198 OFFCURVE",
"592 295 CURVE SMOOTH",
"592 485 OFFCURVE",
"481 604 OFFCURVE",
"317 604 CURVE SMOOTH",
"155 604 OFFCURVE",
"44 485 OFFCURVE",
"44 295 CURVE SMOOTH",
"44 105 OFFCURVE",
"156 -15 OFFCURVE",
"318 -15 CURVE SMOOTH",
"375 -15 OFFCURVE",
"426 0 OFFCURVE",
"468 27 CURVE"
);
},
{
closed = 1;
nodes = (
"445 536 OFFCURVE",
"507 447 OFFCURVE",
"507 295 CURVE SMOOTH",
"507 143 OFFCURVE",
"445 53 OFFCURVE",
"318 53 CURVE SMOOTH",
"191 53 OFFCURVE",
"129 143 OFFCURVE",
"129 295 CURVE SMOOTH",
"129 447 OFFCURVE",
"191 536 OFFCURVE",
"318 536 CURVE SMOOTH"
);
}
);
width = 663;
},
{
anchors = (
{
name = bottom;
position = "{360, 0}";
},
{
name = top;
position = "{360, 589}";
}
);
background = {
paths = (
{
closed = 1;
nodes = (
"395 -15 OFFCURVE",
"446 0 OFFCURVE",
"488 27 CURVE",
"613 -79 LINE",
"666 -13 LINE",
"533 66 LINE",
"583 120 OFFCURVE",
"612 198 OFFCURVE",
"612 295 CURVE SMOOTH",
"612 485 OFFCURVE",
"501 604 OFFCURVE",
"337 604 CURVE SMOOTH",
"175 604 OFFCURVE",
"64 485 OFFCURVE",
"64 295 CURVE SMOOTH",
"64 105 OFFCURVE",
"176 -15 OFFCURVE",
"338 -15 CURVE SMOOTH"
);
},
{
closed = 1;
nodes = (
"465 536 OFFCURVE",
"527 447 OFFCURVE",
"527 295 CURVE SMOOTH",
"527 143 OFFCURVE",
"465 53 OFFCURVE",
"338 53 CURVE SMOOTH",
"211 53 OFFCURVE",
"149 143 OFFCURVE",
"149 295 CURVE SMOOTH",
"149 447 OFFCURVE",
"211 536 OFFCURVE",
"338 536 CURVE SMOOTH"
);
}
);
};
layerId = "6E1B38A8-44EA-440A-BD04-FE41D2B0BC62";
paths = (
{
closed = 1;
nodes = (
"596 -98 LINE",
"677 2 LINE",
"564 68 LINE",
"612 122 OFFCURVE",
"639 198 OFFCURVE",
"639 295 CURVE SMOOTH",
"639 500 OFFCURVE",
"516 611 OFFCURVE",
"340 611 CURVE SMOOTH",
"166 611 OFFCURVE",
"43 500 OFFCURVE",
"43 295 CURVE SMOOTH",
"43 90 OFFCURVE",
"167 -22 OFFCURVE",
"341 -22 CURVE SMOOTH",
"390 -22 OFFCURVE",
"435 -13 OFFCURVE",
"474 4 CURVE"
);
},
{
closed = 1;
nodes = (
"451 503 OFFCURVE",
"506 432 OFFCURVE",
"506 295 CURVE SMOOTH",
"506 158 OFFCURVE",
"450 86 OFFCURVE",
"341 86 CURVE SMOOTH",
"232 86 OFFCURVE",
"177 158 OFFCURVE",
"177 295 CURVE SMOOTH",
"177 432 OFFCURVE",
"232 503 OFFCURVE",
"341 503 CURVE SMOOTH"
);
}
);
width = 704;
}
);
leftKerningGroup = O;
rightKerningGroup = O;
unicode = 0051;
},
{
color = 1;
glyphname = R;
layers = (
{
anchors = (
{
name = bottom;
position = "{302, 0}";
},
{
name = top;
position = "{302, 589}";
}
);
background = {
paths = (
{
closed = 1;
nodes = (
"587 69 LINE",
"496 69 LINE",
"397 241 LINE",
"470 262 OFFCURVE",
"518 319 OFFCURVE",
"518 405 CURVE SMOOTH",
"518 535 OFFCURVE",
"465 589 OFFCURVE",
"302 589 CURVE SMOOTH",
"37 589 LINE",
"37 520 LINE",
"130 520 LINE",
"130 69 LINE",
"37 69 LINE",
"37 0 LINE",
"274 0 LINE",
"274 69 LINE",
"210 69 LINE",
"210 231 LINE",
"312 231 LINE",
"436 5 LINE",
"438 0 LINE",
"587 0 LINE"
);
},
{
closed = 1;
nodes = (
"301 520 LINE",
"384 520 OFFCURVE",
"433 511 OFFCURVE",
"433 404 CURVE SMOOTH",
"433 314 OFFCURVE",
"357 301 OFFCURVE",
"304 301 CURVE SMOOTH",
"212 301 LINE",
"211 520 LINE"
);
},
{
closed = 1;
nodes = (
"587 69 LINE",
"496 69 LINE",
"397 241 LINE",
"470 262 OFFCURVE",
"518 319 OFFCURVE",
"518 405 CURVE SMOOTH",
"518 535 OFFCURVE",
"465 589 OFFCURVE",
"302 589 CURVE SMOOTH",
"37 589 LINE",
"37 520 LINE",
"130 520 LINE",
"130 69 LINE",
"37 69 LINE",
"37 0 LINE",
"274 0 LINE",
"274 69 LINE",
"210 69 LINE",
"210 231 LINE",
"312 231 LINE",
"438 0 LINE",
"587 0 LINE"
);
},
{
closed = 1;
nodes = (
"433 314 OFFCURVE",
"357 301 OFFCURVE",
"304 301 CURVE SMOOTH",
"212 301 LINE",
"211 520 LINE",
"301 520 LINE SMOOTH",
"387 520 OFFCURVE",
"433 509 OFFCURVE",
"433 404 CURVE SMOOTH"
);
}
);
};
layerId = UUID0;
paths = (
{
closed = 1;
nodes = (
"274 0 LINE",
"274 69 LINE",
"211 69 LINE",
"211 230 LINE",
"302 230 LINE SMOOTH",
"463 230 OFFCURVE",
"519 294 OFFCURVE",
"519 411 CURVE SMOOTH",
"519 528 OFFCURVE",
"463 589 OFFCURVE",
"302 589 CURVE SMOOTH",
"37 589 LINE",
"37 520 LINE",
"131 520 LINE",
"131 69 LINE",
"37 69 LINE",
"37 0 LINE"
);
},
{
closed = 1;
nodes = (
"587 0 LINE",
"587 69 LINE",
"496 69 LINE",
"394 245 LINE",
"309 235 LINE",
"438 0 LINE"
);
},
{
closed = 1;
nodes = (
"212 520 LINE",
"302 520 LINE SMOOTH",
"387 520 OFFCURVE",
"434 502 OFFCURVE",
"434 410 CURVE SMOOTH",
"434 317 OFFCURVE",
"387 301 OFFCURVE",
"302 301 CURVE SMOOTH",
"212 301 LINE"
);
}
);
width = 614;
},
{
anchors = (
{
name = bottom;
position = "{310, 0}";
},
{
name = top;
position = "{310, 589}";
}
);
background = {
paths = (
{
closed = 1;
nodes = (
"227 301 LINE",
"227 520 LINE",
"317 520 LINE SMOOTH",
"402 520 OFFCURVE",
"449 502 OFFCURVE",
"449 410 CURVE SMOOTH",
"449 317 OFFCURVE",
"402 301 OFFCURVE",
"317 301 CURVE SMOOTH"
);
},
{
closed = 1;
nodes = (
"318 230 LINE",
"478 230 OFFCURVE",
"534 294 OFFCURVE",
"534 411 CURVE SMOOTH",
"534 528 OFFCURVE",
"478 589 OFFCURVE",
"318 589 CURVE SMOOTH",
"53 589 LINE",
"53 520 LINE",
"146 520 LINE",
"146 69 LINE",
"53 69 LINE",
"53 0 LINE",
"289 0 LINE",
"289 69 LINE",
"226 69 LINE",
"226 230 LINE"
);
},
{
closed = 1;
nodes = (
"324 235 LINE",
"453 0 LINE",
"603 0 LINE",
"603 69 LINE",
"511 69 LINE",
"410 245 LINE"
);
}
);
};
layerId = "6E1B38A8-44EA-440A-BD04-FE41D2B0BC62";
paths = (
{
closed = 1;
nodes = (
"302 0 LINE",
"302 112 LINE",
"254 112 LINE",
"254 192 LINE",
"323 192 LINE",
"427 0 LINE",
"606 0 LINE",
"606 112 LINE",
"502 112 LINE",
"439 213 LINE",
"516 244 OFFCURVE",
"548 306 OFFCURVE",
"548 390 CURVE SMOOTH",
"548 510 OFFCURVE",
"499 589 OFFCURVE",
"309 589 CURVE SMOOTH",
"45 589 LINE",
"45 477 LINE",
"125 477 LINE",
"125 112 LINE",
"45 112 LINE",
"45 0 LINE"
);
},
{
closed = 1;
nodes = (
"255 477 LINE",
"303 477 LINE SMOOTH",
"375 477 OFFCURVE",
"415 458 OFFCURVE",
"415 390 CURVE SMOOTH",
"415 324 OFFCURVE",
"386 303 OFFCURVE",
"303 303 CURVE SMOOTH",
"255 303 LINE"
);
}
);
width = 638;
}
);
leftKerningGroup = I;
rightKerningGroup = R;
unicode = 0052;
},
{
color = 1;
glyphname = S;
layers = (
{
anchors = (
{
name = bottom;
position = "{268, 0}";
},
{
name = top;
position = "{268, 589}";
}
);
background = {
paths = (
{
closed = 1;
nodes = (
"411 81 OFFCURVE",
"343 53 OFFCURVE",
"260 53 CURVE SMOOTH",
"217 53 OFFCURVE",
"162 67 OFFCURVE",
"122 81 CURVE",
"109 152 LINE",
"43 141 LINE",
"62 30 LINE",
"68 28 OFFCURVE",
"165 -15 OFFCURVE",
"273 -15 CURVE SMOOTH",
"401 -15 OFFCURVE",
"491 38 OFFCURVE",
"491 172 CURVE SMOOTH",
"491 248 OFFCURVE",
"458 318 OFFCURVE",
"325 338 CURVE SMOOTH",
"234 352 LINE SMOOTH",
"175 361 OFFCURVE",
"137 391 OFFCURVE",
"137 447 CURVE SMOOTH",
"137 505 OFFCURVE",
"190 537 OFFCURVE",
"269 537 CURVE SMOOTH",
"326 537 OFFCURVE",
"369 526 OFFCURVE",
"396 516 CURVE",
"409 436 LINE",
"475 443 LINE",
"458 565 LINE",
"451 567 OFFCURVE",
"387 604 OFFCURVE",
"268 604 CURVE SMOOTH",
"124 604 OFFCURVE",
"57 529 OFFCURVE",
"57 445 CURVE SMOOTH",
"57 355 OFFCURVE",
"109 281 OFFCURVE",
"234 265 CURVE",
"310 255 LINE SMOOTH",
"398 243 OFFCURVE",
"411 204 OFFCURVE",
"411 161 CURVE SMOOTH"
);
}
);
};
layerId = UUID0;
paths = (
{
closed = 1;
nodes = (
"409 440 LINE",
"475 447 LINE",
"458 571 LINE",
"443 579 OFFCURVE",
"366 604 OFFCURVE",
"268 604 CURVE SMOOTH",
"124 604 OFFCURVE",
"57 535 OFFCURVE",
"57 445 CURVE SMOOTH",
"57 347 OFFCURVE",
"109 285 OFFCURVE",
"234 269 CURVE SMOOTH",
"310 259 LINE SMOOTH",
"398 247 OFFCURVE",
"411 204 OFFCURVE",
"411 161 CURVE SMOOTH",
"411 81 OFFCURVE",
"343 53 OFFCURVE",
"260 53 CURVE SMOOTH",
"201 53 OFFCURVE",
"163 64 OFFCURVE",
"123 77 CURVE",
"109 152 LINE",
"43 146 LINE",
"62 24 LINE",
"108 6 OFFCURVE",
"178 -15 OFFCURVE",
"273 -15 CURVE SMOOTH",
"401 -15 OFFCURVE",
"491 38 OFFCURVE",
"491 172 CURVE SMOOTH",
"491 259 OFFCURVE",
"458 318 OFFCURVE",
"325 338 CURVE SMOOTH",
"234 352 LINE SMOOTH",
"175 361 OFFCURVE",
"137 391 OFFCURVE",
"137 447 CURVE SMOOTH",
"137 505 OFFCURVE",
"190 537 OFFCURVE",
"269 537 CURVE SMOOTH",
"326 537 OFFCURVE",
"369 530 OFFCURVE",
"396 520 CURVE"
);
}
);
width = 536;
},
{
anchors = (
{
name = bottom;
position = "{285, 0}";
},
{
name = top;
position = "{285, 589}";
}
);
background = {
paths = (
{
closed = 1;
nodes = (
"421 81 OFFCURVE",
"353 53 OFFCURVE",
"270 53 CURVE SMOOTH",
"211 53 OFFCURVE",
"174 64 OFFCURVE",
"133 77 CURVE",
"119 152 LINE",
"53 146 LINE",
"72 24 LINE",
"118 6 OFFCURVE",
"188 -15 OFFCURVE",
"283 -15 CURVE SMOOTH",
"411 -15 OFFCURVE",
"501 38 OFFCURVE",
"501 172 CURVE SMOOTH",
"501 259 OFFCURVE",
"468 318 OFFCURVE",
"335 338 CURVE SMOOTH",
"244 352 LINE SMOOTH",
"185 361 OFFCURVE",
"147 391 OFFCURVE",
"147 447 CURVE SMOOTH",
"147 505 OFFCURVE",
"200 537 OFFCURVE",
"279 537 CURVE SMOOTH",
"336 537 OFFCURVE",
"379 530 OFFCURVE",
"406 520 CURVE",
"419 440 LINE",
"485 447 LINE",
"468 571 LINE",
"453 579 OFFCURVE",
"376 604 OFFCURVE",
"278 604 CURVE SMOOTH",
"134 604 OFFCURVE",
"67 535 OFFCURVE",
"67 445 CURVE SMOOTH",
"67 347 OFFCURVE",
"119 285 OFFCURVE",
"244 269 CURVE SMOOTH",
"320 259 LINE SMOOTH",
"408 247 OFFCURVE",
"421 204 OFFCURVE",
"421 161 CURVE SMOOTH"
);
}
);
};
layerId = "6E1B38A8-44EA-440A-BD04-FE41D2B0BC62";
paths = (
{
closed = 1;
nodes = (
"390 405 LINE",
"503 417 LINE",
"483 572 LINE",
"464 583 OFFCURVE",
"385 611 OFFCURVE",
"281 611 CURVE SMOOTH",
"120 611 OFFCURVE",
"55 529 OFFCURVE",
"55 431 CURVE SMOOTH",
"55 333 OFFCURVE",
"112 271 OFFCURVE",
"244 251 CURVE",
"315 236 LINE",
"391 224 OFFCURVE",
"406 203 OFFCURVE",
"406 171 CURVE SMOOTH",
"406 108 OFFCURVE",
"343 86 OFFCURVE",
"273 86 CURVE SMOOTH",
"225 86 OFFCURVE",
"192 96 OFFCURVE",
"159 106 CURVE",
"151 171 LINE",
"45 158 LINE",
"63 16 LINE",
"116 -5 OFFCURVE",
"186 -22 OFFCURVE",
"286 -22 CURVE SMOOTH",
"388 -22 OFFCURVE",
"529 12 OFFCURVE",
"529 177 CURVE SMOOTH",
"529 271 OFFCURVE",
"479 330 OFFCURVE",
"345 350 CURVE SMOOTH",
"276 362 LINE SMOOTH",
"197 376 OFFCURVE",
"175 409 OFFCURVE",
"175 445 CURVE SMOOTH",
"175 491 OFFCURVE",
"229 504 OFFCURVE",
"285 504 CURVE SMOOTH",
"320 504 OFFCURVE",
"354 500 OFFCURVE",
"377 495 CURVE"
);
}
);
width = 570;
}
);
leftKerningGroup = S;
rightKerningGroup = S;
unicode = 0053;
},
{
color = 1;
glyphname = T;
layers = (
{
anchors = (
{
name = bottom;
position = "{294, 0}";
},
{
name = center;
position = "{294, 295}";
},
{
name = top;
position = "{294, 589}";
}
);
layerId = UUID0;
paths = (
{
closed = 1;
nodes = (
"36 425 LINE",
"112 425 LINE",
"112 520 LINE",
"253 520 LINE",
"252 69 LINE",
"157 69 LINE",
"157 0 LINE",
"427 0 LINE",
"427 69 LINE",
"332 69 LINE",
"334 520 LINE",
"475 520 LINE",
"475 425 LINE",
"551 425 LINE",
"551 589 LINE",
"36 589 LINE"
);
}
);
width = 587;
},
{
anchors = (
{
name = bottom;
position = "{311, 0}";
},
{
name = center;
position = "{311, 295}";
},
{
name = top;
position = "{311, 589}";
}
);
background = {
paths = (
{
closed = 1;
nodes = (
"565 425 LINE",
"565 589 LINE",
"50 589 LINE",
"50 425 LINE",
"126 425 LINE",
"126 520 LINE",
"267 520 LINE",
"266 69 LINE",
"171 69 LINE",
"171 0 LINE",
"441 0 LINE",
"441 69 LINE",
"346 69 LINE",
"348 520 LINE",
"489 520 LINE",
"489 425 LINE"
);
}
);
};
layerId = "6E1B38A8-44EA-440A-BD04-FE41D2B0BC62";
paths = (
{
closed = 1;
nodes = (
"41 376 LINE",
"153 376 LINE",
"153 477 LINE",
"245 477 LINE",
"245 112 LINE",
"163 112 LINE",
"163 0 LINE",
"456 0 LINE",
"456 112 LINE",
"375 112 LINE",
"375 477 LINE",
"468 477 LINE",
"468 376 LINE",
"580 376 LINE",
"580 589 LINE",
"41 589 LINE"
);
}
);
width = 621;
}
);
leftKerningGroup = T;
rightKerningGroup = T;
unicode = 0054;
},
{
color = 1;
glyphname = U;
layers = (
{
anchors = (
{
name = bottom;
position = "{334, 0}";
},
{
name = ogonek;
position = "{475, 53}";
},
{
name = top;
position = "{339, 589}";
},
{
name = topright;
position = "{655, 589}";
}
);
layerId = UUID0;
paths = (
{
closed = 1;
nodes = (
"555 520 LINE",
"651 520 LINE",
"651 589 LINE",
"411 589 LINE",
"411 520 LINE",
"475 520 LINE",
"475 198 LINE SMOOTH",
"475 99 OFFCURVE",
"419 53 OFFCURVE",
"334 53 CURVE SMOOTH",
"255 53 OFFCURVE",
"203 95 OFFCURVE",
"203 188 CURVE SMOOTH",
"203 520 LINE",
"267 520 LINE",
"267 589 LINE",
"27 589 LINE",
"27 520 LINE",
"123 520 LINE",
"123 215 LINE SMOOTH",
"123 77 OFFCURVE",
"207 -15 OFFCURVE",
"334 -15 CURVE SMOOTH",
"467 -15 OFFCURVE",
"555 77 OFFCURVE",
"555 215 CURVE SMOOTH"
);
}
);
width = 678;
},
{
anchors = (
{
name = bottom;
position = "{339, 0}";
},
{
name = ogonek;
position = "{512, 27}";
},
{
name = top;
position = "{349, 589}";
},
{
name = topright;
position = "{663, 589}";
}
);
background = {
paths = (
{
closed = 1;
nodes = (
"242 53 OFFCURVE",
"210 113 OFFCURVE",
"210 228 CURVE SMOOTH",
"210 520 LINE",
"274 520 LINE",
"274 589 LINE",
"34 589 LINE",
"34 520 LINE",
"130 520 LINE",
"130 235 LINE SMOOTH",
"130 27 OFFCURVE",
"238 -15 OFFCURVE",
"341 -15 CURVE SMOOTH",
"448 -15 OFFCURVE",
"562 27 OFFCURVE",
"562 235 CURVE SMOOTH",
"562 520 LINE",
"658 520 LINE",
"658 589 LINE",
"418 589 LINE",
"418 520 LINE",
"482 520 LINE",
"482 238 LINE SMOOTH",
"482 123 OFFCURVE",
"448 53 OFFCURVE",
"341 53 CURVE SMOOTH"
);
}
);
};
layerId = "6E1B38A8-44EA-440A-BD04-FE41D2B0BC62";
paths = (
{
closed = 1;
nodes = (
"584 477 LINE",
"666 477 LINE",
"666 589 LINE",
"400 589 LINE",
"400 477 LINE",
"455 477 LINE",
"455 205 LINE SMOOTH",
"455 119 OFFCURVE",
"419 84 OFFCURVE",
"350 84 CURVE SMOOTH",
"279 84 OFFCURVE",
"242 115 OFFCURVE",
"242 195 CURVE SMOOTH",
"242 477 LINE",
"297 477 LINE",
"297 589 LINE",
"32 589 LINE",
"32 477 LINE",
"113 477 LINE",
"113 212 LINE SMOOTH",
"113 58 OFFCURVE",
"194 -22 OFFCURVE",
"350 -22 CURVE SMOOTH",
"504 -22 OFFCURVE",
"584 58 OFFCURVE",
"584 212 CURVE SMOOTH"
);
}
);
width = 698;
}
);
leftKerningGroup = U;
rightKerningGroup = U;
unicode = 0055;
},
{
glyphname = Uacute;
layers = (
{
background = {
paths = (
{
closed = 1;
nodes = (
"299 674 LINE",
"308 638 LINE",
"560 685 LINE",
"542 758 LINE"
);
}
);
};
components = (
{
name = U;
},
{
name = acutecomb.case;
transform = "{1, 0, 0, 1, 244, 0}";
}
);
layerId = UUID0;
width = 673;
},
{
components = (
{
name = U;
},
{
name = acutecomb.case;
transform = "{1, 0, 0, 1, 263, 0}";
}
);
layerId = "6E1B38A8-44EA-440A-BD04-FE41D2B0BC62";
width = 752;
}
);
leftKerningGroup = U;
rightKerningGroup = U;
unicode = 00DA;
},
{
glyphname = Ugrave;
layers = (
{
background = {
paths = (
{
closed = 1;
nodes = (
"350 678 LINE",
"341 642 LINE",
"89 689 LINE",
"107 762 LINE"
);
}
);
};
components = (
{
name = U;
},
{
name = gravecomb.case;
transform = "{1, 0, 0, 1, 99, 0}";
}
);
layerId = UUID0;
width = 673;
},
{
components = (
{
name = U;
},
{
name = gravecomb.case;
transform = "{1, 0, 0, 1, 107, 0}";
}
);
layerId = "6E1B38A8-44EA-440A-BD04-FE41D2B0BC62";
width = 752;
}
);
leftKerningGroup = U;
rightKerningGroup = U;
unicode = 00D9;
},
{
color = 1;
glyphname = V;
layers = (
{
anchors = (
{
name = bottom;
position = "{332, 0}";
},
{
name = top;
position = "{332, 589}";
}
);
background = {
paths = (
{
closed = 1;
nodes = (
"164 334 OFFCURVE",
"182 316 OFFCURVE",
"204 316 CURVE SMOOTH",
"226 316 OFFCURVE",
"244 334 OFFCURVE",
"244 356 CURVE SMOOTH",
"244 378 OFFCURVE",
"226 396 OFFCURVE",
"204 396 CURVE SMOOTH",
"182 396 OFFCURVE",
"164 378 OFFCURVE",
"164 356 CURVE SMOOTH"
);
},
{
closed = 1;
nodes = (
"432 334 OFFCURVE",
"450 316 OFFCURVE",
"472 316 CURVE SMOOTH",
"494 316 OFFCURVE",
"512 334 OFFCURVE",
"512 356 CURVE SMOOTH",
"512 378 OFFCURVE",
"494 396 OFFCURVE",
"472 396 CURVE SMOOTH",
"450 396 OFFCURVE",
"432 378 OFFCURVE",
"432 356 CURVE SMOOTH"
);
},
{
closed = 1;
nodes = (
"4 520 LINE",
"99 520 LINE",
"295 0 LINE",
"380 0 LINE",
"556 520 LINE",
"651 520 LINE",
"651 589 LINE",
"423 589 LINE",
"423 520 LINE",
"487 520 LINE",
"388 238 LINE",
"341 89 LINE",
"288 246 LINE",
"185 520 LINE",
"249 520 LINE",
"249 589 LINE",
"4 589 LINE"
);
}
);
};
layerId = UUID0;
paths = (
{
closed = 1;
nodes = (
"4 520 LINE",
"99 520 LINE",
"295 0 LINE",
"385 0 LINE",
"562 520 LINE",
"656 520 LINE",
"656 589 LINE",
"423 589 LINE",
"423 520 LINE",
"487 520 LINE",
"388 238 LINE",
"341 89 LINE",
"288 246 LINE",
"185 520 LINE",
"249 520 LINE",
"249 589 LINE",
"4 589 LINE"
);
}
);
width = 660;
},
{
anchors = (
{
name = bottom;
position = "{335, 0}";
},
{
name = top;
position = "{335, 589}";
}
);
background = {
paths = (
{
closed = 1;
nodes = (
"7 520 LINE",
"103 520 LINE",
"298 0 LINE",
"389 0 LINE",
"565 520 LINE",
"660 520 LINE",
"660 589 LINE",
"426 589 LINE",
"426 520 LINE",
"491 520 LINE",
"392 238 LINE",
"345 89 LINE",
"292 246 LINE",
"189 520 LINE",
"252 520 LINE",
"252 589 LINE",
"7 589 LINE"
);
}
);
};
layerId = "6E1B38A8-44EA-440A-BD04-FE41D2B0BC62";
paths = (
{
closed = 1;
nodes = (
"7 477 LINE",
"84 477 LINE",
"280 0 LINE",
"412 0 LINE",
"595 477 LINE",
"663 477 LINE",
"663 589 LINE",
"397 589 LINE",
"397 477 LINE",
"455 477 LINE",
"383 257 LINE",
"347 130 LINE",
"312 256 LINE",
"234 477 LINE",
"287 477 LINE",
"287 589 LINE",
"7 589 LINE"
);
}
);
width = 670;
}
);
leftKerningGroup = V;
rightKerningGroup = V;
unicode = 0056;
},
{
color = 1;
glyphname = W;
layers = (
{
anchors = (
{
name = bottom;
position = "{462, 0}";
},
{
name = top;
position = "{462, 589}";
}
);
background = {
paths = (
{
closed = 1;
nodes = (
"4 520 LINE",
"99 520 LINE",
"275 0 LINE",
"358 0 LINE",
"428 264 LINE",
"460 404 LINE",
"492 269 LINE",
"563 0 LINE",
"655 0 LINE",
"819 520 LINE",
"914 520 LINE",
"914 589 LINE",
"685 589 LINE",
"685 520 LINE",
"749 520 LINE",
"656 238 LINE",
"613 92 LINE",
"581 238 LINE",
"511 514 LINE",
"423 514 LINE",
"351 232 LINE",
"320 91 LINE",
"277 237 LINE",
"183 520 LINE",
"247 520 LINE",
"247 589 LINE",
"4 589 LINE"
);
}
);
};
layerId = UUID0;
paths = (
{
closed = 1;
nodes = (
"351 0 LINE",
"421 264 LINE",
"460 404 LINE",
"492 269 LINE",
"563 0 LINE",
"655 0 LINE",
"819 520 LINE",
"914 520 LINE",
"914 589 LINE",
"685 589 LINE",
"685 520 LINE",
"749 520 LINE",
"656 238 LINE",
"613 92 LINE",
"581 238 LINE",
"511 514 LINE",
"423 514 LINE",
"341 232 LINE",
"311 91 LINE",
"267 237 LINE",
"183 520 LINE",
"247 520 LINE",
"247 589 LINE",
"4 589 LINE",
"4 520 LINE",
"99 520 LINE",
"265 0 LINE"
);
}
);
width = 918;
},
{
anchors = (
{
name = bottom;
position = "{471, 0}";
},
{
name = top;
position = "{486, 589}";
}
);
background = {
paths = (
{
closed = 1;
nodes = (
"24 520 LINE",
"119 520 LINE",
"285 0 LINE",
"371 0 LINE",
"441 264 LINE",
"480 404 LINE",
"512 269 LINE",
"583 0 LINE",
"675 0 LINE",
"839 520 LINE",
"934 520 LINE",
"934 589 LINE",
"705 589 LINE",
"705 520 LINE",
"769 520 LINE",
"676 238 LINE",
"633 92 LINE",
"601 238 LINE",
"531 514 LINE",
"443 514 LINE",
"361 232 LINE",
"331 91 LINE",
"287 237 LINE",
"203 520 LINE",
"267 520 LINE",
"267 589 LINE",
"24 589 LINE"
);
}
);
};
layerId = "6E1B38A8-44EA-440A-BD04-FE41D2B0BC62";
paths = (
{
closed = 1;
nodes = (
"7 477 LINE",
"89 477 LINE",
"239 0 LINE",
"389 0 LINE",
"486 389 LINE",
"569 0 LINE",
"719 0 LINE",
"871 477 LINE",
"934 477 LINE",
"934 589 LINE",
"668 589 LINE",
"668 477 LINE",
"730 477 LINE",
"680 257 LINE",
"658 130 LINE",
"635 257 LINE",
"565 515 LINE",
"405 515 LINE",
"336 257 LINE",
"313 130 LINE",
"287 257 LINE",
"236 477 LINE",
"288 477 LINE",
"288 589 LINE",
"7 589 LINE"
);
}
);
width = 941;
}
);
leftKerningGroup = V;
rightKerningGroup = V;
unicode = 0057;
},
{
color = 1;
glyphname = X;
layers = (
{
anchors = (
{
name = bottom;
position = "{333, 0}";
},
{
name = top;
position = "{333, 589}";
}
);
layerId = UUID0;
paths = (
{
closed = 1;
nodes = (
"21 520 LINE",
"106 520 LINE",
"280 301 LINE",
"107 69 LINE",
"22 69 LINE",
"22 0 LINE",
"267 0 LINE",
"267 69 LINE",
"193 69 LINE",
"324 245 LINE",
"465 69 LINE",
"391 69 LINE",
"391 0 LINE",
"652 0 LINE",
"652 69 LINE",
"567 69 LINE",
"380 305 LINE",
"539 520 LINE",
"634 520 LINE",
"634 589 LINE",
"384 589 LINE",
"384 520 LINE",
"453 520 LINE",
"335 361 LINE",
"209 520 LINE",
"273 520 LINE",
"273 589 LINE",
"21 589 LINE"
);
}
);
width = 669;
},
{
anchors = (
{
name = bottom;
position = "{347, 0}";
},
{
name = top;
position = "{357, 589}";
}
);
background = {
paths = (
{
closed = 1;
nodes = (
"44 520 LINE",
"128 520 LINE",
"303 301 LINE",
"130 69 LINE",
"44 69 LINE",
"44 0 LINE",
"290 0 LINE",
"290 69 LINE",
"216 69 LINE",
"347 245 LINE",
"488 69 LINE",
"414 69 LINE",
"414 0 LINE",
"675 0 LINE",
"675 69 LINE",
"590 69 LINE",
"403 305 LINE",
"562 520 LINE",
"657 520 LINE",
"657 589 LINE",
"407 589 LINE",
"407 520 LINE",
"476 520 LINE",
"357 361 LINE",
"231 520 LINE",
"295 520 LINE",
"295 589 LINE",
"44 589 LINE"
);
}
);
};
layerId = "6E1B38A8-44EA-440A-BD04-FE41D2B0BC62";
paths = (
{
closed = 1;
nodes = (
"307 0 LINE",
"307 110 LINE",
"266 110 LINE",
"356 211 LINE",
"441 110 LINE",
"387 110 LINE",
"387 0 LINE",
"687 0 LINE",
"687 110 LINE",
"575 110 LINE",
"428 289 LINE",
"579 477 LINE",
"668 477 LINE",
"668 589 LINE",
"400 589 LINE",
"400 477 LINE",
"450 477 LINE",
"352 366 LINE",
"259 477 LINE",
"314 477 LINE",
"314 589 LINE",
"39 589 LINE",
"39 477 LINE",
"122 477 LINE",
"280 289 LINE",
"133 110 LINE",
"28 110 LINE",
"28 0 LINE"
);
}
);
width = 712;
}
);
leftKerningGroup = X;
rightKerningGroup = X;
unicode = 0058;
},
{
color = 1;
glyphname = Y;
layers = (
{
anchors = (
{
name = bottom;
position = "{348, 0}";
},
{
name = top;
position = "{348, 589}";
},
{
name = topleft;
position = "{36, 589}";
}
);
layerId = UUID0;
paths = (
{
closed = 1;
nodes = (
"27 520 LINE",
"111 520 LINE",
"309 254 LINE",
"308 69 LINE",
"214 69 LINE",
"214 0 LINE",
"481 0 LINE",
"481 69 LINE",
"387 69 LINE",
"389 257 LINE",
"602 520 LINE",
"670 520 LINE",
"670 589 LINE",
"433 589 LINE",
"433 520 LINE",
"508 520 LINE",
"352 324 LINE",
"213 520 LINE",
"266 520 LINE",
"266 589 LINE",
"27 589 LINE"
);
}
);
width = 697;
},
{
anchors = (
{
name = bottom;
position = "{358, 0}";
},
{
name = top;
position = "{358, 589}";
},
{
name = topleft;
position = "{59, 589}";
}
);
background = {
paths = (
{
closed = 1;
nodes = (
"39 520 LINE",
"123 520 LINE",
"322 274 LINE",
"321 69 LINE",
"227 69 LINE",
"227 0 LINE",
"494 0 LINE",
"494 69 LINE",
"400 69 LINE",
"402 277 LINE",
"587 520 LINE",
"683 520 LINE",
"683 589 LINE",
"446 589 LINE",
"446 520 LINE",
"501 520 LINE",
"367 344 LINE",
"226 520 LINE",
"279 520 LINE",
"279 589 LINE",
"39 589 LINE"
);
}
);
};
layerId = "6E1B38A8-44EA-440A-BD04-FE41D2B0BC62";
paths = (
{
closed = 1;
nodes = (
"32 477 LINE",
"108 477 LINE",
"300 231 LINE",
"300 111 LINE",
"205 111 LINE",
"205 0 LINE",
"521 0 LINE",
"521 111 LINE",
"427 111 LINE",
"427 231 LINE",
"612 477 LINE",
"685 477 LINE",
"685 589 LINE",
"419 589 LINE",
"419 477 LINE",
"482 477 LINE",
"367 316 LINE",
"247 477 LINE",
"316 477 LINE",
"316 589 LINE",
"32 589 LINE"
);
}
);
width = 717;
}
);
leftKerningGroup = Y;
rightKerningGroup = Y;
unicode = 0059;
},
{
glyphname = Yacute;
layers = (
{
background = {
paths = (
{
closed = 1;
nodes = (
"295 674 LINE",
"304 638 LINE",
"556 685 LINE",
"538 758 LINE"
);
}
);
};
components = (
{
name = Y;
},
{
name = acutecomb.case;
transform = "{1, 0, 0, 1, 239, 0}";
}
);
layerId = UUID0;
width = 663;
},
{
components = (
{
name = Y;
},
{
name = acutecomb.case;
transform = "{1, 0, 0, 1, 272, 0}";
}
);
layerId = "6E1B38A8-44EA-440A-BD04-FE41D2B0BC62";
width = 771;
}
);
leftKerningGroup = Y;
rightKerningGroup = Y;
unicode = 00DD;
},
{
color = 1;
glyphname = Z;
layers = (
{
anchors = (
{
name = bottom;
position = "{263, 0}";
},
{
name = top;
position = "{263, 589}";
}
);
background = {
paths = (
{
closed = 1;
nodes = (
"97 423 LINE",
"117 520 LINE",
"375 520 LINE",
"41 56 LINE",
"41 0 LINE",
"453 0 LINE",
"505 154 LINE",
"439 176 LINE",
"399 69 LINE",
"138 69 LINE",
"475 537 LINE",
"475 589 LINE",
"61 589 LINE",
"33 432 LINE"
);
},
{
closed = 1;
nodes = (
"115 124 OFFCURVE",
"133 106 OFFCURVE",
"155 106 CURVE SMOOTH",
"177 106 OFFCURVE",
"195 124 OFFCURVE",
"195 146 CURVE SMOOTH",
"195 168 OFFCURVE",
"177 186 OFFCURVE",
"155 186 CURVE SMOOTH",
"133 186 OFFCURVE",
"115 168 OFFCURVE",
"115 146 CURVE SMOOTH"
);
},
{
closed = 1;
nodes = (
"311 396 OFFCURVE",
"328 379 OFFCURVE",
"350 379 CURVE SMOOTH",
"373 379 OFFCURVE",
"390 396 OFFCURVE",
"390 418 CURVE SMOOTH",
"390 441 OFFCURVE",
"373 458 OFFCURVE",
"350 458 CURVE SMOOTH",
"328 458 OFFCURVE",
"311 441 OFFCURVE",
"311 418 CURVE SMOOTH"
);
}
);
};
layerId = UUID0;
paths = (
{
closed = 1;
nodes = (
"43 432 LINE",
"107 423 LINE",
"127 520 LINE",
"375 520 LINE",
"41 56 LINE",
"41 0 LINE",
"448 0 LINE",
"500 154 LINE",
"434 176 LINE",
"394 69 LINE",
"143 69 LINE",
"480 537 LINE",
"480 589 LINE",
"71 589 LINE"
);
}
);
width = 534;
},
{
anchors = (
{
name = bottom;
position = "{296, 0}";
},
{
name = top;
position = "{296, 589}";
}
);
background = {
paths = (
{
closed = 1;
nodes = (
"129 423 LINE",
"149 520 LINE",
"397 520 LINE",
"63 56 LINE",
"63 0 LINE",
"470 0 LINE",
"522 154 LINE",
"456 176 LINE",
"416 69 LINE",
"165 69 LINE",
"502 537 LINE",
"502 589 LINE",
"93 589 LINE",
"65 432 LINE"
);
}
);
};
layerId = "6E1B38A8-44EA-440A-BD04-FE41D2B0BC62";
paths = (
{
closed = 1;
nodes = (
"43 407 LINE",
"155 391 LINE",
"173 477 LINE",
"343 477 LINE",
"50 89 LINE",
"50 0 LINE",
"491 0 LINE",
"549 169 LINE",
"442 205 LINE",
"408 112 LINE",
"221 112 LINE",
"519 509 LINE",
"519 589 LINE",
"74 589 LINE"
);
}
);
width = 582;
}
);
leftKerningGroup = Z;
rightKerningGroup = Z;
unicode = 005A;
},
{
color = 1;
glyphname = a;
layers = (
{
anchors = (
{
name = bottom;
position = "{253, 0}";
},
{
name = ogonek;
position = "{457, 10}";
},
{
name = top;
position = "{233, 429}";
}
);
layerId = UUID0;
paths = (
{
closed = 1;
nodes = (
"484 -17 LINE",
"504 47 LINE",
"409 78 LINE",
"409 252 LINE SMOOTH",
"409 378 OFFCURVE",
"347 444 OFFCURVE",
"227 444 CURVE SMOOTH",
"182 444 OFFCURVE",
"132 434 OFFCURVE",
"82 416 CURVE",
"66 325 LINE",
"130 313 LINE",
"140 368 LINE",
"167 376 OFFCURVE",
"198 380 OFFCURVE",
"230 380 CURVE SMOOTH",
"296 380 OFFCURVE",
"331 337 OFFCURVE",
"331 256 CURVE SMOOTH",
"331 248 LINE",
"202 249 LINE SMOOTH",
"92 249 OFFCURVE",
"35 204 OFFCURVE",
"36 118 CURVE SMOOTH",
"37 31 OFFCURVE",
"96 -15 OFFCURVE",
"208 -15 CURVE SMOOTH",
"258 -15 OFFCURVE",
"306 0 OFFCURVE",
"349 29 CURVE"
);
},
{
closed = 1;
nodes = (
"331 185 LINE",
"331 87 LINE",
"298 62 OFFCURVE",
"257 49 OFFCURVE",
"212 49 CURVE SMOOTH",
"149 49 OFFCURVE",
"116 73 OFFCURVE",
"116 119 CURVE SMOOTH",
"116 163 OFFCURVE",
"147 186 OFFCURVE",
"205 186 CURVE SMOOTH"
);
}
);
width = 525;
},
{
anchors = (
{
name = bottom;
position = "{280, 0}";
},
{
name = ogonek;
position = "{494, 10}";
},
{
name = top;
position = "{254, 454}";
}
);
background = {
paths = (
{
closed = 1;
nodes = (
"146 313 LINE",
"156 368 LINE",
"173 373 OFFCURVE",
"204 380 OFFCURVE",
"246 380 CURVE SMOOTH",
"356 380 OFFCURVE",
"347 306 OFFCURVE",
"347 256 CURVE SMOOTH",
"347 248 LINE",
"218 249 LINE SMOOTH",
"126 249 OFFCURVE",
"51 211 OFFCURVE",
"52 118 CURVE SMOOTH",
"53 42 OFFCURVE",
"116 -15 OFFCURVE",
"224 -15 CURVE SMOOTH",
"283 -15 OFFCURVE",
"331 6 OFFCURVE",
"365 29 CURVE",
"500 -17 LINE",
"520 47 LINE",
"425 78 LINE",
"425 252 LINE SMOOTH",
"425 335 OFFCURVE",
"423 444 OFFCURVE",
"243 444 CURVE SMOOTH",
"160 444 OFFCURVE",
"98 416 OFFCURVE",
"98 416 CURVE",
"82 325 LINE"
);
},
{
closed = 1;
nodes = (
"177 49 OFFCURVE",
"132 71 OFFCURVE",
"132 119 CURVE SMOOTH",
"132 178 OFFCURVE",
"175 186 OFFCURVE",
"220 186 CURVE SMOOTH",
"347 185 LINE",
"347 87 LINE",
"326 71 OFFCURVE",
"287 49 OFFCURVE",
"228 49 CURVE SMOOTH"
);
}
);
};
layerId = "6E1B38A8-44EA-440A-BD04-FE41D2B0BC62";
paths = (
{
closed = 1;
nodes = (
"506 -26 LINE",
"541 78 LINE",
"460 104 LINE",
"460 267 LINE SMOOTH",
"460 403 OFFCURVE",
"386 474 OFFCURVE",
"253 474 CURVE SMOOTH",
"187 474 OFFCURVE",
"130 464 OFFCURVE",
"76 445 CURVE",
"57 333 LINE",
"162 320 LINE",
"171 367 LINE",
"195 375 OFFCURVE",
"218 379 OFFCURVE",
"248 379 CURVE SMOOTH",
"296 379 OFFCURVE",
"333 343 OFFCURVE",
"333 266 CURVE",
"228 266 LINE SMOOTH",
"103 266 OFFCURVE",
"38 217 OFFCURVE",
"38 123 CURVE SMOOTH",
"38 29 OFFCURVE",
"106 -20 OFFCURVE",
"235 -20 CURVE SMOOTH",
"283 -20 OFFCURVE",
"332 -7 OFFCURVE",
"379 17 CURVE"
);
},
{
closed = 1;
nodes = (
"333 187 LINE",
"333 98 LINE",
"304 81 OFFCURVE",
"272 72 OFFCURVE",
"239 72 CURVE SMOOTH",
"192 72 OFFCURVE",
"167 88 OFFCURVE",
"167 125 CURVE SMOOTH",
"167 164 OFFCURVE",
"189 187 OFFCURVE",
"231 187 CURVE SMOOTH"
);
}
);
width = 564;
}
);
leftKerningGroup = a;
rightKerningGroup = a;
unicode = 0061;
},
{
glyphname = aacute;
layers = (
{
background = {
paths = (
{
closed = 1;
nodes = (
"165 512 LINE",
"183 480 LINE",
"417 586 LINE",
"381 652 LINE"
);
}
);
};
components = (
{
name = a;
},
{
name = acutecomb;
transform = "{1, 0, 0, 1, 131, 0}";
}
);
layerId = UUID0;
width = 511;
},
{
components = (
{
name = a;
},
{
name = acutecomb;
transform = "{1, 0, 0, 1, 193, 0}";
}
);
layerId = "6E1B38A8-44EA-440A-BD04-FE41D2B0BC62";
width = 598;
}
);
leftKerningGroup = a;
rightKerningGroup = a;
unicode = 00E1;
},
{
glyphname = agrave;
layers = (
{
background = {
paths = (
{
closed = 1;
nodes = (
"320 512 LINE",
"302 480 LINE",
"69 586 LINE",
"104 652 LINE"
);
}
);
};
components = (
{
name = a;
},
{
name = gravecomb;
transform = "{1, 0, 0, 1, 32, 0}";
}
);
layerId = UUID0;
width = 511;
},
{
components = (
{
name = a;
},
{
name = gravecomb;
transform = "{1, 0, 0, 1, 46, 0}";
}
);
layerId = "6E1B38A8-44EA-440A-BD04-FE41D2B0BC62";
width = 598;
}
);
leftKerningGroup = a;
rightKerningGroup = a;
unicode = 00E0;
},
{
glyphname = aring;
layers = (
{
background = {
paths = (
{
closed = 1;
nodes = (
"158 518 OFFCURVE",
"197 479 OFFCURVE",
"244 479 CURVE SMOOTH",
"292 479 OFFCURVE",
"330 518 OFFCURVE",
"330 565 CURVE SMOOTH",
"330 612 OFFCURVE",
"292 651 OFFCURVE",
"244 651 CURVE SMOOTH",
"197 651 OFFCURVE",
"158 612 OFFCURVE",
"158 565 CURVE SMOOTH"
);
},
{
closed = 1;
nodes = (
"205 586 OFFCURVE",
"223 604 OFFCURVE",
"244 604 CURVE SMOOTH",
"265 604 OFFCURVE",
"283 586 OFFCURVE",
"283 565 CURVE SMOOTH",
"283 544 OFFCURVE",
"265 526 OFFCURVE",
"244 526 CURVE SMOOTH",
"223 526 OFFCURVE",
"205 544 OFFCURVE",
"205 565 CURVE SMOOTH"
);
}
);
};
components = (
{
name = a;
},
{
name = ringcomb;
transform = "{1, 0, 0, 1, 117, 0}";
}
);
layerId = UUID0;
width = 511;
},
{
components = (
{
name = a;
},
{
name = ringcomb;
transform = "{1, 0, 0, 1, 95, 0}";
}
);
layerId = "6E1B38A8-44EA-440A-BD04-FE41D2B0BC62";
width = 598;
}
);
leftKerningGroup = a;
rightKerningGroup = a;
unicode = 00E5;
},
{
color = 1;
glyphname = ae;
layers = (
{
layerId = UUID0;
paths = (
{
closed = 1;
nodes = (
"69 325 LINE",
"133 313 LINE",
"143 368 LINE",
"160 373 OFFCURVE",
"191 380 OFFCURVE",
"233 380 CURVE SMOOTH",
"343 380 OFFCURVE",
"334 306 OFFCURVE",
"334 256 CURVE SMOOTH",
"334 248 LINE",
"205 249 LINE SMOOTH",
"113 249 OFFCURVE",
"38 211 OFFCURVE",
"39 118 CURVE SMOOTH",
"40 42 OFFCURVE",
"104 -15 OFFCURVE",
"211 -15 CURVE SMOOTH",
"269 -15 OFFCURVE",
"355 25 OFFCURVE",
"389 48 CURVE",
"428 7 OFFCURVE",
"483 -15 OFFCURVE",
"549 -15 CURVE SMOOTH",
"670 -15 OFFCURVE",
"738 50 OFFCURVE",
"738 51 CURVE",
"702 98 LINE",
"702 98 OFFCURVE",
"643 49 OFFCURVE",
"550 49 CURVE SMOOTH",
"464 49 OFFCURVE",
"417 101 OFFCURVE",
"412 194 CURVE",
"734 196 LINE",
"754 391 OFFCURVE",
"658 444 OFFCURVE",
"562 444 CURVE SMOOTH",
"484 444 OFFCURVE",
"424 407 OFFCURVE",
"388 348 CURVE",
"367 407 OFFCURVE",
"316 444 OFFCURVE",
"230 444 CURVE SMOOTH",
"166 444 OFFCURVE",
"133 435 OFFCURVE",
"85 416 CURVE"
);
},
{
closed = 1;
nodes = (
"333 185 LINE",
"335 151 OFFCURVE",
"344 121 OFFCURVE",
"357 95 CURVE",
"321 73 OFFCURVE",
"262 49 OFFCURVE",
"215 49 CURVE SMOOTH",
"164 49 OFFCURVE",
"119 71 OFFCURVE",
"119 119 CURVE SMOOTH",
"119 178 OFFCURVE",
"162 186 OFFCURVE",
"208 186 CURVE SMOOTH"
);
},
{
closed = 1;
nodes = (
"413 256 LINE",
"425 334 OFFCURVE",
"480 380 OFFCURVE",
"559 380 CURVE SMOOTH",
"634 380 OFFCURVE",
"665 337 OFFCURVE",
"667 257 CURVE"
);
}
);
width = 788;
},
{
background = {
paths = (
{
closed = 1;
nodes = (
"706 -15 OFFCURVE",
"774 50 OFFCURVE",
"774 51 CURVE",
"738 98 LINE",
"738 98 OFFCURVE",
"679 49 OFFCURVE",
"586 49 CURVE SMOOTH",
"500 49 OFFCURVE",
"453 101 OFFCURVE",
"448 194 CURVE",
"770 196 LINE",
"790 391 OFFCURVE",
"704 444 OFFCURVE",
"597 444 CURVE SMOOTH",
"520 444 OFFCURVE",
"461 407 OFFCURVE",
"422 359 CURVE",
"398 403 OFFCURVE",
"352 444 OFFCURVE",
"266 444 CURVE SMOOTH",
"183 444 OFFCURVE",
"121 416 OFFCURVE",
"121 416 CURVE",
"105 325 LINE",
"169 313 LINE",
"179 368 LINE",
"196 373 OFFCURVE",
"227 380 OFFCURVE",
"269 380 CURVE SMOOTH",
"379 380 OFFCURVE",
"370 306 OFFCURVE",
"370 256 CURVE SMOOTH",
"370 248 LINE",
"241 249 LINE SMOOTH",
"149 249 OFFCURVE",
"74 211 OFFCURVE",
"75 118 CURVE SMOOTH",
"76 42 OFFCURVE",
"139 -15 OFFCURVE",
"247 -15 CURVE SMOOTH",
"305 -15 OFFCURVE",
"391 25 OFFCURVE",
"425 48 CURVE",
"464 7 OFFCURVE",
"519 -15 OFFCURVE",
"585 -15 CURVE SMOOTH"
);
},
{
closed = 1;
nodes = (
"200 49 OFFCURVE",
"155 71 OFFCURVE",
"155 119 CURVE SMOOTH",
"155 178 OFFCURVE",
"198 186 OFFCURVE",
"243 186 CURVE SMOOTH",
"368 185 LINE",
"371 151 OFFCURVE",
"380 121 OFFCURVE",
"393 95 CURVE",
"357 73 OFFCURVE",
"298 49 OFFCURVE",
"251 49 CURVE SMOOTH"
);
},
{
closed = 1;
nodes = (
"670 380 OFFCURVE",
"701 337 OFFCURVE",
"702 257 CURVE",
"449 256 LINE",
"461 334 OFFCURVE",
"516 380 OFFCURVE",
"595 380 CURVE SMOOTH"
);
}
);
};
layerId = "6E1B38A8-44EA-440A-BD04-FE41D2B0BC62";
paths = (
{
closed = 1;
nodes = (
"79 317 LINE",
"186 297 LINE",
"194 345 LINE",
"223 349 OFFCURVE",
"246 351 OFFCURVE",
"266 351 CURVE SMOOTH",
"357 351 OFFCURVE",
"366 314 OFFCURVE",
"366 275 CURVE",
"251 275 LINE SMOOTH",
"145 275 OFFCURVE",
"61 233 OFFCURVE",
"61 123 CURVE SMOOTH",
"61 33 OFFCURVE",
"135 -22 OFFCURVE",
"258 -22 CURVE SMOOTH",
"317 -22 OFFCURVE",
"391 4 OFFCURVE",
"430 32 CURVE",
"439 29 LINE",
"476 -6 OFFCURVE",
"529 -22 OFFCURVE",
"596 -22 CURVE SMOOTH",
"731 -22 OFFCURVE",
"795 50 OFFCURVE",
"797 54 CURVE",
"743 124 LINE",
"715 104 OFFCURVE",
"673 78 OFFCURVE",
"597 78 CURVE SMOOTH",
"535 78 OFFCURVE",
"487 117 OFFCURVE",
"476 185 CURVE",
"783 185 LINE",
"811 319 OFFCURVE",
"736 463 OFFCURVE",
"596 463 CURVE SMOOTH",
"536 463 OFFCURVE",
"474 433 OFFCURVE",
"429 377 CURVE",
"411 427 OFFCURVE",
"355 463 OFFCURVE",
"261 463 CURVE SMOOTH",
"198 463 OFFCURVE",
"147 448 OFFCURVE",
"98 429 CURVE"
);
},
{
closed = 1;
nodes = (
"366 183 LINE",
"367 157 OFFCURVE",
"374 133 OFFCURVE",
"381 111 CURVE",
"361 99 OFFCURVE",
"304 79 OFFCURVE",
"262 79 CURVE SMOOTH",
"224 79 OFFCURVE",
"190 93 OFFCURVE",
"190 125 CURVE SMOOTH",
"190 170 OFFCURVE",
"221 183 OFFCURVE",
"254 183 CURVE SMOOTH"
);
},
{
closed = 1;
nodes = (
"479 277 LINE",
"492 331 OFFCURVE",
"532 360 OFFCURVE",
"587 360 CURVE SMOOTH",
"656 360 OFFCURVE",
"683 323 OFFCURVE",
"683 277 CURVE"
);
}
);
width = 855;
}
);
leftKerningGroup = a;
rightKerningGroup = e;
unicode = 00E6;
},
{
color = 1;
glyphname = b;
layers = (
{
anchors = (
{
name = bottom;
position = "{256, 0}";
},
{
name = top;
position = "{256, 429}";
}
);
layerId = UUID0;
paths = (
{
closed = 1;
nodes = (
"404 -15 OFFCURVE",
"472 61 OFFCURVE",
"472 226 CURVE SMOOTH",
"472 375 OFFCURVE",
"405 444 OFFCURVE",
"259 444 CURVE SMOOTH",
"222 444 OFFCURVE",
"186 434 OFFCURVE",
"143 411 CURVE",
"143 597 LINE",
"-8 649 LINE",
"-29 587 LINE",
"66 554 LINE",
"66 41 LINE",
"116 3 OFFCURVE",
"185 -15 OFFCURVE",
"255 -15 CURVE SMOOTH"
);
},
{
closed = 1;
nodes = (
"208 49 OFFCURVE",
"173 57 OFFCURVE",
"143 74 CURVE",
"143 343 LINE",
"184 368 OFFCURVE",
"220 380 OFFCURVE",
"258 380 CURVE SMOOTH",
"350 380 OFFCURVE",
"392 332 OFFCURVE",
"392 226 CURVE SMOOTH",
"392 105 OFFCURVE",
"349 49 OFFCURVE",
"254 49 CURVE SMOOTH"
);
}
);
width = 516;
},
{
anchors = (
{
name = bottom;
position = "{265, 0}";
},
{
name = top;
position = "{295, 454}";
}
);
background = {
paths = (
{
closed = 1;
nodes = (
"-17 587 LINE",
"79 554 LINE",
"79 41 LINE",
"79 41 OFFCURVE",
"152 -15 OFFCURVE",
"268 -15 CURVE SMOOTH",
"397 -15 OFFCURVE",
"485 83 OFFCURVE",
"485 226 CURVE SMOOTH",
"485 368 OFFCURVE",
"396 444 OFFCURVE",
"272 444 CURVE SMOOTH",
"227 444 OFFCURVE",
"188 428 OFFCURVE",
"156 411 CURVE",
"156 597 LINE",
"4 649 LINE"
);
},
{
closed = 1;
nodes = (
"195 49 OFFCURVE",
"156 74 OFFCURVE",
"156 74 CURVE",
"156 343 LINE",
"156 343 OFFCURVE",
"200 380 OFFCURVE",
"271 380 CURVE SMOOTH",
"361 380 OFFCURVE",
"405 326 OFFCURVE",
"405 226 CURVE SMOOTH",
"405 121 OFFCURVE",
"358 49 OFFCURVE",
"267 49 CURVE SMOOTH"
);
}
);
};
layerId = "6E1B38A8-44EA-440A-BD04-FE41D2B0BC62";
paths = (
{
closed = 1;
nodes = (
"437 -20 OFFCURVE",
"520 65 OFFCURVE",
"520 229 CURVE SMOOTH",
"520 390 OFFCURVE",
"444 474 OFFCURVE",
"297 474 CURVE SMOOTH",
"258 474 OFFCURVE",
"222 464 OFFCURVE",
"191 445 CURVE",
"191 615 LINE",
"1 680 LINE",
"-36 572 LINE",
"65 537 LINE",
"65 36 LINE",
"124 -1 OFFCURVE",
"197 -20 OFFCURVE",
"278 -20 CURVE SMOOTH"
);
},
{
closed = 1;
nodes = (
"244 81 OFFCURVE",
"215 85 OFFCURVE",
"191 94 CURVE",
"191 339 LINE",
"216 360 OFFCURVE",
"252 371 OFFCURVE",
"296 371 CURVE SMOOTH",
"358 371 OFFCURVE",
"391 322 OFFCURVE",
"391 229 CURVE SMOOTH",
"391 132 OFFCURVE",
"352 81 OFFCURVE",
"277 81 CURVE SMOOTH"
);
}
);
width = 561;
}
);
leftKerningGroup = b;
rightKerningGroup = o;
unicode = 0062;
},
{
color = 1;
glyphname = c;
layers = (
{
anchors = (
{
name = bottom;
position = "{259, 0}";
},
{
name = top;
position = "{269, 429}";
}
);
layerId = UUID0;
paths = (
{
closed = 1;
nodes = (
"370 294 LINE",
"434 308 LINE",
"420 416 LINE",
"361 433 OFFCURVE",
"321 446 OFFCURVE",
"268 446 CURVE SMOOTH",
"141 446 OFFCURVE",
"40 364 OFFCURVE",
"40 215 CURVE SMOOTH",
"40 72 OFFCURVE",
"129 -15 OFFCURVE",
"258 -15 CURVE SMOOTH",
"341 -15 OFFCURVE",
"377 6 OFFCURVE",
"427 43 CURVE",
"394 92 LINE",
"353 64 OFFCURVE",
"309 51 OFFCURVE",
"268 51 CURVE SMOOTH",
"187 51 OFFCURVE",
"120 106 OFFCURVE",
"120 215 CURVE SMOOTH",
"120 327 OFFCURVE",
"177 383 OFFCURVE",
"267 383 CURVE SMOOTH",
"302 383 OFFCURVE",
"326 379 OFFCURVE",
"357 369 CURVE"
);
}
);
width = 469;
},
{
anchors = (
{
name = bottom;
position = "{238, 0}";
},
{
name = top;
position = "{288, 454}";
}
);
background = {
paths = (
{
closed = 1;
nodes = (
"431 312 LINE",
"410 420 LINE",
"410 420 OFFCURVE",
"367 444 OFFCURVE",
"274 444 CURVE SMOOTH",
"145 444 OFFCURVE",
"56 358 OFFCURVE",
"56 215 CURVE SMOOTH",
"56 72 OFFCURVE",
"145 -15 OFFCURVE",
"274 -15 CURVE SMOOTH",
"367 -15 OFFCURVE",
"443 42 OFFCURVE",
"443 43 CURVE",
"410 92 LINE",
"410 92 OFFCURVE",
"348 49 OFFCURVE",
"275 49 CURVE SMOOTH",
"182 49 OFFCURVE",
"136 110 OFFCURVE",
"136 215 CURVE SMOOTH",
"136 320 OFFCURVE",
"182 380 OFFCURVE",
"275 380 CURVE SMOOTH",
"322 380 OFFCURVE",
"347 371 OFFCURVE",
"355 367 CURVE",
"368 298 LINE"
);
}
);
};
layerId = "6E1B38A8-44EA-440A-BD04-FE41D2B0BC62";
paths = (
{
closed = 1;
nodes = (
"364 286 LINE",
"471 309 LINE",
"443 446 LINE",
"393 465 OFFCURVE",
"340 475 OFFCURVE",
"288 475 CURVE SMOOTH",
"126 475 OFFCURVE",
"41 388 OFFCURVE",
"41 222 CURVE SMOOTH",
"41 63 OFFCURVE",
"134 -20 OFFCURVE",
"284 -20 CURVE SMOOTH",
"361 -20 OFFCURVE",
"414 9 OFFCURVE",
"477 58 CURVE",
"426 133 LINE",
"379 99 OFFCURVE",
"330 81 OFFCURVE",
"285 81 CURVE SMOOTH",
"219 81 OFFCURVE",
"170 135 OFFCURVE",
"170 222 CURVE SMOOTH",
"170 325 OFFCURVE",
"211 378 OFFCURVE",
"290 378 CURVE SMOOTH",
"307 378 OFFCURVE",
"327 375 OFFCURVE",
"349 369 CURVE"
);
}
);
width = 510;
}
);
leftKerningGroup = o;
rightKerningGroup = c;
unicode = 0063;
},
{
color = 1;
glyphname = d;
layers = (
{
anchors = (
{
name = bottom;
position = "{278, 0}";
},
{
name = center;
position = "{411, 537}";
},
{
name = top;
position = "{409, 589}";
},
{
name = topright;
position = "{529, 429}";
}
);
layerId = UUID0;
paths = (
{
closed = 1;
nodes = (
"542 47 LINE",
"448 79 LINE",
"448 597 LINE",
"296 649 LINE",
"275 587 LINE",
"370 554 LINE",
"370 423 LINE",
"336 436 OFFCURVE",
"295 444 OFFCURVE",
"259 444 CURVE SMOOTH",
"122 444 OFFCURVE",
"41 362 OFFCURVE",
"41 224 CURVE SMOOTH",
"41 74 OFFCURVE",
"122 -15 OFFCURVE",
"259 -15 CURVE SMOOTH",
"302 -15 OFFCURVE",
"350 1 OFFCURVE",
"389 29 CURVE",
"522 -17 LINE"
);
},
{
closed = 1;
nodes = (
"177 49 OFFCURVE",
"121 119 OFFCURVE",
"121 225 CURVE SMOOTH",
"121 318 OFFCURVE",
"177 380 OFFCURVE",
"260 380 CURVE SMOOTH",
"296 380 OFFCURVE",
"340 370 OFFCURVE",
"370 355 CURVE",
"370 86 LINE",
"337 64 OFFCURVE",
"293 49 OFFCURVE",
"260 49 CURVE SMOOTH"
);
}
);
width = 563;
},
{
anchors = (
{
name = bottom;
position = "{288, 0}";
},
{
name = center;
position = "{441, 550}";
},
{
name = top;
position = "{425, 635}";
},
{
name = topright;
position = "{563, 454}";
}
);
background = {
paths = (
{
closed = 1;
nodes = (
"462 79 LINE",
"462 597 LINE",
"310 649 LINE",
"289 587 LINE",
"384 554 LINE",
"384 423 LINE",
"353 435 OFFCURVE",
"317 444 OFFCURVE",
"273 444 CURVE SMOOTH",
"151 444 OFFCURVE",
"55 353 OFFCURVE",
"55 224 CURVE SMOOTH",
"55 81 OFFCURVE",
"144 -15 OFFCURVE",
"273 -15 CURVE SMOOTH",
"326 -15 OFFCURVE",
"370 6 OFFCURVE",
"403 29 CURVE",
"535 -17 LINE",
"555 47 LINE"
);
},
{
closed = 1;
nodes = (
"345 380 OFFCURVE",
"384 355 OFFCURVE",
"384 355 CURVE",
"384 86 LINE",
"363 72 OFFCURVE",
"324 49 OFFCURVE",
"274 49 CURVE SMOOTH",
"181 49 OFFCURVE",
"135 120 OFFCURVE",
"135 225 CURVE SMOOTH",
"135 314 OFFCURVE",
"189 380 OFFCURVE",
"274 380 CURVE SMOOTH"
);
}
);
};
layerId = "6E1B38A8-44EA-440A-BD04-FE41D2B0BC62";
paths = (
{
closed = 1;
nodes = (
"578 83 LINE",
"496 111 LINE",
"496 615 LINE",
"305 680 LINE",
"269 572 LINE",
"369 537 LINE",
"369 459 LINE",
"340 468 OFFCURVE",
"308 474 OFFCURVE",
"283 474 CURVE SMOOTH",
"130 474 OFFCURVE",
"40 383 OFFCURVE",
"40 229 CURVE SMOOTH",
"40 72 OFFCURVE",
"130 -20 OFFCURVE",
"283 -20 CURVE SMOOTH",
"332 -20 OFFCURVE",
"382 -6 OFFCURVE",
"417 17 CURVE",
"543 -26 LINE"
);
},
{
closed = 1;
nodes = (
"215 81 OFFCURVE",
"169 140 OFFCURVE",
"169 229 CURVE SMOOTH",
"169 314 OFFCURVE",
"215 371 OFFCURVE",
"284 371 CURVE SMOOTH",
"313 371 OFFCURVE",
"347 364 OFFCURVE",
"369 353 CURVE",
"369 102 LINE",
"345 89 OFFCURVE",
"311 81 OFFCURVE",
"284 81 CURVE SMOOTH"
);
}
);
width = 601;
}
);
leftKerningGroup = o;
rightKerningGroup = d;
unicode = 0064;
},
{
color = 1;
glyphname = eth;
layers = (
{
background = {
paths = (
{
closed = 1;
nodes = (
"211 480 LINE",
"257 530 LINE",
"300 504 OFFCURVE",
"335 470 OFFCURVE",
"363 423 CURVE",
"327 438 OFFCURVE",
"287 442 OFFCURVE",
"264 442 CURVE SMOOTH",
"135 442 OFFCURVE",
"46 356 OFFCURVE",
"46 213 CURVE SMOOTH",
"46 59 OFFCURVE",
"150 -16 OFFCURVE",
"264 -16 CURVE SMOOTH",
"386 -16 OFFCURVE",
"484 86 OFFCURVE",
"484 262 CURVE",
"480 391 OFFCURVE",
"416 504 OFFCURVE",
"307 574 CURVE",
"304 575 OFFCURVE",
"302 577 OFFCURVE",
"300 578 CURVE",
"335 617 LINE",
"294 657 LINE",
"248 606 LINE",
"213 623 OFFCURVE",
"172 636 OFFCURVE",
"117 652 CURVE",
"104 597 LINE",
"140 585 OFFCURVE",
"174 572 OFFCURVE",
"204 558 CURVE",
"170 520 LINE"
);
},
{
closed = 1;
nodes = (
"312 378 OFFCURVE",
"361 365 OFFCURVE",
"389 345 CURVE",
"397 307 OFFCURVE",
"405 263 OFFCURVE",
"405 216 CURVE SMOOTH",
"405 103 OFFCURVE",
"355 48 OFFCURVE",
"265 48 CURVE SMOOTH",
"173 48 OFFCURVE",
"126 108 OFFCURVE",
"126 213 CURVE SMOOTH",
"126 318 OFFCURVE",
"173 378 OFFCURVE",
"265 378 CURVE SMOOTH"
);
}
);
};
layerId = UUID0;
paths = (
{
closed = 1;
nodes = (
"335 617 LINE",
"294 657 LINE",
"248 606 LINE",
"213 623 OFFCURVE",
"172 636 OFFCURVE",
"117 652 CURVE",
"104 597 LINE",
"140 585 OFFCURVE",
"174 572 OFFCURVE",
"204 558 CURVE",
"170 520 LINE",
"211 480 LINE",
"257 530 LINE",
"300 504 OFFCURVE",
"335 470 OFFCURVE",
"363 423 CURVE",
"327 438 OFFCURVE",
"287 442 OFFCURVE",
"264 442 CURVE SMOOTH",
"135 442 OFFCURVE",
"46 356 OFFCURVE",
"46 213 CURVE SMOOTH",
"46 59 OFFCURVE",
"150 -16 OFFCURVE",
"264 -16 CURVE SMOOTH",
"386 -16 OFFCURVE",
"484 72 OFFCURVE",
"484 262 CURVE",
"480 389 OFFCURVE",
"405 525 OFFCURVE",
"300 578 CURVE"
);
},
{
closed = 1;
nodes = (
"312 378 OFFCURVE",
"361 365 OFFCURVE",
"389 345 CURVE",
"398 313 OFFCURVE",
"405 285 OFFCURVE",
"405 245 CURVE SMOOTH",
"405 120 OFFCURVE",
"355 48 OFFCURVE",
"265 48 CURVE SMOOTH",
"173 48 OFFCURVE",
"126 108 OFFCURVE",
"126 213 CURVE SMOOTH",
"126 318 OFFCURVE",
"173 378 OFFCURVE",
"265 378 CURVE SMOOTH"
);
}
);
width = 542;
},
{
background = {
paths = (
{
closed = 1;
nodes = (
"246 480 LINE",
"292 530 LINE",
"335 504 OFFCURVE",
"370 470 OFFCURVE",
"398 423 CURVE",
"362 438 OFFCURVE",
"322 442 OFFCURVE",
"299 442 CURVE SMOOTH",
"170 442 OFFCURVE",
"81 356 OFFCURVE",
"81 213 CURVE SMOOTH",
"81 59 OFFCURVE",
"185 -16 OFFCURVE",
"299 -16 CURVE SMOOTH",
"421 -16 OFFCURVE",
"519 72 OFFCURVE",
"519 262 CURVE",
"515 391 OFFCURVE",
"451 504 OFFCURVE",
"342 574 CURVE",
"339 575 OFFCURVE",
"337 577 OFFCURVE",
"335 578 CURVE",
"370 617 LINE",
"329 657 LINE",
"283 606 LINE",
"248 623 OFFCURVE",
"207 636 OFFCURVE",
"152 652 CURVE",
"139 597 LINE",
"175 585 OFFCURVE",
"209 572 OFFCURVE",
"239 558 CURVE",
"205 520 LINE"
);
},
{
closed = 1;
nodes = (
"347 378 OFFCURVE",
"396 365 OFFCURVE",
"424 345 CURVE",
"433 313 OFFCURVE",
"440 285 OFFCURVE",
"440 245 CURVE SMOOTH",
"440 120 OFFCURVE",
"390 48 OFFCURVE",
"300 48 CURVE SMOOTH",
"208 48 OFFCURVE",
"161 108 OFFCURVE",
"161 213 CURVE SMOOTH",
"161 318 OFFCURVE",
"208 378 OFFCURVE",
"300 378 CURVE SMOOTH"
);
}
);
};
layerId = "6E1B38A8-44EA-440A-BD04-FE41D2B0BC62";
paths = (
{
closed = 1;
nodes = (
"378 623 LINE",
"313 684 LINE",
"266 632 LINE",
"233 647 OFFCURVE",
"196 658 OFFCURVE",
"147 672 CURVE",
"124 596 LINE",
"153 585 OFFCURVE",
"182 573 OFFCURVE",
"203 563 CURVE",
"175 531 LINE",
"241 472 LINE",
"283 518 LINE",
"324 491 OFFCURVE",
"363 454 OFFCURVE",
"392 406 CURVE",
"374 418 OFFCURVE",
"337 429 OFFCURVE",
"277 429 CURVE SMOOTH",
"178 429 OFFCURVE",
"56 353 OFFCURVE",
"56 222 CURVE SMOOTH",
"56 42 OFFCURVE",
"172 -22 OFFCURVE",
"299 -22 CURVE SMOOTH",
"435 -22 OFFCURVE",
"543 55 OFFCURVE",
"543 263 CURVE SMOOTH",
"543 401 OFFCURVE",
"469 518 OFFCURVE",
"348 589 CURVE"
);
},
{
closed = 1;
nodes = (
"346 342 OFFCURVE",
"385 333 OFFCURVE",
"410 318 CURVE",
"415 296 OFFCURVE",
"417 273 OFFCURVE",
"417 250 CURVE SMOOTH",
"417 161 OFFCURVE",
"381 81 OFFCURVE",
"300 81 CURVE SMOOTH",
"224 81 OFFCURVE",
"185 124 OFFCURVE",
"185 213 CURVE SMOOTH",
"185 295 OFFCURVE",
"229 342 OFFCURVE",
"307 342 CURVE SMOOTH"
);
}
);
width = 609;
}
);
leftKerningGroup = o;
rightKerningGroup = o;
unicode = 00F0;
},
{
color = 1;
glyphname = e;
layers = (
{
anchors = (
{
name = bottom;
position = "{245, 0}";
},
{
name = ogonek;
position = "{446, 51}";
},
{
name = top;
position = "{254, 429}";
}
);
layerId = UUID0;
paths = (
{
closed = 1;
nodes = (
"410 98 LINE",
"368 68 OFFCURVE",
"315 50 OFFCURVE",
"267 50 CURVE SMOOTH",
"191 50 OFFCURVE",
"125 92 OFFCURVE",
"120 195 CURVE",
"449 197 LINE",
"450 210 OFFCURVE",
"451 223 OFFCURVE",
"451 235 CURVE SMOOTH",
"451 362 OFFCURVE",
"378 444 OFFCURVE",
"257 444 CURVE SMOOTH",
"126 444 OFFCURVE",
"39 352 OFFCURVE",
"39 215 CURVE SMOOTH",
"39 70 OFFCURVE",
"149 -15 OFFCURVE",
"270 -15 CURVE SMOOTH",
"330 -15 OFFCURVE",
"393 6 OFFCURVE",
"446 51 CURVE"
);
},
{
closed = 1;
nodes = (
"121 257 LINE",
"132 333 OFFCURVE",
"187 383 OFFCURVE",
"258 383 CURVE SMOOTH",
"327 383 OFFCURVE",
"373 333 OFFCURVE",
"374 258 CURVE"
);
}
);
width = 491;
},
{
anchors = (
{
name = bottom;
position = "{266, 0}";
},
{
name = ogonek;
position = "{485, 56}";
},
{
name = top;
position = "{268, 454}";
}
);
background = {
paths = (
{
closed = 1;
nodes = (
"392 -15 OFFCURVE",
"460 50 OFFCURVE",
"460 51 CURVE",
"424 98 LINE",
"424 98 OFFCURVE",
"365 49 OFFCURVE",
"272 49 CURVE SMOOTH",
"186 49 OFFCURVE",
"139 102 OFFCURVE",
"134 195 CURVE",
"456 197 LINE",
"476 392 OFFCURVE",
"378 444 OFFCURVE",
"271 444 CURVE SMOOTH",
"142 444 OFFCURVE",
"53 358 OFFCURVE",
"53 215 CURVE SMOOTH",
"53 72 OFFCURVE",
"142 -15 OFFCURVE",
"271 -15 CURVE SMOOTH"
);
},
{
closed = 1;
nodes = (
"347 380 OFFCURVE",
"386 338 OFFCURVE",
"387 258 CURVE",
"135 257 LINE",
"147 335 OFFCURVE",
"193 380 OFFCURVE",
"272 380 CURVE SMOOTH"
);
}
);
};
layerId = "6E1B38A8-44EA-440A-BD04-FE41D2B0BC62";
paths = (
{
closed = 1;
nodes = (
"444 132 LINE",
"401 99 OFFCURVE",
"348 76 OFFCURVE",
"292 76 CURVE SMOOTH",
"222 76 OFFCURVE",
"166 112 OFFCURVE",
"159 181 CURVE",
"487 181 LINE",
"491 201 OFFCURVE",
"493 226 OFFCURVE",
"493 243 CURVE SMOOTH",
"493 382 OFFCURVE",
"404 474 OFFCURVE",
"271 474 CURVE SMOOTH",
"131 474 OFFCURVE",
"38 374 OFFCURVE",
"38 225 CURVE SMOOTH",
"38 72 OFFCURVE",
"155 -20 OFFCURVE",
"292 -20 CURVE SMOOTH",
"356 -20 OFFCURVE",
"424 4 OFFCURVE",
"485 56 CURVE"
);
},
{
closed = 1;
nodes = (
"162 265 LINE",
"165 327 OFFCURVE",
"213 376 OFFCURVE",
"275 376 CURVE SMOOTH",
"343 376 OFFCURVE",
"384 327 OFFCURVE",
"384 265 CURVE"
);
}
);
width = 533;
},
{
associatedMasterId = "6E1B38A8-44EA-440A-BD04-FE41D2B0BC62";
background = {
paths = (
{
closed = 1;
nodes = (
"381 -15 OFFCURVE",
"449 50 OFFCURVE",
"449 51 CURVE",
"413 98 LINE",
"413 98 OFFCURVE",
"354 49 OFFCURVE",
"261 49 CURVE SMOOTH",
"175 49 OFFCURVE",
"128 102 OFFCURVE",
"123 195 CURVE",
"445 197 LINE",
"465 392 OFFCURVE",
"367 444 OFFCURVE",
"260 444 CURVE SMOOTH",
"131 444 OFFCURVE",
"42 358 OFFCURVE",
"42 215 CURVE SMOOTH",
"42 72 OFFCURVE",
"131 -15 OFFCURVE",
"260 -15 CURVE SMOOTH"
);
},
{
closed = 1;
nodes = (
"336 380 OFFCURVE",
"375 338 OFFCURVE",
"376 258 CURVE",
"124 257 LINE",
"136 335 OFFCURVE",
"182 380 OFFCURVE",
"261 380 CURVE SMOOTH"
);
}
);
};
layerId = "C1FBB4FE-57FA-43C1-8B61-2A25CF22EE1D";
name = "Nov 1 16, 20:38";
paths = (
{
closed = 1;
nodes = (
"433 114 LINE",
"390 98 OFFCURVE",
"333 85 OFFCURVE",
"271 85 CURVE SMOOTH",
"200 85 OFFCURVE",
"165 117 OFFCURVE",
"160 181 CURVE",
"476 181 LINE",
"480 203 OFFCURVE",
"482 218 OFFCURVE",
"482 243 CURVE SMOOTH",
"482 397 OFFCURVE",
"403 474 OFFCURVE",
"270 474 CURVE SMOOTH",
"126 474 OFFCURVE",
"27 386 OFFCURVE",
"27 225 CURVE SMOOTH",
"27 63 OFFCURVE",
"126 -20 OFFCURVE",
"270 -20 CURVE SMOOTH",
"359 -20 OFFCURVE",
"426 6 OFFCURVE",
"474 34 CURVE"
);
},
{
closed = 1;
nodes = (
"163 275 LINE",
"177 334 OFFCURVE",
"196 368 OFFCURVE",
"271 368 CURVE SMOOTH",
"341 368 OFFCURVE",
"363 329 OFFCURVE",
"363 275 CURVE"
);
}
);
width = 508;
}
);
leftKerningGroup = o;
rightKerningGroup = e;
unicode = 0065;
},
{
glyphname = eacute;
layers = (
{
background = {
paths = (
{
closed = 1;
nodes = (
"135 -15 OFFCURVE",
"46 71 OFFCURVE",
"46 214 CURVE SMOOTH",
"46 357 OFFCURVE",
"135 444 OFFCURVE",
"264 444 CURVE SMOOTH",
"371 444 OFFCURVE",
"469 391 OFFCURVE",
"449 196 CURVE",
"127 194 LINE",
"132 101 OFFCURVE",
"179 49 OFFCURVE",
"265 49 CURVE SMOOTH",
"358 49 OFFCURVE",
"417 98 OFFCURVE",
"417 98 CURVE",
"453 51 LINE",
"453 50 OFFCURVE",
"385 -15 OFFCURVE",
"264 -15 CURVE SMOOTH"
);
},
{
closed = 1;
nodes = (
"186 380 OFFCURVE",
"140 334 OFFCURVE",
"128 256 CURVE",
"381 257 LINE",
"380 337 OFFCURVE",
"340 380 OFFCURVE",
"265 380 CURVE SMOOTH"
);
},
{
closed = 1;
nodes = (
"187 512 LINE",
"205 480 LINE",
"438 586 LINE",
"403 652 LINE"
);
}
);
};
components = (
{
name = e;
},
{
name = acutecomb;
transform = "{1, 0, 0, 1, 156, 0}";
}
);
layerId = UUID0;
width = 504;
},
{
components = (
{
name = e;
},
{
name = acutecomb;
transform = "{1, 0, 0, 1, 174, 0}";
}
);
layerId = "6E1B38A8-44EA-440A-BD04-FE41D2B0BC62";
width = 509;
}
);
leftKerningGroup = o;
rightKerningGroup = e;
unicode = 00E9;
},
{
glyphname = egrave;
layers = (
{
background = {
paths = (
{
closed = 1;
nodes = (
"333 512 LINE",
"315 480 LINE",
"82 586 LINE",
"117 652 LINE"
);
}
);
};
components = (
{
name = e;
},
{
name = gravecomb;
transform = "{1, 0, 0, 1, 57, 0}";
}
);
layerId = UUID0;
width = 504;
},
{
components = (
{
name = e;
},
{
name = gravecomb;
transform = "{1, 0, 0, 1, 27, 0}";
}
);
layerId = "6E1B38A8-44EA-440A-BD04-FE41D2B0BC62";
width = 509;
}
);
leftKerningGroup = o;
rightKerningGroup = e;
unicode = 00E8;
},
{
color = 1;
glyphname = f;
layers = (
{
anchors = (
{
name = bottom;
position = "{172, 0}";
},
{
name = top;
position = "{172, 429}";
}
);
layerId = UUID0;
paths = (
{
closed = 1;
nodes = (
"120 429 LINE",
"36 429 LINE",
"36 367 LINE",
"120 367 LINE",
"120 62 LINE",
"36 62 LINE",
"36 0 LINE",
"288 0 LINE",
"288 62 LINE",
"198 62 LINE",
"198 367 LINE",
"322 367 LINE",
"322 429 LINE",
"198 429 LINE",
"198 473 LINE SMOOTH",
"198 549 OFFCURVE",
"234 594 OFFCURVE",
"294 594 CURVE SMOOTH",
"334 594 OFFCURVE",
"370 582 OFFCURVE",
"393 561 CURVE",
"424 616 LINE",
"394 642 OFFCURVE",
"347 658 OFFCURVE",
"299 658 CURVE SMOOTH",
"186 658 OFFCURVE",
"120 595 OFFCURVE",
"120 489 CURVE SMOOTH"
);
}
);
width = 349;
},
{
anchors = (
{
name = bottom;
position = "{218, 0}";
},
{
name = top;
position = "{218, 454}";
}
);
background = {
paths = (
{
closed = 1;
nodes = (
"57 0 LINE",
"309 0 LINE",
"309 62 LINE",
"219 62 LINE",
"219 367 LINE",
"343 367 LINE",
"343 429 LINE",
"219 429 LINE",
"219 457 LINE SMOOTH",
"219 538 OFFCURVE",
"239 578 OFFCURVE",
"325 578 CURVE SMOOTH",
"387 578 OFFCURVE",
"424 555 OFFCURVE",
"424 555 CURVE",
"454 606 LINE",
"454 606 OFFCURVE",
"407 642 OFFCURVE",
"320 642 CURVE SMOOTH",
"192 642 OFFCURVE",
"141 585 OFFCURVE",
"141 473 CURVE SMOOTH",
"141 429 LINE",
"57 429 LINE",
"57 367 LINE",
"141 367 LINE",
"141 62 LINE",
"57 62 LINE"
);
}
);
};
layerId = "6E1B38A8-44EA-440A-BD04-FE41D2B0BC62";
paths = (
{
closed = 1;
nodes = (
"127 454 LINE",
"43 454 LINE",
"43 353 LINE",
"127 353 LINE",
"127 101 LINE",
"43 101 LINE",
"43 0 LINE",
"344 0 LINE",
"344 101 LINE",
"254 101 LINE",
"254 353 LINE",
"378 353 LINE",
"378 454 LINE",
"254 454 LINE",
"254 492 LINE SMOOTH",
"254 554 OFFCURVE",
"286 579 OFFCURVE",
"338 579 CURVE SMOOTH",
"362 579 OFFCURVE",
"391 570 OFFCURVE",
"423 553 CURVE",
"465 641 LINE",
"430 669 OFFCURVE",
"380 683 OFFCURVE",
"321 683 CURVE SMOOTH",
"194 683 OFFCURVE",
"127 617 OFFCURVE",
"127 490 CURVE SMOOTH"
);
}
);
width = 411;
}
);
leftKerningGroup = f;
rightKerningGroup = f;
unicode = 0066;
},
{
color = 1;
glyphname = g;
layers = (
{
anchors = (
{
name = bottom;
position = "{237, -223}";
},
{
name = top;
position = "{232, 429}";
}
);
background = {
components = (
{
name = o;
transform = "{1, 0, 0, 1, -28, -312}";
}
);
};
layerId = UUID0;
paths = (
{
closed = 1;
nodes = (
"517 403 LINE",
"494 469 LINE",
"352 416 LINE",
"319 435 OFFCURVE",
"280 444 OFFCURVE",
"230 444 CURVE SMOOTH",
"109 444 OFFCURVE",
"33 380 OFFCURVE",
"33 278 CURVE SMOOTH",
"33 178 OFFCURVE",
"107 118 OFFCURVE",
"229 118 CURVE SMOOTH",
"351 118 OFFCURVE",
"429 182 OFFCURVE",
"429 283 CURVE SMOOTH",
"429 320 OFFCURVE",
"419 351 OFFCURVE",
"399 376 CURVE"
);
},
{
closed = 1;
nodes = (
"202 27 LINE",
"202 137 LINE",
"126 162 LINE",
"126 -35 LINE",
"269 -35 LINE SMOOTH",
"336 -35 OFFCURVE",
"373 -54 OFFCURVE",
"373 -96 CURVE SMOOTH",
"373 -138 OFFCURVE",
"322 -157 OFFCURVE",
"237 -157 CURVE SMOOTH",
"178 -157 OFFCURVE",
"99 -141 OFFCURVE",
"51 -116 CURVE",
"23 -175 LINE",
"61 -198 OFFCURVE",
"173 -223 OFFCURVE",
"237 -223 CURVE SMOOTH",
"370 -223 OFFCURVE",
"450 -173 OFFCURVE",
"450 -89 CURVE SMOOTH",
"450 -12 OFFCURVE",
"397 27 OFFCURVE",
"290 27 CURVE SMOOTH"
);
},
{
closed = 1;
nodes = (
"310 380 OFFCURVE",
"350 343 OFFCURVE",
"350 281 CURVE SMOOTH",
"350 223 OFFCURVE",
"304 182 OFFCURVE",
"231 182 CURVE SMOOTH",
"158 182 OFFCURVE",
"112 223 OFFCURVE",
"112 281 CURVE SMOOTH",
"112 343 OFFCURVE",
"152 380 OFFCURVE",
"231 380 CURVE SMOOTH"
);
}
);
width = 535;
},
{
anchors = (
{
name = bottom;
position = "{252, -223}";
},
{
name = top;
position = "{255, 454}";
}
);
background = {
paths = (
{
closed = 1;
nodes = (
"532 403 LINE",
"508 469 LINE",
"367 416 LINE",
"334 435 OFFCURVE",
"295 444 OFFCURVE",
"245 444 CURVE SMOOTH",
"126 444 OFFCURVE",
"47 381 OFFCURVE",
"47 278 CURVE SMOOTH",
"47 211 OFFCURVE",
"84 166 OFFCURVE",
"121 146 CURVE",
"121 -35 LINE",
"284 -35 LINE SMOOTH",
"367 -35 OFFCURVE",
"392 -59 OFFCURVE",
"392 -96 CURVE SMOOTH",
"392 -141 OFFCURVE",
"338 -160 OFFCURVE",
"252 -160 CURVE SMOOTH",
"150 -160 OFFCURVE",
"66 -116 OFFCURVE",
"66 -116 CURVE",
"38 -175 LINE",
"43 -178 OFFCURVE",
"131 -223 OFFCURVE",
"252 -223 CURVE SMOOTH",
"362 -223 OFFCURVE",
"464 -187 OFFCURVE",
"464 -89 CURVE SMOOTH",
"464 -12 OFFCURVE",
"412 27 OFFCURVE",
"305 27 CURVE SMOOTH",
"193 27 LINE",
"193 121 LINE",
"193 121 OFFCURVE",
"214 118 OFFCURVE",
"244 118 CURVE SMOOTH",
"348 118 OFFCURVE",
"443 167 OFFCURVE",
"443 283 CURVE SMOOTH",
"443 320 OFFCURVE",
"433 352 OFFCURVE",
"414 376 CURVE"
);
},
{
closed = 1;
nodes = (
"124 353 OFFCURVE",
"171 388 OFFCURVE",
"246 388 CURVE SMOOTH",
"320 388 OFFCURVE",
"368 353 OFFCURVE",
"368 281 CURVE SMOOTH",
"368 209 OFFCURVE",
"310 174 OFFCURVE",
"246 174 CURVE SMOOTH",
"182 174 OFFCURVE",
"124 209 OFFCURVE",
"124 281 CURVE SMOOTH"
);
}
);
};
layerId = "6E1B38A8-44EA-440A-BD04-FE41D2B0BC62";
paths = (
{
closed = 1;
nodes = (
"237 60 LINE",
"237 114 LINE",
"254 114 LINE SMOOTH",
"371 114 OFFCURVE",
"478 159 OFFCURVE",
"478 289 CURVE SMOOTH",
"478 313 OFFCURVE",
"471 349 OFFCURVE",
"449 373 CURVE",
"572 389 LINE",
"533 501 LINE",
"379 448 LINE",
"342 468 OFFCURVE",
"306 474 OFFCURVE",
"255 474 CURVE SMOOTH",
"121 474 OFFCURVE",
"33 401 OFFCURVE",
"33 283 CURVE SMOOTH",
"33 209 OFFCURVE",
"72 157 OFFCURVE",
"141 132 CURVE",
"141 -46 LINE",
"304 -46 LINE SMOOTH",
"368 -46 OFFCURVE",
"377 -66 OFFCURVE",
"377 -88 CURVE SMOOTH",
"377 -111 OFFCURVE",
"354 -139 OFFCURVE",
"262 -139 CURVE SMOOTH",
"192 -139 OFFCURVE",
"140 -123 OFFCURVE",
"72 -95 CURVE",
"27 -195 LINE",
"62 -214 OFFCURVE",
"136 -248 OFFCURVE",
"262 -248 CURVE SMOOTH",
"385 -248 OFFCURVE",
"499 -205 OFFCURVE",
"499 -89 CURVE SMOOTH",
"499 4 OFFCURVE",
"438 60 OFFCURVE",
"315 60 CURVE SMOOTH"
);
},
{
closed = 1;
nodes = (
"322 380 OFFCURVE",
"361 349 OFFCURVE",
"361 291 CURVE SMOOTH",
"361 240 OFFCURVE",
"322 206 OFFCURVE",
"256 206 CURVE SMOOTH",
"190 206 OFFCURVE",
"151 240 OFFCURVE",
"151 291 CURVE SMOOTH",
"151 349 OFFCURVE",
"190 380 OFFCURVE",
"256 380 CURVE SMOOTH"
);
}
);
width = 594;
}
);
leftKerningGroup = g;
rightKerningGroup = g;
unicode = 0067;
},
{
color = 1;
glyphname = h;
layers = (
{
anchors = (
{
name = bottom;
position = "{299, 0}";
},
{
name = center;
position = "{172, 535}";
},
{
name = top;
position = "{114, 593}";
}
);
layerId = UUID0;
paths = (
{
closed = 1;
nodes = (
"230 0 LINE",
"230 62 LINE",
"185 62 LINE",
"185 346 LINE",
"215 366 OFFCURVE",
"267 380 OFFCURVE",
"311 380 CURVE SMOOTH",
"385 380 OFFCURVE",
"417 344 OFFCURVE",
"417 259 CURVE SMOOTH",
"417 62 LINE",
"372 62 LINE",
"372 0 LINE",
"579 0 LINE",
"579 62 LINE",
"495 62 LINE",
"495 275 LINE SMOOTH",
"495 391 OFFCURVE",
"439 444 OFFCURVE",
"316 444 CURVE SMOOTH",
"274 444 OFFCURVE",
"227 429 OFFCURVE",
"185 402 CURVE",
"185 598 LINE",
"33 650 LINE",
"12 588 LINE",
"107 555 LINE",
"107 62 LINE",
"23 62 LINE",
"23 0 LINE"
);
}
);
width = 602;
},
{
anchors = (
{
name = bottom;
position = "{326, 0}";
},
{
name = center;
position = "{190, 512}";
},
{
name = top;
position = "{128, 624}";
}
);
background = {
paths = (
{
closed = 1;
nodes = (
"31 588 LINE",
"126 555 LINE",
"126 62 LINE",
"42 62 LINE",
"42 0 LINE",
"249 0 LINE",
"249 62 LINE",
"204 62 LINE",
"204 346 LINE",
"204 346 OFFCURVE",
"258 380 OFFCURVE",
"330 380 CURVE SMOOTH",
"416 380 OFFCURVE",
"436 330 OFFCURVE",
"436 259 CURVE SMOOTH",
"436 62 LINE",
"391 62 LINE",
"391 0 LINE",
"598 0 LINE",
"598 62 LINE",
"514 62 LINE",
"514 275 LINE SMOOTH",
"514 387 OFFCURVE",
"463 444 OFFCURVE",
"335 444 CURVE SMOOTH",
"279 444 OFFCURVE",
"232 420 OFFCURVE",
"204 402 CURVE",
"204 598 LINE",
"52 650 LINE"
);
}
);
};
layerId = "6E1B38A8-44EA-440A-BD04-FE41D2B0BC62";
paths = (
{
closed = 1;
nodes = (
"279 0 LINE",
"279 101 LINE",
"239 101 LINE",
"239 343 LINE",
"273 357 OFFCURVE",
"315 367 OFFCURVE",
"341 367 CURVE SMOOTH",
"397 367 OFFCURVE",
"422 337 OFFCURVE",
"422 270 CURVE SMOOTH",
"422 101 LINE",
"382 101 LINE",
"382 0 LINE",
"633 0 LINE",
"633 101 LINE",
"549 101 LINE",
"549 286 LINE SMOOTH",
"549 406 OFFCURVE",
"490 474 OFFCURVE",
"387 474 CURVE SMOOTH",
"332 474 OFFCURVE",
"278 461 OFFCURVE",
"238 438 CURVE",
"238 615 LINE",
"49 679 LINE",
"16 577 LINE",
"111 545 LINE",
"111 101 LINE",
"28 101 LINE",
"28 0 LINE"
);
}
);
width = 661;
}
);
leftKerningGroup = h;
rightKerningGroup = n;
unicode = 0068;
},
{
glyphname = i;
layers = (
{
background = {
paths = (
{
closed = 1;
nodes = (
"46 367 LINE",
"129 367 LINE",
"129 62 LINE",
"46 62 LINE",
"46 0 LINE",
"291 0 LINE",
"291 62 LINE",
"208 62 LINE",
"208 429 LINE",
"46 429 LINE"
);
},
{
closed = 1;
nodes = (
"223 621 OFFCURVE",
"194 650 OFFCURVE",
"161 650 CURVE SMOOTH",
"127 650 OFFCURVE",
"100 621 OFFCURVE",
"100 588 CURVE SMOOTH",
"100 554 OFFCURVE",
"127 526 OFFCURVE",
"161 526 CURVE SMOOTH",
"194 526 OFFCURVE",
"223 554 OFFCURVE",
"223 588 CURVE SMOOTH"
);
}
);
};
components = (
{
name = idotless;
},
{
name = dotaccentcomb;
transform = "{1, 0, 0, 1, 37, 0}";
}
);
layerId = UUID0;
width = 304;
},
{
background = {
paths = (
{
closed = 1;
nodes = (
"26 367 LINE",
"109 367 LINE",
"109 62 LINE",
"26 62 LINE",
"26 0 LINE",
"271 0 LINE",
"271 62 LINE",
"188 62 LINE",
"188 429 LINE",
"26 429 LINE"
);
},
{
closed = 1;
nodes = (
"203 613 OFFCURVE",
"174 642 OFFCURVE",
"141 642 CURVE SMOOTH",
"107 642 OFFCURVE",
"80 613 OFFCURVE",
"80 580 CURVE SMOOTH",
"80 546 OFFCURVE",
"107 518 OFFCURVE",
"141 518 CURVE SMOOTH",
"174 518 OFFCURVE",
"203 546 OFFCURVE",
"203 580 CURVE SMOOTH"
);
}
);
};
components = (
{
name = idotless;
},
{
name = dotaccentcomb;
transform = "{1, 0, 0, 1, 19, 0}";
}
);
layerId = "6E1B38A8-44EA-440A-BD04-FE41D2B0BC62";
width = 364;
}
);
leftKerningGroup = i;
rightKerningGroup = i;
unicode = 0069;
},
{
color = 1;
glyphname = idotless;
layers = (
{
anchors = (
{
name = bottom;
position = "{159, 0}";
},
{
name = ogonek;
position = "{296, 10}";
},
{
name = top;
position = "{149, 429}";
}
);
layerId = UUID0;
paths = (
{
closed = 1;
nodes = (
"36 367 LINE",
"119 367 LINE",
"119 62 LINE",
"36 62 LINE",
"36 0 LINE",
"281 0 LINE",
"281 62 LINE",
"198 62 LINE",
"198 429 LINE",
"36 429 LINE"
);
}
);
width = 304;
},
{
anchors = (
{
name = bottom;
position = "{190, 0}";
},
{
name = ogonek;
position = "{347, 10}";
},
{
name = top;
position = "{180, 454}";
}
);
layerId = "6E1B38A8-44EA-440A-BD04-FE41D2B0BC62";
paths = (
{
closed = 1;
nodes = (
"43 353 LINE",
"126 353 LINE",
"126 101 LINE",
"43 101 LINE",
"43 0 LINE",
"336 0 LINE",
"336 101 LINE",
"253 101 LINE",
"253 454 LINE",
"43 454 LINE"
);
}
);
width = 364;
}
);
leftKerningGroup = idotless;
rightKerningGroup = idotless;
unicode = 0131;
},
{
glyphname = iacute;
layers = (
{
background = {
paths = (
{
closed = 1;
nodes = (
"46 367 LINE",
"129 367 LINE",
"129 62 LINE",
"46 62 LINE",
"46 0 LINE",
"291 0 LINE",
"291 62 LINE",
"208 62 LINE",
"208 429 LINE",
"46 429 LINE"
);
},
{
closed = 1;
nodes = (
"81 512 LINE",
"98 480 LINE",
"332 586 LINE",
"296 652 LINE"
);
}
);
};
components = (
{
name = idotless;
},
{
name = acutecomb;
transform = "{1, 0, 0, 1, 51, 0}";
}
);
layerId = UUID0;
width = 320;
},
{
components = (
{
name = idotless;
},
{
name = acutecomb;
transform = "{1, 0, 0, 1, 115, 0}";
}
);
layerId = "6E1B38A8-44EA-440A-BD04-FE41D2B0BC62";
width = 395;
}
);
leftKerningGroup = i;
rightKerningGroup = i;
unicode = 00ED;
},
{
glyphname = igrave;
layers = (
{
background = {
paths = (
{
closed = 1;
nodes = (
"46 367 LINE",
"129 367 LINE",
"129 62 LINE",
"46 62 LINE",
"46 0 LINE",
"291 0 LINE",
"291 62 LINE",
"208 62 LINE",
"208 429 LINE",
"46 429 LINE"
);
},
{
closed = 1;
nodes = (
"228 512 LINE",
"209 480 LINE",
"-23 586 LINE",
"11 652 LINE"
);
}
);
};
components = (
{
name = idotless;
},
{
name = gravecomb;
transform = "{1, 0, 0, 1, -48, 0}";
}
);
layerId = UUID0;
width = 320;
},
{
components = (
{
name = idotless;
},
{
name = gravecomb;
transform = "{1, 0, 0, 1, -32, 0}";
}
);
layerId = "6E1B38A8-44EA-440A-BD04-FE41D2B0BC62";
width = 395;
}
);
leftKerningGroup = i;
rightKerningGroup = i;
unicode = 00EC;
},
{
glyphname = j;
layers = (
{
background = {
paths = (
{
closed = 1;
nodes = (
"204 621 OFFCURVE",
"175 650 OFFCURVE",
"142 650 CURVE SMOOTH",
"108 650 OFFCURVE",
"80 621 OFFCURVE",
"80 588 CURVE SMOOTH",
"80 554 OFFCURVE",
"108 526 OFFCURVE",
"142 526 CURVE SMOOTH",
"175 526 OFFCURVE",
"204 554 OFFCURVE",
"204 588 CURVE SMOOTH"
);
}
);
};
components = (
{
name = jdotless;
},
{
name = dotaccentcomb;
transform = "{1, 0, 0, 1, 25, 0}";
}
);
layerId = UUID0;
width = 254;
},
{
background = {
paths = (
{
closed = 1;
nodes = (
"51 367 LINE",
"135 367 LINE",
"135 -37 LINE SMOOTH",
"135 -87 OFFCURVE",
"142 -160 OFFCURVE",
"34 -160 CURVE SMOOTH",
"18 -160 OFFCURVE",
"5 -159 OFFCURVE",
"-8 -158 CURVE",
"-18 -219 LINE",
"-6 -220 OFFCURVE",
"18 -223 OFFCURVE",
"31 -223 CURVE SMOOTH",
"211 -223 OFFCURVE",
"213 -114 OFFCURVE",
"213 -31 CURVE SMOOTH",
"213 429 LINE",
"51 429 LINE"
);
},
{
closed = 1;
nodes = (
"230 613 OFFCURVE",
"201 642 OFFCURVE",
"168 642 CURVE SMOOTH",
"134 642 OFFCURVE",
"106 613 OFFCURVE",
"106 580 CURVE SMOOTH",
"106 546 OFFCURVE",
"134 518 OFFCURVE",
"168 518 CURVE SMOOTH",
"201 518 OFFCURVE",
"230 546 OFFCURVE",
"230 580 CURVE SMOOTH"
);
}
);
};
components = (
{
name = jdotless;
},
{
name = dotaccentcomb;
transform = "{1, 0, 0, 1, 7, 0}";
}
);
layerId = "6E1B38A8-44EA-440A-BD04-FE41D2B0BC62";
width = 305;
}
);
leftKerningGroup = jdotless;
rightKerningGroup = jdotless;
unicode = 006A;
},
{
color = 1;
glyphname = jdotless;
layers = (
{
anchors = (
{
name = bottom;
position = "{117, 0}";
},
{
name = top;
position = "{137, 429}";
}
);
layerId = UUID0;
paths = (
{
closed = 1;
nodes = (
"185 429 LINE",
"23 429 LINE",
"23 367 LINE",
"107 367 LINE",
"107 -37 LINE SMOOTH",
"107 -87 OFFCURVE",
"114 -160 OFFCURVE",
"6 -160 CURVE SMOOTH",
"-10 -160 OFFCURVE",
"-23 -159 OFFCURVE",
"-36 -158 CURVE",
"-46 -219 LINE",
"-34 -220 OFFCURVE",
"-10 -223 OFFCURVE",
"3 -223 CURVE SMOOTH",
"183 -223 OFFCURVE",
"185 -114 OFFCURVE",
"185 -31 CURVE SMOOTH"
);
}
);
width = 254;
},
{
anchors = (
{
name = bottom;
position = "{118, 0}";
},
{
name = top;
position = "{168, 454}";
}
);
layerId = "6E1B38A8-44EA-440A-BD04-FE41D2B0BC62";
paths = (
{
closed = 1;
nodes = (
"239 454 LINE",
"28 454 LINE",
"28 353 LINE",
"112 353 LINE",
"112 -51 LINE SMOOTH",
"112 -94 OFFCURVE",
"110 -141 OFFCURVE",
"35 -141 CURVE SMOOTH",
"21 -141 OFFCURVE",
"-8 -139 OFFCURVE",
"-25 -136 CURVE",
"-38 -236 LINE",
"-17 -240 OFFCURVE",
"13 -248 OFFCURVE",
"47 -248 CURVE SMOOTH",
"239 -248 OFFCURVE",
"239 -130 OFFCURVE",
"239 -36 CURVE SMOOTH"
);
}
);
width = 305;
}
);
leftKerningGroup = jdotless;
rightKerningGroup = jdotless;
unicode = 0237;
},
{
color = 1;
glyphname = k;
layers = (
{
anchors = (
{
name = bottom;
position = "{308, 0}";
},
{
name = top;
position = "{114, 589}";
}
);
layerId = UUID0;
paths = (
{
closed = 1;
nodes = (
"12 589 LINE",
"107 556 LINE",
"107 62 LINE",
"23 62 LINE",
"23 0 LINE",
"230 0 LINE",
"230 62 LINE",
"185 62 LINE",
"185 187 LINE",
"273 187 LINE",
"386 0 LINE",
"519 0 LINE",
"519 62 LINE",
"433 62 LINE",
"336 224 LINE",
"419 367 LINE",
"503 367 LINE",
"503 429 LINE",
"293 429 LINE",
"293 367 LINE",
"345 367 LINE",
"276 249 LINE",
"185 249 LINE",
"185 599 LINE",
"33 651 LINE"
);
}
);
width = 551;
},
{
anchors = (
{
name = bottom;
position = "{312, 0}";
},
{
name = top;
position = "{148, 589}";
}
);
background = {
paths = (
{
closed = 1;
nodes = (
"522 429 LINE",
"312 429 LINE",
"312 367 LINE",
"364 367 LINE",
"295 249 LINE",
"204 249 LINE",
"204 599 LINE",
"52 651 LINE",
"31 589 LINE",
"126 556 LINE",
"126 62 LINE",
"42 62 LINE",
"42 0 LINE",
"249 0 LINE",
"249 62 LINE",
"204 62 LINE",
"204 187 LINE",
"292 187 LINE",
"406 0 LINE",
"538 0 LINE",
"538 62 LINE",
"452 62 LINE",
"355 224 LINE",
"354 224 LINE",
"438 367 LINE",
"522 367 LINE"
);
}
);
};
layerId = "6E1B38A8-44EA-440A-BD04-FE41D2B0BC62";
paths = (
{
closed = 1;
nodes = (
"17 577 LINE",
"112 545 LINE",
"112 101 LINE",
"28 101 LINE",
"28 0 LINE",
"268 0 LINE",
"268 101 LINE",
"239 101 LINE",
"239 173 LINE",
"301 173 LINE",
"420 0 LINE",
"563 0 LINE",
"563 101 LINE",
"481 101 LINE",
"393 225 LINE",
"481 353 LINE",
"554 353 LINE",
"554 454 LINE",
"302 454 LINE",
"302 353 LINE",
"352 353 LINE",
"305 273 LINE",
"239 273 LINE",
"239 615 LINE",
"50 679 LINE"
);
}
);
width = 603;
}
);
leftKerningGroup = h;
rightKerningGroup = k;
unicode = 006B;
},
{
color = 1;
glyphname = l;
layers = (
{
anchors = (
{
name = bottom;
position = "{146, 0}";
},
{
name = center;
position = "{146, 215}";
},
{
name = top;
position = "{63, 625}";
},
{
name = topright;
position = "{274, 429}";
}
);
layerId = UUID0;
paths = (
{
closed = 1;
nodes = (
"269 0 LINE",
"269 62 LINE",
"185 62 LINE",
"185 615 LINE",
"24 652 LINE",
"7 588 LINE",
"107 566 LINE",
"107 62 LINE",
"23 62 LINE",
"23 0 LINE"
);
}
);
width = 292;
},
{
anchors = (
{
name = bottom;
position = "{168, 0}";
},
{
name = center;
position = "{168, 227}";
},
{
name = top;
position = "{98, 636}";
},
{
name = topright;
position = "{311, 454}";
}
);
background = {
paths = (
{
closed = 1;
nodes = (
"44 652 LINE",
"27 588 LINE",
"127 566 LINE",
"127 62 LINE",
"43 62 LINE",
"43 0 LINE",
"289 0 LINE",
"289 62 LINE",
"205 62 LINE",
"205 615 LINE"
);
}
);
};
layerId = "6E1B38A8-44EA-440A-BD04-FE41D2B0BC62";
paths = (
{
closed = 1;
nodes = (
"323 0 LINE",
"323 101 LINE",
"239 101 LINE",
"239 615 LINE",
"50 679 LINE",
"17 577 LINE",
"112 545 LINE",
"112 101 LINE",
"28 101 LINE",
"28 0 LINE"
);
}
);
width = 351;
}
);
leftKerningGroup = h;
rightKerningGroup = l;
unicode = 006C;
},
{
color = 1;
glyphname = m;
layers = (
{
anchors = (
{
name = bottom;
position = "{438, 0}";
},
{
name = top;
position = "{438, 429}";
}
);
layerId = UUID0;
paths = (
{
closed = 1;
nodes = (
"249 0 LINE",
"249 62 LINE",
"204 62 LINE",
"204 346 LINE",
"225 366 OFFCURVE",
"270 380 OFFCURVE",
"313 380 CURVE SMOOTH",
"385 380 OFFCURVE",
"412 347 OFFCURVE",
"412 259 CURVE SMOOTH",
"412 62 LINE",
"367 62 LINE",
"367 0 LINE",
"535 0 LINE",
"535 62 LINE",
"490 62 LINE",
"490 346 LINE",
"511 366 OFFCURVE",
"556 380 OFFCURVE",
"599 380 CURVE SMOOTH",
"671 380 OFFCURVE",
"698 347 OFFCURVE",
"698 259 CURVE SMOOTH",
"698 62 LINE",
"653 62 LINE",
"653 0 LINE",
"860 0 LINE",
"860 62 LINE",
"776 62 LINE",
"776 275 LINE SMOOTH",
"776 394 OFFCURVE",
"725 444 OFFCURVE",
"604 444 CURVE SMOOTH",
"554 444 OFFCURVE",
"495 423 OFFCURVE",
"462 392 CURVE",
"434 426 OFFCURVE",
"385 444 OFFCURVE",
"318 444 CURVE SMOOTH",
"272 444 OFFCURVE",
"220 426 OFFCURVE",
"183 398 CURVE",
"51 444 LINE",
"30 382 LINE",
"126 349 LINE",
"126 62 LINE",
"42 62 LINE",
"42 0 LINE"
);
}
);
width = 883;
},
{
anchors = (
{
name = bottom;
position = "{477, 0}";
},
{
name = top;
position = "{477, 454}";
}
);
background = {
paths = (
{
closed = 1;
nodes = (
"48 382 LINE",
"144 349 LINE",
"144 62 LINE",
"60 62 LINE",
"60 0 LINE",
"267 0 LINE",
"267 62 LINE",
"222 62 LINE",
"222 346 LINE",
"222 346 OFFCURVE",
"259 380 OFFCURVE",
"331 380 CURVE SMOOTH",
"417 380 OFFCURVE",
"430 330 OFFCURVE",
"430 259 CURVE SMOOTH",
"430 62 LINE",
"385 62 LINE",
"385 0 LINE",
"553 0 LINE",
"553 62 LINE",
"508 62 LINE",
"508 346 LINE",
"508 346 OFFCURVE",
"545 380 OFFCURVE",
"617 380 CURVE SMOOTH",
"703 380 OFFCURVE",
"716 330 OFFCURVE",
"716 259 CURVE SMOOTH",
"716 62 LINE",
"671 62 LINE",
"671 0 LINE",
"878 0 LINE",
"878 62 LINE",
"794 62 LINE",
"794 275 LINE SMOOTH",
"794 387 OFFCURVE",
"750 444 OFFCURVE",
"622 444 CURVE SMOOTH",
"535 444 OFFCURVE",
"480 392 OFFCURVE",
"480 392 CURVE",
"478 391 LINE",
"452 426 OFFCURVE",
"407 444 OFFCURVE",
"336 444 CURVE SMOOTH",
"265 444 OFFCURVE",
"218 411 OFFCURVE",
"201 398 CURVE",
"69 444 LINE"
);
}
);
};
layerId = "6E1B38A8-44EA-440A-BD04-FE41D2B0BC62";
paths = (
{
closed = 1;
nodes = (
"297 0 LINE",
"297 102 LINE",
"257 102 LINE",
"257 331 LINE",
"282 350 OFFCURVE",
"317 364 OFFCURVE",
"342 364 CURVE SMOOTH",
"396 364 OFFCURVE",
"416 337 OFFCURVE",
"416 267 CURVE SMOOTH",
"416 102 LINE",
"377 102 LINE",
"377 0 LINE",
"580 0 LINE",
"580 102 LINE",
"543 102 LINE",
"543 331 LINE",
"566 350 OFFCURVE",
"602 364 OFFCURVE",
"627 364 CURVE SMOOTH",
"681 364 OFFCURVE",
"701 337 OFFCURVE",
"701 267 CURVE SMOOTH",
"701 102 LINE",
"664 102 LINE",
"664 0 LINE",
"913 0 LINE",
"913 102 LINE",
"828 102 LINE",
"828 270 LINE SMOOTH",
"828 417 OFFCURVE",
"774 474 OFFCURVE",
"647 474 CURVE SMOOTH",
"589 474 OFFCURVE",
"539 449 OFFCURVE",
"496 416 CURVE",
"464 457 OFFCURVE",
"421 474 OFFCURVE",
"349 474 CURVE SMOOTH",
"311 474 OFFCURVE",
"249 448 OFFCURVE",
"214 418 CURVE",
"68 464 LINE",
"35 362 LINE",
"130 333 LINE",
"130 102 LINE",
"47 102 LINE",
"47 0 LINE"
);
}
);
width = 941;
}
);
leftKerningGroup = n;
rightKerningGroup = n;
unicode = 006D;
},
{
color = 1;
glyphname = n;
layers = (
{
anchors = (
{
name = bottom;
position = "{306, 0}";
},
{
name = top;
position = "{306, 429}";
}
);
layerId = UUID0;
paths = (
{
closed = 1;
nodes = (
"249 0 LINE",
"249 62 LINE",
"204 62 LINE",
"204 346 LINE",
"244 368 OFFCURVE",
"286 380 OFFCURVE",
"323 380 CURVE SMOOTH",
"387 380 OFFCURVE",
"436 344 OFFCURVE",
"436 259 CURVE SMOOTH",
"436 62 LINE",
"391 62 LINE",
"391 0 LINE",
"598 0 LINE",
"598 62 LINE",
"514 62 LINE",
"514 275 LINE SMOOTH",
"514 388 OFFCURVE",
"431 444 OFFCURVE",
"336 444 CURVE SMOOTH",
"285 444 OFFCURVE",
"231 429 OFFCURVE",
"184 398 CURVE",
"51 444 LINE",
"30 382 LINE",
"126 349 LINE",
"126 62 LINE",
"42 62 LINE",
"42 0 LINE"
);
}
);
width = 621;
},
{
anchors = (
{
name = bottom;
position = "{345, 0}";
},
{
name = top;
position = "{345, 454}";
}
);
background = {
paths = (
{
closed = 1;
nodes = (
"50 382 LINE",
"146 349 LINE",
"146 62 LINE",
"61 62 LINE",
"61 0 LINE",
"268 0 LINE",
"268 62 LINE",
"223 62 LINE",
"223 346 LINE",
"223 346 OFFCURVE",
"278 380 OFFCURVE",
"349 380 CURVE SMOOTH",
"435 380 OFFCURVE",
"455 330 OFFCURVE",
"455 259 CURVE SMOOTH",
"455 62 LINE",
"410 62 LINE",
"410 0 LINE",
"617 0 LINE",
"617 62 LINE",
"533 62 LINE",
"533 275 LINE SMOOTH",
"533 387 OFFCURVE",
"483 444 OFFCURVE",
"355 444 CURVE SMOOTH",
"283 444 OFFCURVE",
"223 411 OFFCURVE",
"203 398 CURVE",
"71 444 LINE"
);
}
);
};
layerId = "6E1B38A8-44EA-440A-BD04-FE41D2B0BC62";
paths = (
{
closed = 1;
nodes = (
"298 0 LINE",
"298 101 LINE",
"258 101 LINE",
"258 328 LINE",
"280 345 OFFCURVE",
"320 362 OFFCURVE",
"360 362 CURVE SMOOTH",
"423 362 OFFCURVE",
"441 322 OFFCURVE",
"441 266 CURVE SMOOTH",
"441 101 LINE",
"400 101 LINE",
"400 0 LINE",
"651 0 LINE",
"651 101 LINE",
"568 101 LINE",
"568 281 LINE SMOOTH",
"568 387 OFFCURVE",
"523 474 OFFCURVE",
"392 474 CURVE SMOOTH",
"309 474 OFFCURVE",
"263 451 OFFCURVE",
"210 415 CURVE",
"69 463 LINE",
"36 361 LINE",
"132 328 LINE",
"132 101 LINE",
"47 101 LINE",
"47 0 LINE"
);
}
);
width = 679;
}
);
leftKerningGroup = n;
rightKerningGroup = n;
unicode = 006E;
},
{
color = 1;
glyphname = o;
layers = (
{
anchors = (
{
name = bottom;
position = "{261, 0}";
},
{
name = center;
position = "{261, 215}";
},
{
name = ogonek;
position = "{398, 40}";
},
{
name = top;
position = "{261, 429}";
},
{
name = topright;
position = "{396, 406}";
}
);
layerId = UUID0;
paths = (
{
closed = 1;
nodes = (
"130 444 OFFCURVE",
"41 357 OFFCURVE",
"41 214 CURVE SMOOTH",
"41 71 OFFCURVE",
"130 -15 OFFCURVE",
"259 -15 CURVE SMOOTH",
"392 -15 OFFCURVE",
"481 71 OFFCURVE",
"481 214 CURVE SMOOTH",
"481 357 OFFCURVE",
"392 444 OFFCURVE",
"259 444 CURVE SMOOTH"
);
},
{
closed = 1;
nodes = (
"354 380 OFFCURVE",
"401 319 OFFCURVE",
"401 214 CURVE SMOOTH",
"401 109 OFFCURVE",
"354 49 OFFCURVE",
"260 49 CURVE SMOOTH",
"168 49 OFFCURVE",
"121 109 OFFCURVE",
"121 214 CURVE SMOOTH",
"121 319 OFFCURVE",
"168 380 OFFCURVE",
"260 380 CURVE SMOOTH"
);
}
);
width = 521;
},
{
anchors = (
{
name = bottom;
position = "{285, 0}";
},
{
name = center;
position = "{285, 227}";
},
{
name = ogonek;
position = "{450, 37}";
},
{
name = top;
position = "{285, 454}";
},
{
name = topright;
position = "{453, 420}";
}
);
background = {
paths = (
{
closed = 1;
nodes = (
"406 -15 OFFCURVE",
"495 71 OFFCURVE",
"495 214 CURVE SMOOTH",
"495 357 OFFCURVE",
"406 444 OFFCURVE",
"273 444 CURVE SMOOTH",
"144 444 OFFCURVE",
"55 357 OFFCURVE",
"55 214 CURVE SMOOTH",
"55 71 OFFCURVE",
"144 -15 OFFCURVE",
"273 -15 CURVE SMOOTH"
);
},
{
closed = 1;
nodes = (
"367 380 OFFCURVE",
"415 319 OFFCURVE",
"415 214 CURVE SMOOTH",
"415 109 OFFCURVE",
"367 49 OFFCURVE",
"274 49 CURVE SMOOTH",
"181 49 OFFCURVE",
"135 109 OFFCURVE",
"135 214 CURVE SMOOTH",
"135 319 OFFCURVE",
"181 380 OFFCURVE",
"274 380 CURVE SMOOTH"
);
}
);
};
layerId = "6E1B38A8-44EA-440A-BD04-FE41D2B0BC62";
paths = (
{
closed = 1;
nodes = (
"130 474 OFFCURVE",
"40 382 OFFCURVE",
"40 226 CURVE SMOOTH",
"40 71 OFFCURVE",
"130 -20 OFFCURVE",
"283 -20 CURVE SMOOTH",
"438 -20 OFFCURVE",
"530 71 OFFCURVE",
"530 226 CURVE SMOOTH",
"530 382 OFFCURVE",
"438 474 OFFCURVE",
"283 474 CURVE SMOOTH"
);
},
{
closed = 1;
nodes = (
"361 371 OFFCURVE",
"401 321 OFFCURVE",
"401 226 CURVE SMOOTH",
"401 131 OFFCURVE",
"361 81 OFFCURVE",
"284 81 CURVE SMOOTH",
"208 81 OFFCURVE",
"169 131 OFFCURVE",
"169 226 CURVE SMOOTH",
"169 321 OFFCURVE",
"208 371 OFFCURVE",
"284 371 CURVE SMOOTH"
);
}
);
width = 569;
},
{
associatedMasterId = "6E1B38A8-44EA-440A-BD04-FE41D2B0BC62";
background = {
paths = (
{
closed = 1;
nodes = (
"393 -15 OFFCURVE",
"482 71 OFFCURVE",
"482 214 CURVE SMOOTH",
"482 357 OFFCURVE",
"393 444 OFFCURVE",
"260 444 CURVE SMOOTH",
"131 444 OFFCURVE",
"42 357 OFFCURVE",
"42 214 CURVE SMOOTH",
"42 71 OFFCURVE",
"131 -15 OFFCURVE",
"260 -15 CURVE SMOOTH"
);
},
{
closed = 1;
nodes = (
"354 380 OFFCURVE",
"402 319 OFFCURVE",
"402 214 CURVE SMOOTH",
"402 109 OFFCURVE",
"354 49 OFFCURVE",
"261 49 CURVE SMOOTH",
"168 49 OFFCURVE",
"122 109 OFFCURVE",
"122 214 CURVE SMOOTH",
"122 319 OFFCURVE",
"168 380 OFFCURVE",
"261 380 CURVE SMOOTH"
);
}
);
};
layerId = "1E2777C7-D231-47D5-946A-9102B4CE2579";
name = "Nov 1 16, 12:52";
paths = (
{
closed = 1;
nodes = (
"126 474 OFFCURVE",
"27 387 OFFCURVE",
"27 226 CURVE SMOOTH",
"27 64 OFFCURVE",
"126 -20 OFFCURVE",
"270 -20 CURVE SMOOTH",
"417 -20 OFFCURVE",
"517 64 OFFCURVE",
"517 226 CURVE SMOOTH",
"517 387 OFFCURVE",
"417 474 OFFCURVE",
"270 474 CURVE SMOOTH"
);
},
{
closed = 1;
nodes = (
"349 371 OFFCURVE",
"388 318 OFFCURVE",
"388 226 CURVE SMOOTH",
"388 134 OFFCURVE",
"349 81 OFFCURVE",
"271 81 CURVE SMOOTH",
"195 81 OFFCURVE",
"156 134 OFFCURVE",
"156 226 CURVE SMOOTH",
"156 318 OFFCURVE",
"195 371 OFFCURVE",
"271 371 CURVE SMOOTH"
);
}
);
width = 544;
}
);
leftKerningGroup = o;
rightKerningGroup = o;
unicode = 006F;
},
{
glyphname = oacute;
layers = (
{
background = {
paths = (
{
closed = 1;
nodes = (
"206 512 LINE",
"224 480 LINE",
"457 586 LINE",
"422 652 LINE"
);
}
);
};
components = (
{
name = o;
},
{
name = acutecomb;
transform = "{1, 0, 0, 1, 153, 0}";
}
);
layerId = UUID0;
width = 516;
},
{
components = (
{
name = o;
},
{
name = acutecomb;
transform = "{1, 0, 0, 1, 223, 0}";
}
);
layerId = "6E1B38A8-44EA-440A-BD04-FE41D2B0BC62";
width = 611;
}
);
leftKerningGroup = o;
rightKerningGroup = o;
unicode = 00F3;
},
{
glyphname = ograve;
layers = (
{
background = {
paths = (
{
closed = 1;
nodes = (
"99 652 LINE",
"64 586 LINE",
"297 480 LINE",
"315 512 LINE"
);
}
);
};
components = (
{
name = o;
},
{
name = gravecomb;
transform = "{1, 0, 0, 1, 54, 0}";
}
);
layerId = UUID0;
width = 516;
},
{
components = (
{
name = o;
},
{
name = gravecomb;
transform = "{1, 0, 0, 1, 76, 0}";
}
);
layerId = "6E1B38A8-44EA-440A-BD04-FE41D2B0BC62";
width = 611;
}
);
leftKerningGroup = o;
rightKerningGroup = o;
unicode = 00F2;
},
{
color = 1;
glyphname = oslash;
layers = (
{
background = {
components = (
{
name = o;
}
);
paths = (
{
closed = 1;
nodes = (
"408 503 LINE",
"359 503 LINE",
"119 -69 LINE",
"177 -69 LINE"
);
}
);
};
components = (
{
name = o;
}
);
layerId = UUID0;
paths = (
{
closed = 1;
nodes = (
"405 499 LINE",
"355 499 LINE",
"119 -69 LINE",
"169 -69 LINE"
);
}
);
width = 532;
},
{
background = {
components = (
{
name = o;
}
);
};
components = (
{
name = o;
}
);
layerId = "6E1B38A8-44EA-440A-BD04-FE41D2B0BC62";
paths = (
{
closed = 1;
nodes = (
"440 518 LINE",
"375 518 LINE",
"114 -78 LINE",
"179 -78 LINE"
);
}
);
width = 611;
}
);
leftKerningGroup = o;
rightKerningGroup = o;
unicode = 00F8;
},
{
color = 1;
glyphname = oe;
layers = (
{
layerId = UUID0;
paths = (
{
closed = 1;
nodes = (
"679 98 LINE",
"679 98 OFFCURVE",
"620 49 OFFCURVE",
"527 49 CURVE SMOOTH",
"441 49 OFFCURVE",
"394 101 OFFCURVE",
"389 194 CURVE",
"711 196 LINE",
"713 213 OFFCURVE",
"714 229 OFFCURVE",
"714 244 CURVE SMOOTH",
"714 400 OFFCURVE",
"624 444 OFFCURVE",
"526 444 CURVE SMOOTH",
"478 444 OFFCURVE",
"436 432 OFFCURVE",
"402 410 CURVE",
"369 427 OFFCURVE",
"323 444 OFFCURVE",
"263 444 CURVE SMOOTH",
"141 444 OFFCURVE",
"45 352 OFFCURVE",
"45 223 CURVE SMOOTH",
"45 80 OFFCURVE",
"134 -15 OFFCURVE",
"263 -15 CURVE SMOOTH",
"314 -15 OFFCURVE",
"358 5 OFFCURVE",
"390 27 CURVE",
"426 0 OFFCURVE",
"472 -15 OFFCURVE",
"526 -15 CURVE SMOOTH",
"647 -15 OFFCURVE",
"715 50 OFFCURVE",
"715 51 CURVE"
);
},
{
closed = 1;
nodes = (
"304 380 OFFCURVE",
"334 372 OFFCURVE",
"353 365 CURVE",
"324 327 OFFCURVE",
"308 275 OFFCURVE",
"308 214 CURVE SMOOTH",
"308 156 OFFCURVE",
"322 108 OFFCURVE",
"348 71 CURVE",
"326 59 OFFCURVE",
"298 49 OFFCURVE",
"264 49 CURVE SMOOTH",
"172 49 OFFCURVE",
"125 119 OFFCURVE",
"125 224 CURVE SMOOTH",
"125 313 OFFCURVE",
"179 380 OFFCURVE",
"264 380 CURVE SMOOTH"
);
},
{
closed = 1;
nodes = (
"390 256 LINE",
"402 334 OFFCURVE",
"448 380 OFFCURVE",
"527 380 CURVE SMOOTH",
"602 380 OFFCURVE",
"642 337 OFFCURVE",
"643 257 CURVE"
);
}
);
width = 764;
},
{
background = {
paths = (
{
closed = 1;
nodes = (
"685 -15 OFFCURVE",
"754 50 OFFCURVE",
"754 51 CURVE",
"718 98 LINE",
"718 98 OFFCURVE",
"658 49 OFFCURVE",
"566 49 CURVE SMOOTH",
"479 49 OFFCURVE",
"432 101 OFFCURVE",
"428 194 CURVE",
"749 196 LINE",
"769 391 OFFCURVE",
"672 444 OFFCURVE",
"564 444 CURVE SMOOTH",
"516 444 OFFCURVE",
"474 432 OFFCURVE",
"441 410 CURVE",
"407 427 OFFCURVE",
"362 444 OFFCURVE",
"302 444 CURVE SMOOTH",
"179 444 OFFCURVE",
"83 352 OFFCURVE",
"83 223 CURVE SMOOTH",
"83 80 OFFCURVE",
"173 -15 OFFCURVE",
"302 -15 CURVE SMOOTH",
"352 -15 OFFCURVE",
"396 5 OFFCURVE",
"428 27 CURVE",
"465 0 OFFCURVE",
"511 -15 OFFCURVE",
"564 -15 CURVE SMOOTH"
);
},
{
closed = 1;
nodes = (
"346 156 OFFCURVE",
"361 108 OFFCURVE",
"386 71 CURVE",
"365 59 OFFCURVE",
"337 49 OFFCURVE",
"303 49 CURVE SMOOTH",
"210 49 OFFCURVE",
"163 119 OFFCURVE",
"163 224 CURVE SMOOTH",
"163 313 OFFCURVE",
"218 380 OFFCURVE",
"303 380 CURVE SMOOTH",
"343 380 OFFCURVE",
"372 372 OFFCURVE",
"391 365 CURVE",
"363 327 OFFCURVE",
"346 275 OFFCURVE",
"346 214 CURVE SMOOTH"
);
},
{
closed = 1;
nodes = (
"640 380 OFFCURVE",
"680 337 OFFCURVE",
"681 257 CURVE",
"428 256 LINE",
"441 334 OFFCURVE",
"487 380 OFFCURVE",
"566 380 CURVE SMOOTH"
);
}
);
};
layerId = "6E1B38A8-44EA-440A-BD04-FE41D2B0BC62";
paths = (
{
closed = 1;
nodes = (
"700 124 LINE",
"673 104 OFFCURVE",
"630 78 OFFCURVE",
"554 78 CURVE SMOOTH",
"492 78 OFFCURVE",
"459 113 OFFCURVE",
"448 175 CURVE",
"759 175 LINE",
"762 186 OFFCURVE",
"765 205 OFFCURVE",
"765 238 CURVE SMOOTH",
"765 388 OFFCURVE",
"691 463 OFFCURVE",
"558 463 CURVE SMOOTH",
"521 463 OFFCURVE",
"480 450 OFFCURVE",
"443 424 CURVE",
"412 446 OFFCURVE",
"361 463 OFFCURVE",
"302 463 CURVE SMOOTH",
"158 463 OFFCURVE",
"59 377 OFFCURVE",
"59 219 CURVE SMOOTH",
"59 61 OFFCURVE",
"158 -22 OFFCURVE",
"302 -22 CURVE SMOOTH",
"358 -22 OFFCURVE",
"407 -8 OFFCURVE",
"440 13 CURVE",
"475 -10 OFFCURVE",
"515 -22 OFFCURVE",
"553 -22 CURVE SMOOTH",
"688 -22 OFFCURVE",
"752 50 OFFCURVE",
"755 54 CURVE"
);
},
{
closed = 1;
nodes = (
"327 360 OFFCURVE",
"352 355 OFFCURVE",
"371 346 CURVE",
"353 316 OFFCURVE",
"340 272 OFFCURVE",
"340 220 CURVE SMOOTH",
"340 167 OFFCURVE",
"352 122 OFFCURVE",
"369 92 CURVE",
"350 83 OFFCURVE",
"326 78 OFFCURVE",
"303 78 CURVE SMOOTH",
"227 78 OFFCURVE",
"188 129 OFFCURVE",
"188 219 CURVE SMOOTH",
"188 308 OFFCURVE",
"227 360 OFFCURVE",
"303 360 CURVE SMOOTH"
);
},
{
closed = 1;
nodes = (
"451 277 LINE",
"465 331 OFFCURVE",
"499 360 OFFCURVE",
"554 360 CURVE SMOOTH",
"623 360 OFFCURVE",
"652 323 OFFCURVE",
"651 277 CURVE"
);
}
);
width = 827;
}
);
leftKerningGroup = o;
rightKerningGroup = e;
unicode = 0153;
},
{
color = 1;
glyphname = p;
layers = (
{
anchors = (
{
name = bottom;
position = "{158, -208}";
},
{
name = top;
position = "{306, 429}";
}
);
layerId = UUID0;
paths = (
{
closed = 1;
nodes = (
"276 -208 LINE",
"276 -146 LINE",
"192 -146 LINE",
"192 2 LINE",
"227 -9 OFFCURVE",
"264 -15 OFFCURVE",
"303 -15 CURVE SMOOTH",
"432 -15 OFFCURVE",
"521 85 OFFCURVE",
"521 228 CURVE SMOOTH",
"521 362 OFFCURVE",
"439 444 OFFCURVE",
"307 444 CURVE SMOOTH",
"265 444 OFFCURVE",
"217 428 OFFCURVE",
"174 401 CURVE",
"40 447 LINE",
"20 383 LINE",
"114 352 LINE",
"114 -146 LINE",
"30 -146 LINE",
"30 -208 LINE"
);
},
{
closed = 1;
nodes = (
"260 49 OFFCURVE",
"215 59 OFFCURVE",
"192 74 CURVE",
"192 343 LINE",
"216 364 OFFCURVE",
"264 380 OFFCURVE",
"306 380 CURVE SMOOTH",
"396 380 OFFCURVE",
"441 329 OFFCURVE",
"441 228 CURVE SMOOTH",
"441 116 OFFCURVE",
"389 49 OFFCURVE",
"302 49 CURVE SMOOTH"
);
}
);
width = 561;
},
{
anchors = (
{
name = bottom;
position = "{182, -224}";
},
{
name = top;
position = "{330, 454}";
}
);
background = {
paths = (
{
closed = 1;
nodes = (
"294 -146 LINE",
"210 -146 LINE",
"210 2 LINE",
"240 -8 OFFCURVE",
"276 -15 OFFCURVE",
"321 -15 CURVE SMOOTH",
"450 -15 OFFCURVE",
"539 85 OFFCURVE",
"539 228 CURVE SMOOTH",
"539 368 OFFCURVE",
"451 444 OFFCURVE",
"325 444 CURVE SMOOTH",
"272 444 OFFCURVE",
"224 422 OFFCURVE",
"192 401 CURVE",
"58 447 LINE",
"38 383 LINE",
"132 352 LINE",
"132 -146 LINE",
"48 -146 LINE",
"48 -208 LINE",
"294 -208 LINE"
);
},
{
closed = 1;
nodes = (
"249 49 OFFCURVE",
"210 74 OFFCURVE",
"210 74 CURVE",
"210 343 LINE",
"210 343 OFFCURVE",
"253 380 OFFCURVE",
"324 380 CURVE SMOOTH",
"414 380 OFFCURVE",
"459 329 OFFCURVE",
"459 228 CURVE SMOOTH",
"459 123 OFFCURVE",
"412 49 OFFCURVE",
"320 49 CURVE SMOOTH"
);
}
);
};
layerId = "6E1B38A8-44EA-440A-BD04-FE41D2B0BC62";
paths = (
{
closed = 1;
nodes = (
"329 -224 LINE",
"329 -124 LINE",
"245 -124 LINE",
"245 -12 LINE",
"271 -19 OFFCURVE",
"299 -22 OFFCURVE",
"331 -22 CURVE SMOOTH",
"479 -22 OFFCURVE",
"573 75 OFFCURVE",
"573 228 CURVE SMOOTH",
"573 381 OFFCURVE",
"487 474 OFFCURVE",
"345 474 CURVE SMOOTH",
"299 474 OFFCURVE",
"245 454 OFFCURVE",
"200 421 CURVE",
"56 470 LINE",
"23 368 LINE",
"118 336 LINE",
"118 -124 LINE",
"34 -124 LINE",
"34 -224 LINE"
);
},
{
closed = 1;
nodes = (
"298 79 OFFCURVE",
"266 85 OFFCURVE",
"243 94 CURVE",
"243 335 LINE",
"268 358 OFFCURVE",
"302 371 OFFCURVE",
"338 371 CURVE SMOOTH",
"405 371 OFFCURVE",
"443 318 OFFCURVE",
"443 226 CURVE SMOOTH",
"443 132 OFFCURVE",
"402 79 OFFCURVE",
"329 79 CURVE SMOOTH"
);
}
);
width = 613;
}
);
leftKerningGroup = n;
rightKerningGroup = o;
unicode = 0070;
},
{
color = 1;
glyphname = thorn;
layers = (
{
layerId = UUID0;
paths = (
{
closed = 1;
nodes = (
"156 600 LINE",
"4 652 LINE",
"-16 588 LINE",
"78 557 LINE",
"78 -146 LINE",
"-6 -146 LINE",
"-6 -208 LINE",
"240 -208 LINE",
"240 -146 LINE",
"156 -146 LINE",
"156 2 LINE",
"186 -8 OFFCURVE",
"222 -15 OFFCURVE",
"267 -15 CURVE SMOOTH",
"396 -15 OFFCURVE",
"485 84 OFFCURVE",
"485 227 CURVE SMOOTH",
"485 367 OFFCURVE",
"397 444 OFFCURVE",
"271 444 CURVE SMOOTH",
"227 444 OFFCURVE",
"187 429 OFFCURVE",
"156 412 CURVE"
);
},
{
closed = 1;
nodes = (
"156 343 LINE",
"156 343 OFFCURVE",
"199 380 OFFCURVE",
"270 380 CURVE SMOOTH",
"360 380 OFFCURVE",
"405 328 OFFCURVE",
"405 227 CURVE SMOOTH",
"405 122 OFFCURVE",
"358 49 OFFCURVE",
"266 49 CURVE SMOOTH",
"195 49 OFFCURVE",
"156 74 OFFCURVE",
"156 74 CURVE"
);
}
);
width = 530;
},
{
background = {
paths = (
{
closed = 1;
nodes = (
"251 -146 LINE",
"167 -146 LINE",
"167 2 LINE",
"197 -8 OFFCURVE",
"234 -15 OFFCURVE",
"279 -15 CURVE SMOOTH",
"407 -15 OFFCURVE",
"496 84 OFFCURVE",
"496 227 CURVE SMOOTH",
"496 367 OFFCURVE",
"408 444 OFFCURVE",
"282 444 CURVE SMOOTH",
"238 444 OFFCURVE",
"198 429 OFFCURVE",
"167 412 CURVE",
"167 600 LINE",
"15 652 LINE",
"-5 588 LINE",
"90 557 LINE",
"90 -146 LINE",
"6 -146 LINE",
"6 -208 LINE",
"251 -208 LINE"
);
},
{
closed = 1;
nodes = (
"206 49 OFFCURVE",
"167 74 OFFCURVE",
"167 74 CURVE",
"167 343 LINE",
"167 343 OFFCURVE",
"210 380 OFFCURVE",
"281 380 CURVE SMOOTH",
"371 380 OFFCURVE",
"416 328 OFFCURVE",
"416 227 CURVE SMOOTH",
"416 122 OFFCURVE",
"369 49 OFFCURVE",
"278 49 CURVE SMOOTH"
);
}
);
};
layerId = "6E1B38A8-44EA-440A-BD04-FE41D2B0BC62";
paths = (
{
closed = 1;
nodes = (
"216 615 LINE",
"26 680 LINE",
"-11 572 LINE",
"90 537 LINE",
"90 -124 LINE",
"6 -124 LINE",
"6 -224 LINE",
"301 -224 LINE",
"301 -124 LINE",
"217 -124 LINE",
"217 -12 LINE",
"242 -18 OFFCURVE",
"269 -22 OFFCURVE",
"303 -22 CURVE SMOOTH",
"447 -22 OFFCURVE",
"546 71 OFFCURVE",
"546 228 CURVE SMOOTH",
"546 390 OFFCURVE",
"446 468 OFFCURVE",
"313 468 CURVE SMOOTH",
"273 468 OFFCURVE",
"236 456 OFFCURVE",
"216 445 CURVE"
);
},
{
closed = 1;
nodes = (
"216 335 LINE",
"216 335 OFFCURVE",
"260 365 OFFCURVE",
"305 365 CURVE SMOOTH",
"380 365 OFFCURVE",
"416 309 OFFCURVE",
"416 226 CURVE SMOOTH",
"416 139 OFFCURVE",
"380 79 OFFCURVE",
"301 79 CURVE SMOOTH",
"258 79 OFFCURVE",
"230 88 OFFCURVE",
"216 94 CURVE"
);
}
);
width = 606;
}
);
leftKerningGroup = b;
rightKerningGroup = o;
unicode = 00FE;
},
{
color = 1;
glyphname = q;
layers = (
{
layerId = UUID0;
paths = (
{
closed = 1;
nodes = (
"533 -208 LINE",
"533 -146 LINE",
"449 -146 LINE",
"449 387 LINE",
"406 425 OFFCURVE",
"343 444 OFFCURVE",
"269 444 CURVE SMOOTH",
"132 444 OFFCURVE",
"41 362 OFFCURVE",
"41 224 CURVE SMOOTH",
"41 74 OFFCURVE",
"122 -15 OFFCURVE",
"259 -15 CURVE SMOOTH",
"294 -15 OFFCURVE",
"336 -3 OFFCURVE",
"371 17 CURVE",
"371 -146 LINE",
"287 -146 LINE",
"287 -208 LINE"
);
},
{
closed = 1;
nodes = (
"177 49 OFFCURVE",
"121 119 OFFCURVE",
"121 225 CURVE SMOOTH",
"121 318 OFFCURVE",
"177 380 OFFCURVE",
"260 380 CURVE SMOOTH",
"311 380 OFFCURVE",
"340 370 OFFCURVE",
"371 354 CURVE",
"371 87 LINE",
"340 64 OFFCURVE",
"296 49 OFFCURVE",
"260 49 CURVE SMOOTH"
);
}
);
width = 514;
},
{
background = {
paths = (
{
closed = 1;
nodes = (
"301 -208 LINE",
"547 -208 LINE",
"547 -146 LINE",
"463 -146 LINE",
"463 387 LINE",
"462 388 OFFCURVE",
"388 444 OFFCURVE",
"273 444 CURVE SMOOTH",
"151 444 OFFCURVE",
"55 353 OFFCURVE",
"55 224 CURVE SMOOTH",
"55 81 OFFCURVE",
"144 -15 OFFCURVE",
"273 -15 CURVE SMOOTH",
"317 -15 OFFCURVE",
"355 0 OFFCURVE",
"385 17 CURVE",
"385 -146 LINE",
"301 -146 LINE"
);
},
{
closed = 1;
nodes = (
"345 380 OFFCURVE",
"384 355 OFFCURVE",
"385 354 CURVE",
"385 87 LINE",
"365 72 OFFCURVE",
"324 49 OFFCURVE",
"274 49 CURVE SMOOTH",
"181 49 OFFCURVE",
"135 120 OFFCURVE",
"135 225 CURVE SMOOTH",
"135 314 OFFCURVE",
"189 380 OFFCURVE",
"274 380 CURVE SMOOTH"
);
}
);
};
layerId = "6E1B38A8-44EA-440A-BD04-FE41D2B0BC62";
paths = (
{
closed = 1;
nodes = (
"563 -224 LINE",
"563 -124 LINE",
"497 -124 LINE",
"497 418 LINE",
"429 453 OFFCURVE",
"353 474 OFFCURVE",
"293 474 CURVE SMOOTH",
"134 474 OFFCURVE",
"40 385 OFFCURVE",
"40 235 CURVE SMOOTH",
"40 75 OFFCURVE",
"125 -20 OFFCURVE",
"268 -20 CURVE SMOOTH",
"305 -20 OFFCURVE",
"343 -13 OFFCURVE",
"369 0 CURVE",
"369 -124 LINE",
"267 -124 LINE",
"267 -224 LINE"
);
},
{
closed = 1;
nodes = (
"213 81 OFFCURVE",
"169 143 OFFCURVE",
"169 235 CURVE SMOOTH",
"169 317 OFFCURVE",
"213 371 OFFCURVE",
"280 371 CURVE SMOOTH",
"314 371 OFFCURVE",
"350 361 OFFCURVE",
"369 346 CURVE",
"369 96 LINE",
"344 87 OFFCURVE",
"308 81 OFFCURVE",
"279 81 CURVE SMOOTH"
);
}
);
width = 561;
}
);
leftKerningGroup = o;
rightKerningGroup = q;
unicode = 0071;
},
{
color = 1;
glyphname = r;
layers = (
{
anchors = (
{
name = bottom;
position = "{172, 0}";
},
{
name = top;
position = "{210, 429}";
}
);
layerId = UUID0;
paths = (
{
closed = 1;
nodes = (
"52 443 LINE",
"31 381 LINE",
"127 348 LINE",
"127 62 LINE",
"43 62 LINE",
"43 0 LINE",
"303 0 LINE",
"303 62 LINE",
"205 62 LINE",
"205 345 LINE",
"241 366 OFFCURVE",
"287 379 OFFCURVE",
"328 379 CURVE",
"338 323 LINE",
"403 337 LINE",
"386 442 LINE",
"385 443 OFFCURVE",
"371 444 OFFCURVE",
"348 444 CURVE SMOOTH",
"291 444 OFFCURVE",
"230 427 OFFCURVE",
"185 397 CURVE"
);
}
);
width = 428;
},
{
anchors = (
{
name = bottom;
position = "{184, 0}";
},
{
name = top;
position = "{245, 454}";
}
);
background = {
paths = (
{
closed = 1;
nodes = (
"49 381 LINE",
"145 348 LINE",
"145 62 LINE",
"61 62 LINE",
"61 0 LINE",
"320 0 LINE",
"320 62 LINE",
"223 62 LINE",
"223 345 LINE",
"223 345 OFFCURVE",
"281 379 OFFCURVE",
"346 379 CURVE",
"356 323 LINE",
"421 337 LINE",
"403 442 LINE",
"403 442 OFFCURVE",
"401 444 OFFCURVE",
"366 444 CURVE SMOOTH",
"284 444 OFFCURVE",
"223 410 OFFCURVE",
"203 397 CURVE",
"70 443 LINE"
);
}
);
};
layerId = "6E1B38A8-44EA-440A-BD04-FE41D2B0BC62";
paths = (
{
closed = 1;
nodes = (
"68 464 LINE",
"35 362 LINE",
"131 330 LINE",
"131 101 LINE",
"47 101 LINE",
"47 0 LINE",
"355 0 LINE",
"355 101 LINE",
"257 101 LINE",
"258 318 LINE",
"280 336 OFFCURVE",
"317 350 OFFCURVE",
"363 355 CURVE",
"373 301 LINE",
"478 323 LINE",
"461 454 LINE",
"432 465 OFFCURVE",
"405 471 OFFCURVE",
"378 471 CURVE SMOOTH",
"329 471 OFFCURVE",
"280 452 OFFCURVE",
"221 414 CURVE"
);
}
);
width = 507;
}
);
leftKerningGroup = n;
rightKerningGroup = r;
unicode = 0072;
},
{
color = 1;
glyphname = s;
layers = (
{
anchors = (
{
name = bottom;
position = "{228, 0}";
},
{
name = top;
position = "{228, 429}";
}
);
background = {
paths = (
{
closed = 1;
nodes = (
"408 321 LINE",
"392 410 LINE",
"392 410 OFFCURVE",
"319 444 OFFCURVE",
"212 444 CURVE SMOOTH",
"102 444 OFFCURVE",
"42 393 OFFCURVE",
"42 323 CURVE SMOOTH",
"42 250 OFFCURVE",
"82 196 OFFCURVE",
"181 186 CURVE SMOOTH",
"282 176 LINE SMOOTH",
"325 171 OFFCURVE",
"345 151 OFFCURVE",
"345 122 CURVE SMOOTH",
"345 75 OFFCURVE",
"307 49 OFFCURVE",
"231 49 CURVE SMOOTH",
"180 49 OFFCURVE",
"140 62 OFFCURVE",
"115 75 CURVE",
"103 137 LINE",
"38 123 LINE",
"54 34 LINE",
"54 34 OFFCURVE",
"140 -15 OFFCURVE",
"233 -15 CURVE SMOOTH",
"340 -15 OFFCURVE",
"418 32 OFFCURVE",
"418 122 CURVE SMOOTH",
"418 208 OFFCURVE",
"356 248 OFFCURVE",
"279 256 CURVE SMOOTH",
"191 265 LINE SMOOTH",
"137 271 OFFCURVE",
"114 283 OFFCURVE",
"114 323 CURVE SMOOTH",
"114 367 OFFCURVE",
"159 380 OFFCURVE",
"206 380 CURVE SMOOTH",
"273 380 OFFCURVE",
"313 369 OFFCURVE",
"333 362 CURVE",
"344 307 LINE"
);
}
);
};
layerId = UUID0;
paths = (
{
closed = 1;
nodes = (
"344 301 LINE",
"408 315 LINE",
"389 409 LINE",
"343 432 OFFCURVE",
"295 445 OFFCURVE",
"230 445 CURVE SMOOTH",
"143 445 OFFCURVE",
"58 406 OFFCURVE",
"58 318 CURVE SMOOTH",
"58 250 OFFCURVE",
"105 201 OFFCURVE",
"207 190 CURVE SMOOTH",
"252 185 LINE SMOOTH",
"320 178 OFFCURVE",
"345 160 OFFCURVE",
"345 120 CURVE SMOOTH",
"345 75 OFFCURVE",
"291 51 OFFCURVE",
"230 51 CURVE SMOOTH",
"192 51 OFFCURVE",
"152 60 OFFCURVE",
"120 78 CURVE",
"105 148 LINE",
"35 131 LINE",
"53 37 LINE",
"102 7 OFFCURVE",
"166 -15 OFFCURVE",
"233 -15 CURVE SMOOTH",
"344 -15 OFFCURVE",
"418 40 OFFCURVE",
"418 122 CURVE SMOOTH",
"418 193 OFFCURVE",
"379 241 OFFCURVE",
"266 252 CURVE SMOOTH",
"224 256 LINE SMOOTH",
"161 262 OFFCURVE",
"130 283 OFFCURVE",
"130 323 CURVE SMOOTH",
"130 364 OFFCURVE",
"176 385 OFFCURVE",
"229 385 CURVE SMOOTH",
"274 385 OFFCURVE",
"297 378 OFFCURVE",
"327 366 CURVE"
);
}
);
width = 460;
},
{
anchors = (
{
name = bottom;
position = "{239, 0}";
},
{
name = top;
position = "{239, 454}";
}
);
background = {
paths = (
{
closed = 1;
nodes = (
"415 321 LINE",
"396 415 LINE",
"349 438 OFFCURVE",
"311 444 OFFCURVE",
"228 444 CURVE SMOOTH",
"114 444 OFFCURVE",
"49 396 OFFCURVE",
"49 318 CURVE SMOOTH",
"49 233 OFFCURVE",
"89 200 OFFCURVE",
"188 190 CURVE SMOOTH",
"288 180 LINE SMOOTH",
"332 175 OFFCURVE",
"351 151 OFFCURVE",
"351 122 CURVE SMOOTH",
"351 75 OFFCURVE",
"314 49 OFFCURVE",
"237 49 CURVE SMOOTH",
"196 49 OFFCURVE",
"156 52 OFFCURVE",
"121 70 CURVE",
"110 137 LINE",
"45 123 LINE",
"63 19 LINE",
"114 -8 OFFCURVE",
"173 -15 OFFCURVE",
"239 -15 CURVE SMOOTH",
"346 -15 OFFCURVE",
"424 32 OFFCURVE",
"424 122 CURVE SMOOTH",
"424 208 OFFCURVE",
"378 246 OFFCURVE",
"285 256 CURVE SMOOTH",
"197 265 LINE SMOOTH",
"143 271 OFFCURVE",
"120 283 OFFCURVE",
"120 323 CURVE SMOOTH",
"120 366 OFFCURVE",
"156 380 OFFCURVE",
"235 380 CURVE SMOOTH",
"281 380 OFFCURVE",
"320 369 OFFCURVE",
"340 362 CURVE",
"350 307 LINE"
);
}
);
};
layerId = "6E1B38A8-44EA-440A-BD04-FE41D2B0BC62";
paths = (
{
closed = 1;
nodes = (
"334 322 LINE",
"428 338 LINE",
"412 435 LINE",
"364 459 OFFCURVE",
"318 473 OFFCURVE",
"245 473 CURVE SMOOTH",
"130 473 OFFCURVE",
"53 415 OFFCURVE",
"53 327 CURVE SMOOTH",
"53 250 OFFCURVE",
"111 205 OFFCURVE",
"204 191 CURVE SMOOTH",
"265 180 LINE",
"319 173 OFFCURVE",
"331 154 OFFCURVE",
"331 131 CURVE SMOOTH",
"331 96 OFFCURVE",
"289 79 OFFCURVE",
"239 79 CURVE SMOOTH",
"209 79 OFFCURVE",
"181 85 OFFCURVE",
"152 97 CURVE",
"143 146 LINE",
"38 130 LINE",
"56 24 LINE",
"108 -5 OFFCURVE",
"165 -21 OFFCURVE",
"245 -21 CURVE SMOOTH",
"347 -21 OFFCURVE",
"444 25 OFFCURVE",
"444 134 CURVE SMOOTH",
"444 213 OFFCURVE",
"398 255 OFFCURVE",
"300 270 CURVE SMOOTH",
"233 280 LINE SMOOTH",
"177 289 OFFCURVE",
"161 306 OFFCURVE",
"161 333 CURVE SMOOTH",
"161 365 OFFCURVE",
"199 381 OFFCURVE",
"240 381 CURVE SMOOTH",
"273 381 OFFCURVE",
"304 373 OFFCURVE",
"326 358 CURVE"
);
}
);
width = 483;
}
);
leftKerningGroup = s;
rightKerningGroup = s;
unicode = 0073;
},
{
color = 1;
glyphname = germandbls;
layers = (
{
layerId = UUID0;
paths = (
{
closed = 1;
nodes = (
"131 429 LINE",
"47 429 LINE",
"47 367 LINE",
"131 367 LINE",
"131 62 LINE",
"47 62 LINE",
"47 0 LINE",
"209 0 LINE",
"209 457 LINE SMOOTH",
"209 546 OFFCURVE",
"237 578 OFFCURVE",
"315 578 CURVE SMOOTH",
"363 578 OFFCURVE",
"401 550 OFFCURVE",
"401 514 CURVE SMOOTH",
"401 444 OFFCURVE",
"288 438 OFFCURVE",
"288 324 CURVE SMOOTH",
"288 270 OFFCURVE",
"335 221 OFFCURVE",
"410 195 CURVE SMOOTH",
"467 175 OFFCURVE",
"491 151 OFFCURVE",
"491 112 CURVE SMOOTH",
"491 75 OFFCURVE",
"463 49 OFFCURVE",
"422 49 CURVE SMOOTH",
"394 49 OFFCURVE",
"365 59 OFFCURVE",
"352 73 CURVE",
"342 132 LINE",
"277 118 LINE",
"293 29 LINE",
"317 4 OFFCURVE",
"371 -15 OFFCURVE",
"421 -15 CURVE SMOOTH",
"504 -15 OFFCURVE",
"563 38 OFFCURVE",
"563 112 CURVE SMOOTH",
"563 187 OFFCURVE",
"527 235 OFFCURVE",
"450 263 CURVE SMOOTH",
"386 286 OFFCURVE",
"366 302 OFFCURVE",
"366 331 CURVE SMOOTH",
"366 391 OFFCURVE",
"475 415 OFFCURVE",
"475 514 CURVE SMOOTH",
"475 593 OFFCURVE",
"412 642 OFFCURVE",
"310 642 CURVE SMOOTH",
"187 642 OFFCURVE",
"131 589 OFFCURVE",
"131 473 CURVE SMOOTH"
);
}
);
width = 594;
},
{
background = {
paths = (
{
closed = 1;
nodes = (
"88 0 LINE",
"250 0 LINE",
"250 457 LINE SMOOTH",
"250 537 OFFCURVE",
"270 578 OFFCURVE",
"356 578 CURVE SMOOTH",
"413 578 OFFCURVE",
"442 543 OFFCURVE",
"442 514 CURVE SMOOTH",
"442 444 OFFCURVE",
"329 438 OFFCURVE",
"329 324 CURVE SMOOTH",
"329 270 OFFCURVE",
"376 221 OFFCURVE",
"451 195 CURVE SMOOTH",
"489 182 OFFCURVE",
"532 164 OFFCURVE",
"532 112 CURVE SMOOTH",
"532 75 OFFCURVE",
"504 49 OFFCURVE",
"463 49 CURVE SMOOTH",
"414 49 OFFCURVE",
"393 73 OFFCURVE",
"393 73 CURVE",
"383 132 LINE",
"318 118 LINE",
"334 29 LINE",
"334 29 OFFCURVE",
"377 -15 OFFCURVE",
"462 -15 CURVE SMOOTH",
"538 -15 OFFCURVE",
"604 31 OFFCURVE",
"604 112 CURVE SMOOTH",
"604 198 OFFCURVE",
"557 239 OFFCURVE",
"491 263 CURVE SMOOTH",
"438 282 OFFCURVE",
"407 297 OFFCURVE",
"407 331 CURVE SMOOTH",
"407 391 OFFCURVE",
"516 415 OFFCURVE",
"516 514 CURVE SMOOTH",
"516 588 OFFCURVE",
"459 642 OFFCURVE",
"351 642 CURVE SMOOTH",
"223 642 OFFCURVE",
"172 585 OFFCURVE",
"172 473 CURVE SMOOTH",
"172 429 LINE",
"88 429 LINE",
"88 367 LINE",
"172 367 LINE",
"172 62 LINE",
"88 62 LINE"
);
}
);
};
layerId = "6E1B38A8-44EA-440A-BD04-FE41D2B0BC62";
paths = (
{
closed = 1;
nodes = (
"64 454 LINE",
"64 343 LINE",
"148 343 LINE",
"148 112 LINE",
"64 112 LINE",
"64 0 LINE",
"275 0 LINE",
"275 457 LINE SMOOTH",
"275 543 OFFCURVE",
"296 573 OFFCURVE",
"356 573 CURVE SMOOTH",
"408 573 OFFCURVE",
"438 551 OFFCURVE",
"438 514 CURVE SMOOTH",
"438 443 OFFCURVE",
"313 433 OFFCURVE",
"313 324 CURVE SMOOTH",
"313 263 OFFCURVE",
"337 235 OFFCURVE",
"423 194 CURVE SMOOTH",
"468 173 OFFCURVE",
"493 147 OFFCURVE",
"493 120 CURVE SMOOTH",
"493 94 OFFCURVE",
"472 76 OFFCURVE",
"442 76 CURVE SMOOTH",
"423 76 OFFCURVE",
"405 81 OFFCURVE",
"396 89 CURVE",
"387 139 LINE",
"292 120 LINE",
"308 33 LINE",
"331 4 OFFCURVE",
"388 -17 OFFCURVE",
"443 -17 CURVE SMOOTH",
"542 -17 OFFCURVE",
"609 43 OFFCURVE",
"609 130 CURVE SMOOTH",
"609 187 OFFCURVE",
"571 233 OFFCURVE",
"494 270 CURVE SMOOTH",
"443 293 OFFCURVE",
"427 309 OFFCURVE",
"427 336 CURVE SMOOTH",
"427 392 OFFCURVE",
"550 401 OFFCURVE",
"550 514 CURVE SMOOTH",
"550 606 OFFCURVE",
"470 667 OFFCURVE",
"351 667 CURVE SMOOTH",
"207 667 OFFCURVE",
"148 605 OFFCURVE",
"148 454 CURVE"
);
}
);
width = 655;
}
);
leftKerningGroup = f;
rightKerningGroup = germandbls;
unicode = 00DF;
},
{
color = 1;
glyphname = t;
layers = (
{
anchors = (
{
name = bottom;
position = "{175, 0}";
},
{
name = center;
position = "{175, 285}";
},
{
name = top;
position = "{153, 530}";
},
{
name = topright;
position = "{338, 589}";
}
);
layerId = UUID0;
paths = (
{
closed = 1;
nodes = (
"278 -15 OFFCURVE",
"309 -5 OFFCURVE",
"337 6 CURVE",
"322 62 LINE",
"294 49 OFFCURVE",
"275 44 OFFCURVE",
"252 44 CURVE SMOOTH",
"193 44 OFFCURVE",
"182 104 OFFCURVE",
"182 193 CURVE SMOOTH",
"182 367 LINE",
"307 367 LINE",
"307 429 LINE",
"182 429 LINE",
"182 544 LINE",
"106 526 LINE",
"106 429 LINE",
"23 429 LINE",
"23 367 LINE",
"106 367 LINE",
"106 149 LINE SMOOTH",
"106 20 OFFCURVE",
"175 -15 OFFCURVE",
"247 -15 CURVE SMOOTH"
);
}
);
width = 363;
},
{
anchors = (
{
name = bottom;
position = "{207, 0}";
},
{
name = center;
position = "{187, 270}";
},
{
name = top;
position = "{177, 545}";
},
{
name = topright;
position = "{384, 589}";
}
);
background = {
paths = (
{
closed = 1;
nodes = (
"329 429 LINE",
"204 429 LINE",
"204 534 LINE",
"128 516 LINE",
"128 429 LINE",
"45 429 LINE",
"45 367 LINE",
"128 367 LINE",
"128 149 LINE SMOOTH",
"128 39 OFFCURVE",
"184 -15 OFFCURVE",
"276 -15 CURVE SMOOTH",
"315 -15 OFFCURVE",
"344 -4 OFFCURVE",
"344 -4 CURVE",
"329 52 LINE",
"328 52 OFFCURVE",
"306 47 OFFCURVE",
"280 47 CURVE",
"200 52 OFFCURVE",
"204 139 OFFCURVE",
"204 193 CURVE SMOOTH",
"204 367 LINE",
"329 367 LINE"
);
}
);
};
layerId = "6E1B38A8-44EA-440A-BD04-FE41D2B0BC62";
paths = (
{
closed = 1;
nodes = (
"321 -20 OFFCURVE",
"360 -6 OFFCURVE",
"392 10 CURVE",
"368 104 LINE",
"343 91 OFFCURVE",
"321 84 OFFCURVE",
"303 84 CURVE SMOOTH",
"259 84 OFFCURVE",
"237 123 OFFCURVE",
"237 195 CURVE SMOOTH",
"237 353 LINE",
"357 353 LINE",
"357 454 LINE",
"237 454 LINE",
"237 574 LINE",
"111 535 LINE",
"111 454 LINE",
"28 454 LINE",
"28 353 LINE",
"111 353 LINE",
"111 167 LINE SMOOTH",
"111 41 OFFCURVE",
"177 -20 OFFCURVE",
"284 -20 CURVE SMOOTH"
);
}
);
width = 420;
}
);
leftKerningGroup = t;
rightKerningGroup = t;
unicode = 0074;
},
{
color = 1;
glyphname = u;
layers = (
{
anchors = (
{
name = bottom;
position = "{306, 0}";
},
{
name = ogonek;
position = "{547, 10}";
},
{
name = top;
position = "{294, 429}";
},
{
name = topright;
position = "{495, 429}";
}
);
layerId = UUID0;
paths = (
{
closed = 1;
nodes = (
"569 -18 LINE",
"589 46 LINE",
"495 78 LINE",
"495 429 LINE",
"333 429 LINE",
"333 367 LINE",
"417 367 LINE",
"417 83 LINE",
"387 63 OFFCURVE",
"334 49 OFFCURVE",
"291 49 CURVE SMOOTH",
"217 49 OFFCURVE",
"185 85 OFFCURVE",
"185 170 CURVE SMOOTH",
"185 429 LINE",
"23 429 LINE",
"23 367 LINE",
"107 367 LINE",
"107 154 LINE SMOOTH",
"107 38 OFFCURVE",
"163 -15 OFFCURVE",
"286 -15 CURVE SMOOTH",
"332 -15 OFFCURVE",
"390 2 OFFCURVE",
"433 29 CURVE"
);
}
);
width = 609;
},
{
anchors = (
{
name = bottom;
position = "{326, 0}";
},
{
name = ogonek;
position = "{571, 10}";
},
{
name = top;
position = "{312, 454}";
},
{
name = topright;
position = "{541, 454}";
}
);
background = {
paths = (
{
closed = 1;
nodes = (
"344 367 LINE",
"428 367 LINE",
"428 83 LINE",
"428 83 OFFCURVE",
"374 49 OFFCURVE",
"302 49 CURVE SMOOTH",
"216 49 OFFCURVE",
"196 99 OFFCURVE",
"196 170 CURVE SMOOTH",
"196 429 LINE",
"34 429 LINE",
"34 367 LINE",
"118 367 LINE",
"118 154 LINE SMOOTH",
"118 42 OFFCURVE",
"169 -15 OFFCURVE",
"297 -15 CURVE SMOOTH",
"364 -15 OFFCURVE",
"421 15 OFFCURVE",
"444 29 CURVE",
"581 -18 LINE",
"601 46 LINE",
"506 78 LINE",
"506 429 LINE",
"344 429 LINE"
);
}
);
};
layerId = "6E1B38A8-44EA-440A-BD04-FE41D2B0BC62";
paths = (
{
closed = 1;
nodes = (
"593 -22 LINE",
"628 88 LINE",
"541 118 LINE",
"541 454 LINE",
"338 454 LINE",
"338 353 LINE",
"414 353 LINE",
"414 117 LINE",
"380 103 OFFCURVE",
"338 93 OFFCURVE",
"312 93 CURVE SMOOTH",
"255 93 OFFCURVE",
"231 121 OFFCURVE",
"231 188 CURVE SMOOTH",
"231 454 LINE",
"28 454 LINE",
"28 353 LINE",
"104 353 LINE",
"104 171 LINE SMOOTH",
"104 39 OFFCURVE",
"167 -20 OFFCURVE",
"308 -20 CURVE SMOOTH",
"355 -20 OFFCURVE",
"411 -4 OFFCURVE",
"457 22 CURVE"
);
}
);
width = 652;
}
);
leftKerningGroup = u;
rightKerningGroup = u;
unicode = 0075;
},
{
glyphname = uacute;
layers = (
{
background = {
paths = (
{
closed = 1;
nodes = (
"257 512 LINE",
"275 480 LINE",
"508 586 LINE",
"473 652 LINE"
);
}
);
};
components = (
{
name = u;
},
{
name = acutecomb;
transform = "{1, 0, 0, 1, 196, 0}";
}
);
layerId = UUID0;
width = 615;
},
{
components = (
{
name = u;
},
{
name = acutecomb;
transform = "{1, 0, 0, 1, 242, 0}";
}
);
layerId = "6E1B38A8-44EA-440A-BD04-FE41D2B0BC62";
width = 677;
}
);
leftKerningGroup = u;
rightKerningGroup = u;
unicode = 00FA;
},
{
glyphname = ugrave;
layers = (
{
background = {
paths = (
{
closed = 1;
nodes = (
"76 652 LINE",
"41 586 LINE",
"274 480 LINE",
"292 512 LINE"
);
}
);
};
components = (
{
name = u;
},
{
name = gravecomb;
transform = "{1, 0, 0, 1, 97, 0}";
}
);
layerId = UUID0;
width = 615;
},
{
components = (
{
name = u;
},
{
name = gravecomb;
transform = "{1, 0, 0, 1, 95, 0}";
}
);
layerId = "6E1B38A8-44EA-440A-BD04-FE41D2B0BC62";
width = 677;
}
);
leftKerningGroup = u;
rightKerningGroup = u;
unicode = 00F9;
},
{
color = 1;
glyphname = v;
layers = (
{
anchors = (
{
name = bottom;
position = "{288, 0}";
},
{
name = top;
position = "{288, 429}";
}
);
background = {
paths = (
{
closed = 1;
nodes = (
"2 367 LINE",
"85 367 LINE",
"244 0 LINE",
"325 0 LINE",
"489 367 LINE",
"574 367 LINE",
"574 429 LINE",
"374 429 LINE",
"374 367 LINE",
"418 367 LINE",
"292 69 LINE",
"166 367 LINE",
"212 367 LINE",
"212 429 LINE",
"2 429 LINE"
);
}
);
};
layerId = UUID0;
paths = (
{
closed = 1;
nodes = (
"2 367 LINE",
"85 367 LINE",
"244 0 LINE",
"332 0 LINE",
"496 367 LINE",
"574 367 LINE",
"574 429 LINE",
"374 429 LINE",
"374 367 LINE",
"418 367 LINE",
"328 154 LINE",
"292 69 LINE",
"256 154 LINE",
"166 367 LINE",
"212 367 LINE",
"212 429 LINE",
"2 429 LINE"
);
}
);
width = 576;
},
{
anchors = (
{
name = bottom;
position = "{301, 0}";
},
{
name = top;
position = "{301, 454}";
}
);
background = {
paths = (
{
closed = 1;
nodes = (
"3 367 LINE",
"86 367 LINE",
"245 0 LINE",
"333 0 LINE",
"497 367 LINE",
"575 367 LINE",
"575 429 LINE",
"375 429 LINE",
"375 367 LINE",
"419 367 LINE",
"293 69 LINE",
"167 367 LINE",
"213 367 LINE",
"213 429 LINE",
"3 429 LINE"
);
}
);
};
layerId = "6E1B38A8-44EA-440A-BD04-FE41D2B0BC62";
paths = (
{
closed = 1;
nodes = (
"6 353 LINE",
"76 353 LINE",
"233 0 LINE",
"371 0 LINE",
"533 353 LINE",
"596 353 LINE",
"596 454 LINE",
"342 454 LINE",
"342 353 LINE",
"400 353 LINE",
"338 206 LINE",
"301 110 LINE",
"265 206 LINE",
"204 353 LINE",
"261 353 LINE",
"261 454 LINE",
"5 454 LINE"
);
}
);
width = 602;
}
);
leftKerningGroup = v;
rightKerningGroup = v;
unicode = 0076;
},
{
color = 1;
glyphname = w;
layers = (
{
anchors = (
{
name = bottom;
position = "{374, 0}";
},
{
name = top;
position = "{374, 429}";
}
);
layerId = UUID0;
paths = (
{
closed = 1;
nodes = (
"2 367 LINE",
"86 367 LINE",
"206 0 LINE",
"284 0 LINE",
"374 270 LINE",
"461 0 LINE",
"537 0 LINE",
"654 367 LINE",
"739 367 LINE",
"739 429 LINE",
"533 429 LINE",
"533 367 LINE",
"587 367 LINE",
"498 90 LINE",
"412 368 LINE",
"336 368 LINE",
"251 92 LINE",
"163 367 LINE",
"228 367 LINE",
"228 429 LINE",
"2 429 LINE"
);
}
);
width = 741;
},
{
anchors = (
{
name = bottom;
position = "{400, 0}";
},
{
name = top;
position = "{400, 454}";
}
);
background = {
paths = (
{
closed = 1;
nodes = (
"-5 367 LINE",
"79 367 LINE",
"215 0 LINE",
"292 0 LINE",
"389 270 LINE",
"479 0 LINE",
"555 0 LINE",
"694 367 LINE",
"779 367 LINE",
"779 429 LINE",
"583 429 LINE",
"583 367 LINE",
"627 367 LINE",
"524 90 LINE",
"432 368 LINE",
"357 368 LINE",
"258 92 LINE",
"156 367 LINE",
"201 367 LINE",
"201 429 LINE",
"-5 429 LINE"
);
}
);
};
layerId = "6E1B38A8-44EA-440A-BD04-FE41D2B0BC62";
paths = (
{
closed = 1;
nodes = (
"6 353 LINE",
"64 353 LINE",
"181 0 LINE",
"324 0 LINE",
"405 258 LINE",
"478 0 LINE",
"613 0 LINE",
"747 353 LINE",
"803 353 LINE",
"803 454 LINE",
"557 454 LINE",
"557 353 LINE",
"621 353 LINE",
"579 206 LINE",
"552 97 LINE",
"527 206 LINE",
"471 387 LINE",
"343 387 LINE",
"287 206 LINE",
"262 98 LINE",
"234 206 LINE",
"198 353 LINE",
"252 353 LINE",
"252 454 LINE",
"6 454 LINE"
);
}
);
width = 809;
}
);
leftKerningGroup = v;
rightKerningGroup = v;
unicode = 0077;
},
{
color = 1;
glyphname = x;
layers = (
{
anchors = (
{
name = bottom;
position = "{295, 0}";
},
{
name = top;
position = "{295, 429}";
}
);
layerId = UUID0;
paths = (
{
closed = 1;
nodes = (
"237 0 LINE",
"237 62 LINE",
"193 62 LINE",
"285 171 LINE",
"389 62 LINE",
"344 62 LINE",
"344 0 LINE",
"572 0 LINE",
"572 62 LINE",
"488 62 LINE",
"347 210 LINE",
"479 367 LINE",
"554 367 LINE",
"554 429 LINE",
"354 429 LINE",
"354 367 LINE",
"398 367 LINE",
"305 254 LINE",
"198 367 LINE",
"252 367 LINE",
"252 429 LINE",
"25 429 LINE",
"25 367 LINE",
"100 367 LINE",
"242 217 LINE",
"112 62 LINE",
"25 62 LINE",
"25 0 LINE"
);
}
);
width = 591;
},
{
anchors = (
{
name = bottom;
position = "{322, 0}";
},
{
name = top;
position = "{322, 454}";
}
);
background = {
paths = (
{
closed = 1;
nodes = (
"361 0 LINE",
"589 0 LINE",
"589 62 LINE",
"505 62 LINE",
"364 210 LINE",
"496 367 LINE",
"571 367 LINE",
"571 429 LINE",
"371 429 LINE",
"371 367 LINE",
"415 367 LINE",
"322 254 LINE",
"215 367 LINE",
"269 367 LINE",
"269 429 LINE",
"42 429 LINE",
"42 367 LINE",
"117 367 LINE",
"259 217 LINE",
"129 62 LINE",
"42 62 LINE",
"42 0 LINE",
"254 0 LINE",
"254 62 LINE",
"210 62 LINE",
"302 171 LINE",
"406 62 LINE",
"361 62 LINE"
);
}
);
};
layerId = "6E1B38A8-44EA-440A-BD04-FE41D2B0BC62";
paths = (
{
closed = 1;
nodes = (
"35 353 LINE",
"116 353 LINE",
"240 234 LINE",
"120 101 LINE",
"35 101 LINE",
"35 0 LINE",
"289 0 LINE",
"289 101 LINE",
"250 101 LINE",
"317 171 LINE",
"387 101 LINE",
"346 101 LINE",
"346 0 LINE",
"602 0 LINE",
"602 101 LINE",
"525 101 LINE",
"395 225 LINE",
"509 353 LINE",
"585 353 LINE",
"585 454 LINE",
"344 454 LINE",
"344 353 LINE",
"379 353 LINE",
"318 290 LINE",
"260 353 LINE",
"289 353 LINE",
"289 454 LINE",
"35 454 LINE"
);
}
);
width = 630;
}
);
leftKerningGroup = x;
rightKerningGroup = x;
unicode = 0078;
},
{
color = 1;
glyphname = y;
layers = (
{
anchors = (
{
name = bottom;
position = "{484, 0}";
},
{
name = top;
position = "{305, 429}";
}
);
background = {
paths = (
{
closed = 1;
nodes = (
"23 367 LINE",
"94 367 LINE",
"274 -66 LINE",
"266 -89 LINE SMOOTH",
"244 -152 OFFCURVE",
"208 -162 OFFCURVE",
"186 -162 CURVE SMOOTH",
"167 -162 OFFCURVE",
"131 -153 OFFCURVE",
"131 -153 CURVE",
"118 -213 LINE SMOOTH",
"118 -214 OFFCURVE",
"153 -223 OFFCURVE",
"182 -223 CURVE SMOOTH",
"257 -223 OFFCURVE",
"298 -183 OFFCURVE",
"328 -99 CURVE SMOOTH",
"494 367 LINE",
"574 367 LINE",
"574 429 LINE",
"374 429 LINE",
"374 367 LINE",
"429 367 LINE",
"309 29 LINE",
"174 367 LINE",
"231 367 LINE",
"231 429 LINE",
"23 429 LINE"
);
}
);
};
layerId = UUID0;
paths = (
{
closed = 1;
nodes = (
"502 367 LINE",
"574 367 LINE",
"574 429 LINE",
"374 429 LINE",
"374 367 LINE",
"429 367 LINE",
"310 24 LINE",
"174 367 LINE",
"231 367 LINE",
"231 429 LINE",
"23 429 LINE",
"23 367 LINE",
"94 367 LINE",
"274 -66 LINE",
"251 -132 OFFCURVE",
"231 -161 OFFCURVE",
"178 -161 CURVE SMOOTH",
"163 -161 OFFCURVE",
"147 -158 OFFCURVE",
"130 -153 CURVE",
"118 -213 LINE",
"142 -221 OFFCURVE",
"164 -224 OFFCURVE",
"184 -224 CURVE SMOOTH",
"258 -224 OFFCURVE",
"309 -175 OFFCURVE",
"339 -90 CURVE SMOOTH"
);
}
);
width = 597;
},
{
anchors = (
{
name = bottom;
position = "{502, 0}";
},
{
name = top;
position = "{336, 454}";
}
);
background = {
paths = (
{
closed = 1;
nodes = (
"42 367 LINE",
"113 367 LINE",
"293 -66 LINE",
"285 -89 LINE SMOOTH",
"263 -152 OFFCURVE",
"227 -162 OFFCURVE",
"205 -162 CURVE SMOOTH",
"186 -162 OFFCURVE",
"150 -153 OFFCURVE",
"150 -153 CURVE",
"137 -213 LINE",
"137 -214 OFFCURVE",
"172 -223 OFFCURVE",
"201 -223 CURVE SMOOTH",
"276 -223 OFFCURVE",
"325 -183 OFFCURVE",
"355 -99 CURVE SMOOTH",
"521 367 LINE",
"593 367 LINE",
"593 429 LINE",
"393 429 LINE",
"393 367 LINE",
"448 367 LINE",
"328 29 LINE",
"193 367 LINE",
"250 367 LINE",
"250 429 LINE",
"42 429 LINE"
);
}
);
};
layerId = "6E1B38A8-44EA-440A-BD04-FE41D2B0BC62";
paths = (
{
closed = 1;
nodes = (
"549 353 LINE",
"632 353 LINE",
"632 454 LINE",
"384 454 LINE",
"384 353 LINE",
"424 353 LINE",
"340 70 LINE",
"240 353 LINE",
"285 353 LINE",
"285 454 LINE",
"28 454 LINE",
"28 353 LINE",
"107 353 LINE",
"277 -67 LINE",
"258 -121 OFFCURVE",
"236 -144 OFFCURVE",
"202 -144 CURVE SMOOTH",
"185 -144 OFFCURVE",
"166 -138 OFFCURVE",
"142 -128 CURVE",
"118 -227 LINE",
"152 -242 OFFCURVE",
"184 -249 OFFCURVE",
"214 -249 CURVE SMOOTH",
"292 -249 OFFCURVE",
"356 -200 OFFCURVE",
"391 -98 CURVE SMOOTH"
);
}
);
width = 660;
}
);
leftKerningGroup = y;
rightKerningGroup = y;
unicode = 0079;
},
{
glyphname = yacute;
layers = (
{
background = {
paths = (
{
closed = 1;
nodes = (
"250 512 LINE",
"268 480 LINE",
"501 586 LINE",
"466 652 LINE"
);
}
);
};
components = (
{
name = y;
},
{
name = acutecomb;
transform = "{1, 0, 0, 1, 192, 0}";
}
);
layerId = UUID0;
width = 580;
},
{
components = (
{
name = y;
},
{
name = acutecomb;
transform = "{1, 0, 0, 1, 265, 0}";
}
);
layerId = "6E1B38A8-44EA-440A-BD04-FE41D2B0BC62";
width = 684;
}
);
leftKerningGroup = y;
rightKerningGroup = y;
unicode = 00FD;
},
{
color = 1;
glyphname = z;
layers = (
{
anchors = (
{
name = bottom;
position = "{225, 0}";
},
{
name = top;
position = "{225, 429}";
}
);
layerId = UUID0;
paths = (
{
closed = 1;
nodes = (
"38 325 LINE",
"103 311 LINE",
"114 367 LINE",
"312 367 LINE",
"42 53 LINE",
"42 0 LINE",
"398 0 LINE",
"419 110 LINE",
"352 122 LINE",
"342 62 LINE",
"125 62 LINE",
"397 379 LINE",
"397 429 LINE",
"57 429 LINE"
);
}
);
width = 452;
},
{
anchors = (
{
name = bottom;
position = "{258, 0}";
},
{
name = top;
position = "{258, 454}";
}
);
background = {
paths = (
{
closed = 1;
nodes = (
"120 311 LINE",
"131 367 LINE",
"323 367 LINE",
"59 53 LINE",
"59 0 LINE",
"415 0 LINE",
"436 110 LINE",
"369 122 LINE",
"359 62 LINE",
"149 62 LINE",
"414 379 LINE",
"414 429 LINE",
"75 429 LINE",
"56 325 LINE"
);
}
);
};
layerId = "6E1B38A8-44EA-440A-BD04-FE41D2B0BC62";
paths = (
{
closed = 1;
nodes = (
"36 317 LINE",
"149 295 LINE",
"161 353 LINE",
"301 353 LINE",
"54 86 LINE",
"54 0 LINE",
"453 0 LINE",
"483 143 LINE",
"370 164 LINE",
"357 101 LINE",
"198 101 LINE",
"449 371 LINE",
"449 454 LINE",
"64 454 LINE"
);
}
);
width = 515;
}
);
leftKerningGroup = z;
rightKerningGroup = z;
unicode = 007A;
},
{
color = 1;
glyphname = ordfeminine;
layers = (
{
layerId = UUID0;
paths = (
{
closed = 1;
nodes = (
"333 206 LINE",
"289 222 LINE",
"289 325 LINE SMOOTH",
"289 376 OFFCURVE",
"286 444 OFFCURVE",
"173 444 CURVE SMOOTH",
"121 444 OFFCURVE",
"82 426 OFFCURVE",
"82 426 CURVE",
"71 365 LINE",
"118 356 LINE",
"126 390 LINE",
"136 393 OFFCURVE",
"154 397 OFFCURVE",
"175 397 CURVE SMOOTH",
"222 397 OFFCURVE",
"232 379 OFFCURVE",
"232 325 CURVE",
"158 326 LINE SMOOTH",
"101 326 OFFCURVE",
"54 303 OFFCURVE",
"55 244 CURVE SMOOTH",
"55 196 OFFCURVE",
"94 159 OFFCURVE",
"162 159 CURVE SMOOTH",
"197 159 OFFCURVE",
"223 170 OFFCURVE",
"254 186 CURVE",
"318 160 LINE"
);
},
{
closed = 1;
nodes = (
"136 205 OFFCURVE",
"113 218 OFFCURVE",
"113 244 CURVE SMOOTH",
"113 276 OFFCURVE",
"135 281 OFFCURVE",
"160 281 CURVE SMOOTH",
"232 281 LINE",
"232 230 LINE",
"220 220 OFFCURVE",
"197 205 OFFCURVE",
"165 205 CURVE SMOOTH"
);
}
);
width = 390;
},
{
background = {
paths = (
{
closed = 1;
nodes = (
"171 356 LINE",
"179 390 LINE",
"189 393 OFFCURVE",
"207 397 OFFCURVE",
"228 397 CURVE SMOOTH",
"286 397 OFFCURVE",
"285 360 OFFCURVE",
"285 333 CURVE SMOOTH",
"285 326 LINE",
"285 325 LINE",
"211 326 LINE SMOOTH",
"154 326 OFFCURVE",
"107 303 OFFCURVE",
"108 244 CURVE SMOOTH",
"108 196 OFFCURVE",
"147 159 OFFCURVE",
"215 159 CURVE SMOOTH",
"250 159 OFFCURVE",
"279 170 OFFCURVE",
"300 186 CURVE",
"386 157 LINE",
"401 203 LINE",
"383 209 OFFCURVE",
"361 216 OFFCURVE",
"342 222 CURVE",
"342 325 LINE SMOOTH",
"342 376 OFFCURVE",
"339 444 OFFCURVE",
"226 444 CURVE SMOOTH",
"174 444 OFFCURVE",
"135 426 OFFCURVE",
"135 426 CURVE",
"124 365 LINE"
);
},
{
closed = 1;
nodes = (
"189 205 OFFCURVE",
"166 218 OFFCURVE",
"166 244 CURVE SMOOTH",
"166 276 OFFCURVE",
"188 281 OFFCURVE",
"213 281 CURVE SMOOTH",
"285 281 LINE",
"285 230 LINE",
"273 220 OFFCURVE",
"250 205 OFFCURVE",
"218 205 CURVE SMOOTH"
);
}
);
};
layerId = "6E1B38A8-44EA-440A-BD04-FE41D2B0BC62";
paths = (
{
closed = 1;
nodes = (
"429 216 LINE",
"374 234 LINE",
"374 341 LINE SMOOTH",
"374 419 OFFCURVE",
"346 474 OFFCURVE",
"228 474 CURVE SMOOTH",
"178 474 OFFCURVE",
"130 457 OFFCURVE",
"114 451 CURVE",
"100 382 LINE",
"176 367 LINE",
"183 400 LINE",
"199 405 OFFCURVE",
"212 406 OFFCURVE",
"229 406 CURVE SMOOTH",
"276 406 OFFCURVE",
"286 376 OFFCURVE",
"286 338 CURVE",
"218 338 LINE SMOOTH",
"147 338 OFFCURVE",
"88 321 OFFCURVE",
"88 245 CURVE SMOOTH",
"88 183 OFFCURVE",
"139 143 OFFCURVE",
"222 143 CURVE SMOOTH",
"262 143 OFFCURVE",
"293 156 OFFCURVE",
"319 171 CURVE",
"404 142 LINE"
);
},
{
closed = 1;
nodes = (
"201 213 OFFCURVE",
"180 227 OFFCURVE",
"180 246 CURVE SMOOTH",
"180 269 OFFCURVE",
"199 275 OFFCURVE",
"219 275 CURVE SMOOTH",
"286 275 LINE",
"286 234 LINE",
"272 226 OFFCURVE",
"250 213 OFFCURVE",
"225 213 CURVE SMOOTH"
);
}
);
width = 496;
}
);
leftKerningGroup = ordfeminine;
rightKerningGroup = ordfeminine;
unicode = 00AA;
},
{
color = 1;
glyphname = ordmasculine;
layers = (
{
layerId = UUID0;
paths = (
{
closed = 1;
nodes = (
"111 444 OFFCURVE",
"55 392 OFFCURVE",
"55 302 CURVE SMOOTH",
"55 213 OFFCURVE",
"111 161 OFFCURVE",
"190 161 CURVE",
"272 161 OFFCURVE",
"327 213 OFFCURVE",
"327 302 CURVE SMOOTH",
"327 392 OFFCURVE",
"272 444 OFFCURVE",
"190 444 CURVE SMOOTH"
);
},
{
closed = 1;
nodes = (
"243 396 OFFCURVE",
"270 362 OFFCURVE",
"270 302 CURVE SMOOTH",
"270 243 OFFCURVE",
"243 209 OFFCURVE",
"191 209 CURVE SMOOTH",
"139 209 OFFCURVE",
"112 243 OFFCURVE",
"112 302 CURVE SMOOTH",
"112 362 OFFCURVE",
"139 396 OFFCURVE",
"191 396 CURVE"
);
}
);
width = 381;
},
{
background = {
paths = (
{
closed = 1;
nodes = (
"301 161 OFFCURVE",
"356 213 OFFCURVE",
"356 302 CURVE SMOOTH",
"356 392 OFFCURVE",
"301 444 OFFCURVE",
"219 444 CURVE SMOOTH",
"140 444 OFFCURVE",
"84 392 OFFCURVE",
"84 302 CURVE SMOOTH",
"84 213 OFFCURVE",
"140 161 OFFCURVE",
"219 161 CURVE"
);
},
{
closed = 1;
nodes = (
"272 396 OFFCURVE",
"299 362 OFFCURVE",
"299 302 CURVE SMOOTH",
"299 243 OFFCURVE",
"272 209 OFFCURVE",
"220 209 CURVE SMOOTH",
"168 209 OFFCURVE",
"141 243 OFFCURVE",
"141 302 CURVE SMOOTH",
"141 362 OFFCURVE",
"168 396 OFFCURVE",
"220 396 CURVE"
);
}
);
};
layerId = "6E1B38A8-44EA-440A-BD04-FE41D2B0BC62";
paths = (
{
closed = 1;
nodes = (
"128 474 OFFCURVE",
"63 415 OFFCURVE",
"63 311 CURVE SMOOTH",
"63 209 OFFCURVE",
"128 150 OFFCURVE",
"219 150 CURVE SMOOTH",
"318 150 OFFCURVE",
"376 219 OFFCURVE",
"376 311 CURVE SMOOTH",
"376 415 OFFCURVE",
"313 474 OFFCURVE",
"219 474 CURVE SMOOTH"
);
},
{
closed = 1;
nodes = (
"257 390 OFFCURVE",
"278 358 OFFCURVE",
"278 311 CURVE SMOOTH",
"278 265 OFFCURVE",
"257 233 OFFCURVE",
"220 233 CURVE SMOOTH",
"181 233 OFFCURVE",
"162 265 OFFCURVE",
"162 311 CURVE SMOOTH",
"162 358 OFFCURVE",
"181 390 OFFCURVE",
"220 390 CURVE SMOOTH"
);
}
);
width = 439;
}
);
leftKerningGroup = ordfeminine;
rightKerningGroup = ordfeminine;
unicode = 00BA;
},
{
glyphname = "A-cy";
layers = (
{
anchors = (
{
name = top;
position = "{323, 589}";
}
);
components = (
{
name = A;
}
);
layerId = UUID0;
width = 647;
},
{
anchors = (
{
name = top;
position = "{324, 589}";
}
);
background = {
paths = (
{
closed = 1;
nodes = (
"637 69 LINE",
"542 69 LINE",
"361 589 LINE",
"167 589 LINE",
"167 520 LINE",
"268 520 LINE",
"102 69 LINE",
"6 69 LINE",
"6 0 LINE",
"239 0 LINE",
"239 69 LINE",
"175 69 LINE",
"209 160 LINE",
"425 160 LINE",
"457 69 LINE",
"394 69 LINE",
"394 0 LINE",
"637 0 LINE"
);
},
{
closed = 1;
nodes = (
"322 488 LINE",
"401 229 LINE",
"234 229 LINE"
);
},
{
closed = 1;
nodes = (
"266 279 LINE",
"323 470 LINE",
"379 279 LINE"
);
},
{
closed = 1;
nodes = (
"391 589 LINE",
"151 589 LINE",
"151 477 LINE",
"229 477 LINE",
"103 112 LINE",
"4 112 LINE",
"4 0 LINE",
"270 0 LINE",
"270 112 LINE",
"215 112 LINE",
"241 197 LINE",
"403 197 LINE",
"428 112 LINE",
"379 112 LINE",
"379 0 LINE",
"644 0 LINE",
"644 112 LINE",
"556 112 LINE"
);
}
);
};
components = (
{
name = A;
}
);
layerId = "6E1B38A8-44EA-440A-BD04-FE41D2B0BC62";
width = 758;
}
);
leftKerningGroup = A;
rightKerningGroup = A;
unicode = 0410;
},
{
color = 1;
glyphname = "Be-cy";
layers = (
{
layerId = UUID0;
paths = (
{
closed = 1;
nodes = (
"223 332 LINE",
"223 520 LINE",
"422 520 LINE",
"444 426 LINE",
"517 442 LINE",
"486 589 LINE",
"50 589 LINE",
"50 520 LINE",
"145 520 LINE",
"145 69 LINE",
"50 69 LINE",
"50 0 LINE",
"365 0 LINE SMOOTH",
"480 0 OFFCURVE",
"542 64 OFFCURVE",
"542 184 CURVE SMOOTH",
"542 287 OFFCURVE",
"473 340 OFFCURVE",
"345 336 CURVE SMOOTH"
);
},
{
closed = 1;
nodes = (
"222 70 LINE",
"223 263 LINE",
"349 267 LINE SMOOTH",
"419 269 OFFCURVE",
"457 242 OFFCURVE",
"457 176 CURVE SMOOTH",
"457 102 OFFCURVE",
"416 70 OFFCURVE",
"341 70 CURVE SMOOTH"
);
}
);
width = 597;
},
{
background = {
paths = (
{
closed = 1;
nodes = (
"552 442 LINE",
"521 589 LINE",
"85 589 LINE",
"85 520 LINE",
"180 520 LINE",
"180 69 LINE",
"85 69 LINE",
"85 0 LINE",
"400 0 LINE SMOOTH",
"525 0 OFFCURVE",
"577 86 OFFCURVE",
"577 184 CURVE SMOOTH",
"577 311 OFFCURVE",
"477 339 OFFCURVE",
"380 336 CURVE SMOOTH",
"258 332 LINE",
"258 520 LINE",
"457 520 LINE",
"479 426 LINE"
);
},
{
closed = 1;
nodes = (
"384 267 LINE",
"456 269 OFFCURVE",
"492 247 OFFCURVE",
"492 184 CURVE SMOOTH",
"492 113 OFFCURVE",
"449 70 OFFCURVE",
"376 70 CURVE SMOOTH",
"257 70 LINE",
"258 263 LINE"
);
}
);
};
layerId = "6E1B38A8-44EA-440A-BD04-FE41D2B0BC62";
paths = (
{
closed = 1;
nodes = (
"286 355 LINE",
"286 477 LINE",
"352 477 LINE",
"341 589 LINE",
"76 589 LINE",
"76 477 LINE",
"157 477 LINE",
"157 112 LINE",
"76 112 LINE",
"76 0 LINE",
"403 0 LINE SMOOTH",
"534 0 OFFCURVE",
"604 62 OFFCURVE",
"604 176 CURVE SMOOTH",
"604 293 OFFCURVE",
"534 355 OFFCURVE",
"403 355 CURVE SMOOTH"
);
},
{
closed = 1;
nodes = (
"286 112 LINE",
"286 244 LINE",
"386 244 LINE",
"441 244 OFFCURVE",
"471 221 OFFCURVE",
"471 179 CURVE",
"471 135 OFFCURVE",
"439 112 OFFCURVE",
"380 112 CURVE SMOOTH"
);
},
{
closed = 1;
nodes = (
"301 477 LINE",
"446 477 LINE",
"472 400 LINE",
"578 436 LINE",
"526 589 LINE",
"301 589 LINE"
);
}
);
width = 677;
}
);
leftKerningGroup = I;
rightKerningGroup = "Be-cy";
unicode = 0411;
},
{
glyphname = "Ve-cy";
layers = (
{
components = (
{
name = B;
}
);
layerId = UUID0;
width = 600;
},
{
background = {
paths = (
{
closed = 1;
nodes = (
"311 520 LINE",
"376 520 OFFCURVE",
"435 521 OFFCURVE",
"435 434 CURVE SMOOTH",
"435 345 OFFCURVE",
"373 328 OFFCURVE",
"345 328 CURVE SMOOTH",
"220 328 LINE",
"220 520 LINE"
);
},
{
closed = 1;
nodes = (
"344 268 LINE",
"416 268 OFFCURVE",
"454 237 OFFCURVE",
"454 174 CURVE SMOOTH",
"454 103 OFFCURVE",
"411 70 OFFCURVE",
"338 70 CURVE SMOOTH",
"219 70 LINE",
"220 268 LINE"
);
},
{
closed = 1;
nodes = (
"45 589 LINE",
"45 520 LINE",
"140 520 LINE",
"140 69 LINE",
"45 69 LINE",
"45 0 LINE",
"362 0 LINE SMOOTH",
"487 0 OFFCURVE",
"539 76 OFFCURVE",
"539 174 CURVE SMOOTH",
"539 229 OFFCURVE",
"503 283 OFFCURVE",
"449 304 CURVE",
"482 326 OFFCURVE",
"520 379 OFFCURVE",
"520 435 CURVE SMOOTH",
"520 547 OFFCURVE",
"451 589 OFFCURVE",
"300 589 CURVE SMOOTH"
);
},
{
closed = 1;
nodes = (
"317 477 LINE",
"391 477 OFFCURVE",
"417 458 OFFCURVE",
"417 410 CURVE SMOOTH",
"417 355 OFFCURVE",
"372 345 OFFCURVE",
"352 345 CURVE SMOOTH",
"251 345 LINE",
"251 477 LINE"
);
},
{
closed = 1;
nodes = (
"351 244 LINE",
"406 244 OFFCURVE",
"436 228 OFFCURVE",
"436 179 CURVE SMOOTH",
"436 120 OFFCURVE",
"403 112 OFFCURVE",
"345 112 CURVE SMOOTH",
"251 112 LINE",
"251 244 LINE"
);
},
{
closed = 1;
nodes = (
"41 589 LINE",
"41 477 LINE",
"122 477 LINE",
"122 112 LINE",
"41 112 LINE",
"41 0 LINE",
"368 0 LINE SMOOTH",
"505 0 OFFCURVE",
"569 64 OFFCURVE",
"569 165 CURVE SMOOTH",
"569 216 OFFCURVE",
"542 275 OFFCURVE",
"492 299 CURVE",
"536 338 OFFCURVE",
"551 378 OFFCURVE",
"551 416 CURVE SMOOTH",
"551 545 OFFCURVE",
"474 589 OFFCURVE",
"306 589 CURVE SMOOTH"
);
}
);
};
components = (
{
name = B;
}
);
layerId = "6E1B38A8-44EA-440A-BD04-FE41D2B0BC62";
width = 647;
}
);
leftKerningGroup = I;
rightKerningGroup = B;
unicode = 0412;
},
{
color = 1;
glyphname = "Ge-cy";
layers = (
{
anchors = (
{
name = bottomright;
position = "{250, 69}";
},
{
name = center;
position = "{220, 295}";
},
{
name = top;
position = "{320, 589}";
}
);
layerId = UUID0;
paths = (
{
closed = 1;
nodes = (
"51 520 LINE",
"146 520 LINE",
"145 69 LINE",
"50 69 LINE",
"50 0 LINE",
"346 0 LINE",
"346 69 LINE",
"223 69 LINE",
"225 520 LINE",
"413 520 LINE",
"435 426 LINE",
"504 441 LINE",
"476 589 LINE",
"51 589 LINE"
);
}
);
width = 484;
},
{
anchors = (
{
name = bottomright;
position = "{313, 112}";
},
{
name = center;
position = "{262, 295}";
},
{
name = top;
position = "{381, 589}";
}
);
background = {
paths = (
{
closed = 1;
nodes = (
"538 441 LINE",
"510 589 LINE",
"85 589 LINE",
"85 520 LINE",
"180 520 LINE",
"179 69 LINE",
"84 69 LINE",
"84 0 LINE",
"380 0 LINE",
"380 69 LINE",
"257 69 LINE",
"259 520 LINE",
"447 520 LINE",
"469 426 LINE"
);
}
);
};
layerId = "6E1B38A8-44EA-440A-BD04-FE41D2B0BC62";
paths = (
{
closed = 1;
nodes = (
"76 477 LINE",
"171 477 LINE",
"171 112 LINE",
"75 112 LINE",
"75 0 LINE",
"394 0 LINE",
"394 112 LINE",
"299 112 LINE",
"299 477 LINE",
"435 477 LINE",
"472 370 LINE",
"578 406 LINE",
"516 589 LINE",
"76 589 LINE"
);
}
);
width = 637;
}
);
leftKerningGroup = I;
rightKerningGroup = "Ge-cy";
unicode = 0413;
},
{
color = 1;
glyphname = "Gheupturn-cy";
layers = (
{
anchors = (
{
name = top;
position = "{293, 700}";
}
);
layerId = UUID0;
paths = (
{
closed = 1;
nodes = (
"425 589 LINE",
"51 589 LINE",
"51 520 LINE",
"146 520 LINE",
"145 69 LINE",
"50 69 LINE",
"50 0 LINE",
"346 0 LINE",
"346 69 LINE",
"223 69 LINE",
"225 520 LINE",
"488 520 LINE",
"516 668 LINE",
"447 683 LINE"
);
}
);
width = 501;
},
{
layerId = "6E1B38A8-44EA-440A-BD04-FE41D2B0BC62";
paths = (
{
closed = 1;
nodes = (
"407 589 LINE",
"76 589 LINE",
"76 477 LINE",
"171 477 LINE",
"171 112 LINE",
"75 112 LINE",
"75 0 LINE",
"394 0 LINE",
"394 112 LINE",
"299 112 LINE",
"299 477 LINE",
"487 477 LINE",
"487 478 LINE",
"488 477 LINE",
"550 660 LINE",
"444 696 LINE"
);
}
);
width = 577;
}
);
leftKerningGroup = I;
rightKerningGroup = "Ge-cy";
unicode = 0490;
},
{
color = 1;
glyphname = "De-cy";
layers = (
{
layerId = UUID0;
paths = (
{
closed = 1;
nodes = (
"19 69 LINE",
"19 -133 LINE",
"87 -133 LINE",
"87 0 LINE",
"540 0 LINE",
"540 -133 LINE",
"608 -133 LINE",
"608 69 LINE",
"515 69 LINE",
"515 520 LINE",
"612 520 LINE",
"612 589 LINE",
"71 589 LINE",
"71 520 LINE",
"177 520 LINE",
"159 306 LINE SMOOTH",
"149 182 OFFCURVE",
"126 111 OFFCURVE",
"89 69 CURVE"
);
},
{
closed = 1;
nodes = (
"199 115 OFFCURVE",
"220 189 OFFCURVE",
"230 296 CURVE SMOOTH",
"251 520 LINE",
"438 520 LINE",
"438 69 LINE",
"162 69 LINE"
);
}
);
width = 657;
},
{
background = {
paths = (
{
closed = 1;
nodes = (
"131 520 LINE",
"237 520 LINE",
"225 334 LINE SMOOTH",
"218 231 OFFCURVE",
"190 112 OFFCURVE",
"149 69 CURVE",
"69 69 LINE",
"69 -133 LINE",
"138 -133 LINE",
"138 0 LINE",
"601 0 LINE",
"601 -133 LINE",
"668 -133 LINE",
"668 69 LINE",
"576 69 LINE",
"576 520 LINE",
"672 520 LINE",
"672 589 LINE",
"131 589 LINE"
);
},
{
closed = 1;
nodes = (
"311 520 LINE",
"498 520 LINE",
"498 69 LINE",
"232 69 LINE",
"270 127 OFFCURVE",
"287 212 OFFCURVE",
"296 333 CURVE SMOOTH"
);
}
);
};
layerId = "6E1B38A8-44EA-440A-BD04-FE41D2B0BC62";
paths = (
{
closed = 1;
nodes = (
"66 112 LINE",
"66 -134 LINE",
"172 -134 LINE",
"172 0 LINE",
"575 0 LINE",
"575 -134 LINE",
"682 -134 LINE",
"682 112 LINE",
"586 112 LINE",
"586 477 LINE",
"682 477 LINE",
"682 589 LINE",
"102 589 LINE",
"102 477 LINE",
"205 477 LINE",
"190 298 LINE SMOOTH",
"181 209 OFFCURVE",
"170 166 OFFCURVE",
"145 112 CURVE"
);
},
{
closed = 1;
nodes = (
"278 161 OFFCURVE",
"292 209 OFFCURVE",
"300 291 CURVE SMOOTH",
"318 477 LINE",
"458 477 LINE",
"458 112 LINE",
"256 112 LINE"
);
}
);
width = 758;
}
);
leftKerningGroup = "De-cy";
rightKerningGroup = "Tse-cy";
unicode = 0414;
},
{
glyphname = "Ie-cy";
layers = (
{
anchors = (
{
name = top;
position = "{305, 589}";
}
);
components = (
{
name = E;
}
);
layerId = UUID0;
width = 594;
},
{
anchors = (
{
name = top;
position = "{299, 589}";
}
);
background = {
paths = (
{
closed = 1;
nodes = (
"500 176 LINE",
"460 69 LINE",
"225 69 LINE",
"225 270 LINE",
"413 270 LINE",
"413 339 LINE",
"226 339 LINE",
"226 520 LINE",
"440 520 LINE",
"480 413 LINE",
"546 435 LINE",
"494 589 LINE",
"51 589 LINE",
"51 520 LINE",
"146 520 LINE",
"146 69 LINE",
"50 69 LINE",
"50 0 LINE",
"514 0 LINE",
"566 154 LINE"
);
},
{
closed = 1;
nodes = (
"480 210 LINE",
"445 112 LINE",
"252 112 LINE",
"252 243 LINE",
"415 243 LINE",
"415 354 LINE",
"252 354 LINE",
"252 477 LINE",
"418 477 LINE",
"455 368 LINE",
"561 404 LINE",
"499 589 LINE",
"42 589 LINE",
"42 477 LINE",
"123 477 LINE",
"122 112 LINE",
"41 112 LINE",
"41 0 LINE",
"525 0 LINE",
"585 173 LINE"
);
}
);
};
components = (
{
name = E;
}
);
layerId = "6E1B38A8-44EA-440A-BD04-FE41D2B0BC62";
width = 684;
}
);
leftKerningGroup = I;
rightKerningGroup = E;
unicode = 0415;
},
{
glyphname = "Io-cy";
layers = (
{
components = (
{
name = "Ie-cy";
},
{
name = dieresiscomb;
transform = "{1, 0, 0, 1, 130, 160}";
}
);
layerId = UUID0;
width = 594;
},
{
background = {
paths = (
{
closed = 1;
nodes = (
"494 176 LINE",
"454 69 LINE",
"219 69 LINE",
"220 270 LINE",
"407 270 LINE",
"407 339 LINE",
"220 339 LINE",
"220 520 LINE",
"434 520 LINE",
"474 413 LINE",
"540 435 LINE",
"488 589 LINE",
"45 589 LINE",
"45 520 LINE",
"140 520 LINE",
"139 69 LINE",
"44 69 LINE",
"44 0 LINE",
"508 0 LINE",
"560 154 LINE"
);
},
{
closed = 1;
nodes = (
"236 754 OFFCURVE",
"207 783 OFFCURVE",
"174 783 CURVE SMOOTH",
"140 783 OFFCURVE",
"112 754 OFFCURVE",
"112 721 CURVE SMOOTH",
"112 687 OFFCURVE",
"140 659 OFFCURVE",
"174 659 CURVE SMOOTH",
"207 659 OFFCURVE",
"236 687 OFFCURVE",
"236 721 CURVE SMOOTH"
);
},
{
closed = 1;
nodes = (
"452 754 OFFCURVE",
"423 783 OFFCURVE",
"390 783 CURVE SMOOTH",
"356 783 OFFCURVE",
"328 754 OFFCURVE",
"328 721 CURVE SMOOTH",
"328 687 OFFCURVE",
"356 659 OFFCURVE",
"390 659 CURVE SMOOTH",
"423 659 OFFCURVE",
"452 687 OFFCURVE",
"452 721 CURVE SMOOTH"
);
}
);
};
components = (
{
name = "Ie-cy";
},
{
name = dieresiscomb;
transform = "{1, 0, 0, 1, 54, 135}";
}
);
layerId = "6E1B38A8-44EA-440A-BD04-FE41D2B0BC62";
width = 684;
}
);
leftKerningGroup = I;
rightKerningGroup = E;
unicode = 0401;
},
{
color = 1;
glyphname = "Zhe-cy";
layers = (
{
anchors = (
{
name = bottomright;
position = "{787, 69}";
},
{
name = top;
position = "{446, 589}";
}
);
layerId = UUID0;
paths = (
{
closed = 1;
nodes = (
"13 520 LINE",
"104 520 LINE",
"263 306 LINE",
"104 69 LINE",
"9 69 LINE",
"9 0 LINE",
"259 0 LINE",
"259 69 LINE",
"196 69 LINE",
"319 268 LINE",
"406 268 LINE",
"406 69 LINE",
"342 69 LINE",
"342 0 LINE",
"549 0 LINE",
"549 69 LINE",
"483 69 LINE",
"484 268 LINE",
"572 268 LINE",
"695 69 LINE",
"632 69 LINE",
"632 0 LINE",
"882 0 LINE",
"882 69 LINE",
"787 69 LINE",
"627 306 LINE",
"787 520 LINE",
"878 520 LINE",
"878 589 LINE",
"632 589 LINE",
"632 520 LINE",
"703 520 LINE",
"566 337 LINE",
"484 337 LINE",
"485 519 LINE",
"549 519 LINE",
"549 588 LINE",
"342 588 LINE",
"342 519 LINE",
"406 519 LINE",
"406 337 LINE",
"325 337 LINE",
"187 520 LINE",
"259 520 LINE",
"259 589 LINE",
"13 589 LINE"
);
}
);
width = 891;
},
{
anchors = (
{
name = bottomright;
position = "{911, 112}";
},
{
name = top;
position = "{535, 589}";
}
);
background = {
paths = (
{
closed = 1;
nodes = (
"721 0 LINE",
"971 0 LINE",
"971 69 LINE",
"877 69 LINE",
"716 306 LINE",
"877 520 LINE",
"967 520 LINE",
"967 589 LINE",
"721 589 LINE",
"721 520 LINE",
"793 520 LINE",
"655 337 LINE",
"573 337 LINE",
"574 519 LINE",
"638 519 LINE",
"638 588 LINE",
"431 588 LINE",
"431 519 LINE",
"495 519 LINE",
"495 337 LINE",
"415 337 LINE",
"277 520 LINE",
"348 520 LINE",
"348 589 LINE",
"103 589 LINE",
"103 520 LINE",
"194 520 LINE",
"353 306 LINE",
"194 69 LINE",
"98 69 LINE",
"98 0 LINE",
"348 0 LINE",
"348 69 LINE",
"285 69 LINE",
"408 268 LINE",
"495 268 LINE",
"495 69 LINE",
"431 69 LINE",
"431 0 LINE",
"638 0 LINE",
"638 69 LINE",
"572 69 LINE",
"573 268 LINE",
"661 268 LINE",
"784 69 LINE",
"721 69 LINE"
);
}
);
};
layerId = "6E1B38A8-44EA-440A-BD04-FE41D2B0BC62";
paths = (
{
closed = 1;
nodes = (
"81 477 LINE",
"163 477 LINE",
"285 307 LINE",
"157 112 LINE",
"74 112 LINE",
"74 0 LINE",
"357 0 LINE",
"357 112 LINE",
"308 112 LINE",
"387 237 LINE",
"470 236 LINE",
"470 112 LINE",
"400 112 LINE",
"400 0 LINE",
"668 0 LINE",
"668 112 LINE",
"598 112 LINE",
"598 236 LINE",
"681 237 LINE",
"760 112 LINE",
"712 112 LINE",
"712 0 LINE",
"994 0 LINE",
"994 112 LINE",
"911 112 LINE",
"783 307 LINE",
"906 477 LINE",
"987 477 LINE",
"987 589 LINE",
"712 589 LINE",
"712 477 LINE",
"764 477 LINE",
"676 348 LINE",
"598 348 LINE",
"598 477 LINE",
"668 477 LINE",
"668 589 LINE",
"400 589 LINE",
"400 477 LINE",
"470 477 LINE",
"470 348 LINE",
"392 348 LINE",
"305 477 LINE",
"357 477 LINE",
"357 589 LINE",
"81 589 LINE"
);
}
);
width = 1068;
}
);
leftKerningGroup = X;
rightKerningGroup = K;
unicode = 0416;
},
{
color = 1;
glyphname = "Ze-cy";
layers = (
{
anchors = (
{
name = bottom;
position = "{276, 0}";
},
{
name = top;
position = "{276, 589}";
}
);
background = {
paths = (
{
closed = 1;
nodes = (
"95 604 OFFCURVE",
"-14 480 OFFCURVE",
"-14 295 CURVE SMOOTH",
"-14 109 OFFCURVE",
"96 -15 OFFCURVE",
"260 -15 CURVE SMOOTH",
"424 -15 OFFCURVE",
"534 109 OFFCURVE",
"534 295 CURVE SMOOTH",
"534 480 OFFCURVE",
"424 604 OFFCURVE",
"259 604 CURVE SMOOTH"
);
},
{
closed = 1;
nodes = (
"379 534 OFFCURVE",
"449 446 OFFCURVE",
"449 295 CURVE SMOOTH",
"449 143 OFFCURVE",
"379 55 OFFCURVE",
"260 55 CURVE SMOOTH",
"141 55 OFFCURVE",
"71 143 OFFCURVE",
"71 295 CURVE SMOOTH",
"71 446 OFFCURVE",
"141 534 OFFCURVE",
"260 534 CURVE SMOOTH"
);
}
);
};
layerId = UUID0;
paths = (
{
closed = 1;
nodes = (
"70 441 LINE",
"139 426 LINE",
"158 509 LINE",
"181 521 OFFCURVE",
"216 536 OFFCURVE",
"260 536 CURVE SMOOTH",
"313 536 OFFCURVE",
"388 515 OFFCURVE",
"388 435 CURVE SMOOTH",
"388 364 OFFCURVE",
"338 334 OFFCURVE",
"266 334 CURVE SMOOTH",
"208 334 LINE",
"208 265 LINE",
"244 265 LINE SMOOTH",
"294 265 OFFCURVE",
"407 273 OFFCURVE",
"407 178 CURVE SMOOTH",
"407 99 OFFCURVE",
"346 55 OFFCURVE",
"260 55 CURVE SMOOTH",
"185 55 OFFCURVE",
"151 87 OFFCURVE",
"142 97 CURVE",
"125 163 LINE",
"57 147 LINE",
"80 48 LINE",
"80 48 OFFCURVE",
"143 -15 OFFCURVE",
"259 -15 CURVE SMOOTH",
"417 -15 OFFCURVE",
"492 68 OFFCURVE",
"492 162 CURVE SMOOTH",
"492 242 OFFCURVE",
"444 286 OFFCURVE",
"402 305 CURVE",
"437 329 OFFCURVE",
"473 368 OFFCURVE",
"473 440 CURVE SMOOTH",
"473 541 OFFCURVE",
"383 604 OFFCURVE",
"262 604 CURVE SMOOTH",
"173 604 OFFCURVE",
"92 558 OFFCURVE",
"91 557 CURVE"
);
}
);
width = 552;
},
{
anchors = (
{
name = bottom;
position = "{311, 0}";
},
{
name = top;
position = "{311, 589}";
}
);
background = {
paths = (
{
closed = 1;
nodes = (
"34 589 LINE",
"34 477 LINE",
"115 477 LINE",
"115 112 LINE",
"34 112 LINE",
"34 0 LINE",
"361 0 LINE SMOOTH",
"492 0 OFFCURVE",
"562 58 OFFCURVE",
"562 162 CURVE SMOOTH",
"562 234 OFFCURVE",
"528 281 OFFCURVE",
"465 299 CURVE",
"516 324 OFFCURVE",
"544 369 OFFCURVE",
"544 429 CURVE SMOOTH",
"544 532 OFFCURVE",
"458 589 OFFCURVE",
"299 589 CURVE SMOOTH"
);
},
{
closed = 1;
nodes = (
"244 112 LINE",
"244 244 LINE",
"344 244 LINE SMOOTH",
"399 244 OFFCURVE",
"429 221 OFFCURVE",
"429 179 CURVE SMOOTH",
"429 135 OFFCURVE",
"397 112 OFFCURVE",
"338 112 CURVE SMOOTH"
);
},
{
closed = 1;
nodes = (
"244 345 LINE",
"244 477 LINE",
"310 477 LINE SMOOTH",
"375 477 OFFCURVE",
"410 454 OFFCURVE",
"410 410 CURVE SMOOTH",
"410 368 OFFCURVE",
"387 345 OFFCURVE",
"345 345 CURVE SMOOTH"
);
}
);
};
layerId = "6E1B38A8-44EA-440A-BD04-FE41D2B0BC62";
paths = (
{
closed = 1;
nodes = (
"80 446 LINE",
"189 421 LINE",
"209 483 LINE",
"245 498 OFFCURVE",
"283 503 OFFCURVE",
"317 503 CURVE SMOOTH",
"375 503 OFFCURVE",
"420 479 OFFCURVE",
"420 428 CURVE SMOOTH",
"420 374 OFFCURVE",
"385 345 OFFCURVE",
"321 345 CURVE SMOOTH",
"251 345 LINE",
"251 244 LINE",
"324 244 LINE SMOOTH",
"399 244 OFFCURVE",
"439 215 OFFCURVE",
"439 162 CURVE SMOOTH",
"439 110 OFFCURVE",
"382 86 OFFCURVE",
"313 86 CURVE SMOOTH",
"268 86 OFFCURVE",
"230 98 OFFCURVE",
"198 122 CURVE",
"179 191 LINE",
"70 163 LINE",
"98 54 LINE",
"147 5 OFFCURVE",
"221 -21 OFFCURVE",
"314 -21 CURVE SMOOTH",
"471 -20 OFFCURVE",
"561 46 OFFCURVE",
"561 156 CURVE SMOOTH",
"561 225 OFFCURVE",
"520 281 OFFCURVE",
"435 300 CURVE",
"498 320 OFFCURVE",
"540 370 OFFCURVE",
"540 432 CURVE SMOOTH",
"540 554 OFFCURVE",
"439 611 OFFCURVE",
"319 611 CURVE SMOOTH",
"248 611 OFFCURVE",
"172 592 OFFCURVE",
"104 552 CURVE"
);
}
);
width = 637;
},
{
anchors = (
{
name = bottom;
position = "{268, 0}";
},
{
name = top;
position = "{268, 589}";
}
);
associatedMasterId = "6E1B38A8-44EA-440A-BD04-FE41D2B0BC62";
background = {
paths = (
{
closed = 1;
nodes = (
"139 426 LINE",
"158 509 LINE",
"181 521 OFFCURVE",
"216 536 OFFCURVE",
"260 536 CURVE SMOOTH",
"313 536 OFFCURVE",
"388 515 OFFCURVE",
"388 435 CURVE SMOOTH",
"388 364 OFFCURVE",
"338 334 OFFCURVE",
"266 334 CURVE SMOOTH",
"208 334 LINE",
"208 265 LINE",
"244 265 LINE SMOOTH",
"294 265 OFFCURVE",
"407 273 OFFCURVE",
"407 178 CURVE SMOOTH",
"407 99 OFFCURVE",
"348 53 OFFCURVE",
"262 53 CURVE SMOOTH",
"187 53 OFFCURVE",
"151 87 OFFCURVE",
"142 97 CURVE",
"125 163 LINE",
"57 147 LINE",
"80 48 LINE",
"80 48 OFFCURVE",
"143 -15 OFFCURVE",
"259 -15 CURVE SMOOTH",
"417 -15 OFFCURVE",
"492 68 OFFCURVE",
"492 162 CURVE SMOOTH",
"492 242 OFFCURVE",
"444 286 OFFCURVE",
"402 305 CURVE",
"437 329 OFFCURVE",
"473 368 OFFCURVE",
"473 440 CURVE SMOOTH",
"473 541 OFFCURVE",
"383 604 OFFCURVE",
"262 604 CURVE SMOOTH",
"173 604 OFFCURVE",
"92 558 OFFCURVE",
"91 557 CURVE",
"92 556 LINE",
"70 441 LINE"
);
}
);
};
layerId = "0DAC535C-910D-4EBB-8F11-38BFA8235837";
name = "Nov 1 16, 12:56";
paths = (
{
closed = 1;
nodes = (
"47 446 LINE",
"156 421 LINE",
"176 496 LINE",
"195 506 OFFCURVE",
"228 516 OFFCURVE",
"262 516 CURVE SMOOTH",
"286 516 OFFCURVE",
"367 510 OFFCURVE",
"367 438 CURVE SMOOTH",
"367 419 OFFCURVE",
"367 353 OFFCURVE",
"268 353 CURVE",
"208 353 LINE",
"208 247 LINE",
"271 247 LINE SMOOTH",
"326 247 OFFCURVE",
"386 239 OFFCURVE",
"386 182 CURVE SMOOTH",
"386 118 OFFCURVE",
"340 80 OFFCURVE",
"264 80 CURVE SMOOTH",
"205 80 OFFCURVE",
"175 103 OFFCURVE",
"165 112 CURVE",
"147 175 LINE",
"39 147 LINE",
"65 54 LINE",
"73 46 OFFCURVE",
"137 -21 OFFCURVE",
"261 -21 CURVE",
"380 -20 OFFCURVE",
"518 21 OFFCURVE",
"518 166 CURVE SMOOTH",
"518 231 OFFCURVE",
"489 291 OFFCURVE",
"425 312 CURVE",
"477 335 OFFCURVE",
"497 376 OFFCURVE",
"497 432 CURVE SMOOTH",
"497 543 OFFCURVE",
"392 611 OFFCURVE",
"264 611 CURVE SMOOTH",
"183 611 OFFCURVE",
"127 587 OFFCURVE",
"71 552 CURVE"
);
}
);
width = 536;
}
);
leftKerningGroup = "Ze-cy";
rightKerningGroup = B;
unicode = 0417;
},
{
color = 1;
glyphname = "Ii-cy";
layers = (
{
anchors = (
{
name = bottomright;
position = "{623, 69}";
},
{
name = top;
position = "{399, 589}";
}
);
guideLines = (
{
angle = 90;
position = "{226, 67}";
},
{
angle = 89.873;
position = "{546, 295}";
}
);
layerId = UUID0;
paths = (
{
closed = 1;
nodes = (
"54 520 LINE",
"149 520 LINE",
"148 69 LINE",
"53 69 LINE",
"53 0 LINE",
"226 0 LINE",
"546 475 LINE",
"545 69 LINE",
"481 69 LINE",
"481 0 LINE",
"718 0 LINE",
"718 69 LINE",
"623 69 LINE",
"624 520 LINE",
"720 520 LINE",
"720 589 LINE",
"547 589 LINE",
"226 104 LINE",
"228 520 LINE",
"292 520 LINE",
"292 589 LINE",
"54 589 LINE"
);
}
);
width = 758;
},
{
anchors = (
{
name = bottomright;
position = "{708, 112}";
},
{
name = top;
position = "{443, 589}";
}
);
background = {
paths = (
{
closed = 1;
nodes = (
"73 0 LINE",
"287 0 LINE",
"565 520 LINE",
"564 69 LINE",
"500 69 LINE",
"500 0 LINE",
"737 0 LINE",
"737 69 LINE",
"643 69 LINE",
"643 520 LINE",
"740 520 LINE",
"740 589 LINE",
"529 589 LINE",
"246 68 LINE",
"247 520 LINE",
"311 520 LINE",
"311 589 LINE",
"74 589 LINE",
"74 520 LINE",
"168 520 LINE",
"167 69 LINE",
"73 69 LINE"
);
}
);
};
guideLines = (
{
angle = 90;
position = "{287, 116}";
}
);
layerId = "6E1B38A8-44EA-440A-BD04-FE41D2B0BC62";
paths = (
{
closed = 1;
nodes = (
"76 477 LINE",
"158 477 LINE",
"158 112 LINE",
"76 112 LINE",
"76 0 LINE",
"287 0 LINE",
"579 428 LINE",
"579 112 LINE",
"526 112 LINE",
"526 0 LINE",
"789 0 LINE",
"789 112 LINE",
"708 112 LINE",
"708 477 LINE",
"789 477 LINE",
"789 589 LINE",
"579 589 LINE",
"287 164 LINE",
"287 477 LINE",
"341 477 LINE",
"341 588 LINE",
"76 589 LINE"
);
}
);
width = 865;
}
);
leftKerningGroup = I;
rightKerningGroup = I;
unicode = 0418;
},
{
glyphname = "Ka-cy";
layers = (
{
anchors = (
{
name = bottomright;
position = "{551, 69}";
},
{
name = center;
position = "{301, 301}";
},
{
name = top;
position = "{329, 589}";
}
);
components = (
{
name = K;
}
);
layerId = UUID0;
width = 673;
},
{
anchors = (
{
name = bottomright;
position = "{582, 112}";
},
{
name = center;
position = "{297, 295}";
},
{
name = top;
position = "{334, 589}";
}
);
background = {
paths = (
{
closed = 1;
nodes = (
"380 0 LINE",
"649 0 LINE",
"649 69 LINE",
"549 69 LINE",
"384 315 LINE",
"535 520 LINE",
"626 520 LINE",
"626 589 LINE",
"380 589 LINE",
"380 520 LINE",
"449 520 LINE",
"311 332 LINE",
"223 332 LINE",
"223 519 LINE",
"287 519 LINE",
"287 588 LINE",
"50 588 LINE",
"50 519 LINE",
"144 519 LINE",
"144 69 LINE",
"50 69 LINE",
"50 0 LINE",
"287 0 LINE",
"287 69 LINE",
"224 69 LINE",
"223 263 LINE",
"323 263 LINE",
"452 69 LINE",
"380 69 LINE"
);
},
{
closed = 1;
nodes = (
"358 0 LINE",
"663 0 LINE",
"663 112 LINE",
"562 112 LINE",
"411 312 LINE",
"544 477 LINE",
"638 477 LINE",
"638 589 LINE",
"373 589 LINE",
"373 477 LINE",
"414 477 LINE",
"318 346 LINE",
"250 346 LINE",
"250 477 LINE",
"305 477 LINE",
"305 589 LINE",
"41 589 LINE",
"41 477 LINE",
"122 477 LINE",
"122 112 LINE",
"41 112 LINE",
"41 0 LINE",
"305 0 LINE",
"305 112 LINE",
"250 112 LINE",
"250 238 LINE",
"310 238 LINE",
"406 112 LINE",
"358 112 LINE"
);
}
);
};
components = (
{
name = K;
}
);
layerId = "6E1B38A8-44EA-440A-BD04-FE41D2B0BC62";
width = 767;
}
);
leftKerningGroup = I;
rightKerningGroup = K;
unicode = 041A;
},
